<?xml version="1.0" standalone="no"?>
<!DOCTYPE svg PUBLIC "-//W3C//DTD SVG 1.1//EN" "http://www.w3.org/Graphics/SVG/1.1/DTD/svg11.dtd" >
<svg xmlns="http://www.w3.org/2000/svg" xmlns:xlink="http://www.w3.org/1999/xlink" version="1.1">
<metadata>
Created by FontForge 20190801 at Thu Jan 30 02:08:26 2020
 By Unknown
Copyright (c) 2002 by Stefan Gandl. Alle Rechte vorbehalten.
</metadata>
<defs>
<font id="." horiz-adv-x="580" >
  <font-face 
    font-family="."
    font-weight="400"
    font-stretch="normal"
    units-per-em="1000"
    panose-1="2 1 5 9 2 2 0 4 1 1"
    ascent="800"
    descent="-200"
    x-height="700"
    cap-height="700"
    bbox="0 -240.375 700 1050"
    underline-thickness="20"
    underline-position="-200"
    unicode-range="U+0009-FB04"
  />
<missing-glyph horiz-adv-x="364" 
d="M33 0v666h265v-666h-265zM66 33h199v600h-199v-600z" />
    <glyph glyph-name=".notdef" horiz-adv-x="364" 
d="M33 0v666h265v-666h-265zM66 33h199v600h-199v-600z" />
    <glyph glyph-name="glyph1" 
 />
    <glyph glyph-name="glyph1" 
 />
    <glyph glyph-name="glyph2" horiz-adv-x="333" 
 />
    <glyph glyph-name="uni0009" unicode="&#x9;" 
 />
    <glyph glyph-name="uni000A" unicode="&#xa;" 
 />
    <glyph glyph-name="uni000D" unicode="&#xd;" 
 />
    <glyph glyph-name="uni0010" 
 />
    <glyph glyph-name="uni0011" 
 />
    <glyph glyph-name="uni0012" 
 />
    <glyph glyph-name="uni0013" 
 />
    <glyph glyph-name="uni0014" 
 />
    <glyph glyph-name="uni001E" 
 />
    <glyph glyph-name="uni001F" 
d="M50 169q0 17 11.5 28.5t28.5 11.5t28.5 -11.5t11.5 -28.5q0 -37 26.5 -63t63.5 -26h141q37 0 63 26t26 64q0 36 -29.5 65t-74 47.5t-96.5 42.5t-96.5 48t-74 65t-29.5 93q0 70 49.5 119.5t119.5 49.5h31v80q0 17 11.5 28.5t28.5 11.5q16 0 28 -12t12 -28v-80h30
q71 0 120.5 -49t49.5 -119q0 -17 -11.5 -28.5t-28.5 -11.5t-28.5 11.5t-11.5 28.5q0 36 -26.5 62t-63.5 26h-141q-36 0 -62.5 -26t-26.5 -63q0 -36 29.5 -65.5t74 -48t96.5 -42.5t96.5 -48t74 -64.5t29.5 -92.5q0 -70 -50 -120t-120 -50h-30v-80q0 -16 -12 -28t-28 -12
q-17 0 -28.5 11.5t-11.5 28.5v80h-30q-70 0 -120 49.5t-50 119.5z" />
    <glyph glyph-name="space" unicode=" " 
 />
    <glyph glyph-name="exclam" unicode="!" 
d="M250 230v430q0 17 11.5 28.5t28.5 11.5q16 0 28 -12t12 -28v-430q0 -17 -11.5 -28.5t-28.5 -11.5t-28.5 11.5t-11.5 28.5zM250 40v80q0 17 11.5 28.5t28.5 11.5q16 0 28 -12t12 -28v-80q0 -17 -11.5 -28.5t-28.5 -11.5t-28.5 11.5t-11.5 28.5z" />
    <glyph glyph-name="quotedbl" unicode="&#x22;" 
d="M170 501v159q0 17 11.5 28.5t28.5 11.5q16 0 28 -12t12 -28v-159q0 -17 -11.5 -28.5t-28.5 -11.5t-28.5 11.5t-11.5 28.5zM330 501v159q0 17 11.5 28.5t28.5 11.5q16 0 28 -12t12 -28v-159q0 -17 -11.5 -28.5t-28.5 -11.5t-28.5 11.5t-11.5 28.5z" />
    <glyph glyph-name="numbersign" unicode="#" 
d="M50 547q0 17 11.5 28.5t28.5 11.5h80v73q0 17 11.5 28.5t28.5 11.5q16 0 28 -12t12 -28v-73h80v73q0 17 11.5 28.5t28.5 11.5q16 0 28 -12t12 -28v-73h80q17 0 28.5 -11.5t11.5 -28.5t-11.5 -28.5t-28.5 -11.5h-80v-302h80q17 0 28.5 -11.5t11.5 -28.5t-11.5 -28.5
t-28.5 -11.5h-80v-85q0 -16 -12 -28t-28 -12q-17 0 -28.5 11.5t-11.5 28.5v85h-80v-85q0 -16 -12 -28t-28 -12q-17 0 -28.5 11.5t-11.5 28.5v85h-80q-16 0 -28 11.5t-12 28.5t11.5 28.5t28.5 11.5h80v302h-80q-16 0 -28 11.5t-12 28.5zM250 507v-302h80v302h-80z" />
    <glyph glyph-name="dollar" unicode="$" 
d="M50 169q0 17 11.5 28.5t28.5 11.5t28.5 -11.5t11.5 -28.5q0 -37 26.5 -63t63.5 -26h141q37 0 63 26t26 64q0 36 -29.5 65t-74 47.5t-96.5 42.5t-96.5 48t-74 65t-29.5 93q0 70 49.5 119.5t119.5 49.5h31v80q0 17 11.5 28.5t28.5 11.5q16 0 28 -12t12 -28v-80h30
q71 0 120.5 -49t49.5 -119q0 -17 -11.5 -28.5t-28.5 -11.5t-28.5 11.5t-11.5 28.5q0 36 -26.5 62t-63.5 26h-141q-36 0 -62.5 -26t-26.5 -63q0 -36 29.5 -65.5t74 -48t96.5 -42.5t96.5 -48t74 -64.5t29.5 -92.5q0 -70 -50 -120t-120 -50h-30v-80q0 -16 -12 -28t-28 -12
q-17 0 -28.5 11.5t-11.5 28.5v80h-30q-70 0 -120 49.5t-50 119.5z" />
    <glyph glyph-name="percent" unicode="%" 
d="M50 30v30q0 15 8 27l412 553v30q0 13 8.5 21.5t21.5 8.5t21.5 -8.5t8.5 -21.5v-30q0 -16 -8 -27l-412 -553v-30q0 -13 -8.5 -21.5t-21.5 -8.5t-21.5 8.5t-8.5 21.5zM260 595v-139q0 -44 -31 -75t-74 -31t-74 31t-31 75v139q0 43 31 74t74 31t74 -31t31 -74zM530 245v-139
q0 -44 -31 -75t-74 -31t-74 31t-31 75v139q0 43 31 74t74 31t74 -31t31 -74zM200 456v139q0 18 -13 31.5t-32 13.5t-32 -13.5t-13 -31.5v-139q0 -19 13 -32.5t32 -13.5t32 13.5t13 32.5zM470 106v139q0 18 -13 31.5t-32 13.5t-32 -13.5t-13 -31.5v-139q0 -19 13 -32.5
t32 -13.5t32 13.5t13 32.5z" />
    <glyph glyph-name="ampersand" unicode="&#x26;" 
d="M443 14l-62 77l-40 -45q-40 -46 -114 -46q-66 0 -113 47t-47 114q0 55 44 111l66 81l-76 101q-34 43 -34 92q0 65 46.5 109.5t113.5 44.5q68 0 115.5 -44.5t47.5 -109.5q0 -52 -36 -96l-82 -98l114 -146l58 64q11 12 27.5 12.5t28.5 -10.5q12 -12 12 -28t-11 -28l-68 -69
l69 -82q11 -13 10 -29t-14 -27q-12 -11 -28.5 -9.5t-26.5 14.5zM289 103l46 49l-112 141l-55 -69q-24 -31 -24 -60q0 -36 23.5 -60t59.5 -24q40 0 62 23zM312 544q0 33 -25 54.5t-60 21.5q-36 0 -59.5 -21.5t-23.5 -54.5q0 -21 19 -47l63 -85l67 81q19 25 19 51z" />
    <glyph glyph-name="quotesingle" unicode="'" 
d="M250 501v159q0 17 11.5 28.5t28.5 11.5q16 0 28 -12t12 -28v-159q0 -17 -11.5 -28.5t-28.5 -11.5t-28.5 11.5t-11.5 28.5z" />
    <glyph glyph-name="parenleft" unicode="(" 
d="M459 660q0 -17 -11.5 -28.5t-28.5 -11.5q-37 0 -63 -26t-26 -63v-361q0 -37 26.5 -63.5t62.5 -26.5q17 0 28.5 -12t11.5 -28q0 -17 -11.5 -28.5t-28.5 -11.5q-70 0 -119.5 49.5t-49.5 120.5v361q0 71 49 120t120 49q17 0 28.5 -12t11.5 -28z" />
    <glyph glyph-name="parenright" unicode=")" 
d="M121 660q0 17 11.5 28.5t28.5 11.5q70 0 119.5 -49.5t49.5 -119.5v-361q0 -70 -49.5 -120t-119.5 -50q-17 0 -28.5 11.5t-11.5 28.5t11.5 28.5t28.5 11.5q36 0 62.5 26.5t26.5 63.5v361q0 37 -26.5 63t-62.5 26q-17 0 -28.5 11.5t-11.5 28.5z" />
    <glyph glyph-name="asterisk" unicode="*" 
d="M142 690q12 12 28.5 11.5t27.5 -12.5l92 -91l92 91q10 11 28 11t29 -11q12 -12 11.5 -28.5t-12.5 -27.5l-91 -92l91 -92q12 -12 12.5 -28t-11.5 -28t-28.5 -12.5t-28.5 12.5l-92 91l-92 -91q-12 -12 -28 -12.5t-28 11.5t-12.5 28.5t12.5 28.5l91 92l-91 92q-11 10 -11 28
t11 29z" />
    <glyph glyph-name="plus" unicode="+" 
d="M291 590q16 0 27.5 -11.5t11.5 -28.5v-160h160q15 0 27.5 -12.5t12.5 -28.5t-11.5 -27.5t-28.5 -11.5h-160v-160q0 -16 -11.5 -28t-27.5 -12q-17 0 -29 11.5t-12 28.5v160h-160q-16 0 -28 11.5t-12 27.5q0 17 11.5 29t28.5 12h160v160q0 15 12.5 27.5t28.5 12.5z" />
    <glyph glyph-name="comma" unicode="," 
d="M250 40v72q0 48 40 48q20 0 30 -14t10 -35v-78q0 -33 -9 -54l-37 -88q-4 -9 -13.5 -10t-16 6.5t-2.5 17.5l38 95q-17 0 -28.5 11.5t-11.5 28.5z" />
    <glyph glyph-name="hyphen" unicode="-" 
d="M530 349q0 -16 -11.5 -27.5t-28.5 -11.5h-400q-16 0 -28 11.5t-12 27.5q0 17 11.5 29t28.5 12h400q15 0 27.5 -12.5t12.5 -28.5z" />
    <glyph glyph-name="period" unicode="." 
d="M250 40v80q0 17 11.5 28.5t28.5 11.5q16 0 28 -12t12 -28v-80q0 -17 -11.5 -28.5t-28.5 -11.5t-28.5 11.5t-11.5 28.5z" />
    <glyph glyph-name="slash" unicode="/" 
d="M50 40v35q0 30 19 54l381 491v40q0 16 12 28t28 12q17 0 28.5 -11.5t11.5 -28.5v-35q0 -33 -18 -56l-382 -489v-40q0 -17 -11.5 -28.5t-28.5 -11.5t-28.5 11.5t-11.5 28.5z" />
    <glyph glyph-name="zero" unicode="0" 
d="M530 556v-413q0 -59 -41.5 -101t-101.5 -42h-194q-59 0 -101 42t-42 101v413q0 60 42 102t101 42h194q60 0 101.5 -42t41.5 -102zM130 245l319 325q-17 50 -62 50h-194q-26 0 -44.5 -19t-18.5 -45v-311zM450 143v312l-318 -326q17 -49 61 -49h194q25 0 44 19t19 44z" />
    <glyph glyph-name="one" unicode="1" 
d="M50 40q0 16 12 28t28 12h160v540h-160q-17 0 -28.5 11.5t-11.5 28.5q0 16 12 28t28 12h200q16 0 28 -12t12 -28v-580h160q17 0 28.5 -11.5t11.5 -28.5t-11.5 -28.5t-28.5 -11.5h-400q-17 0 -28.5 11.5t-11.5 28.5z" />
    <glyph glyph-name="two" unicode="2" 
d="M530 40q0 -17 -11.5 -28.5t-28.5 -11.5h-400q-17 0 -28.5 11.5t-11.5 28.5v96q0 51 22 92t57.5 67.5t78 49t85 41.5t78 38.5t57.5 46t22 59.5q0 37 -26.5 63.5t-63.5 26.5h-141q-37 0 -63 -26t-26 -63q0 -17 -11.5 -28.5t-28.5 -11.5q-16 0 -28 11.5t-12 28.5
q0 70 49.5 119.5t119.5 49.5h141q70 0 120 -50t50 -120q0 -54 -29.5 -96t-74 -67t-96.5 -50.5t-96.5 -47t-74 -56t-29.5 -77.5v-56h360q17 0 28.5 -11.5t11.5 -28.5z" />
    <glyph glyph-name="three" unicode="3" 
d="M50 556q0 60 42 102t101 42h194q59 0 101 -42t42 -102v-103q0 -55 -43 -103q43 -49 43 -105v-102q0 -59 -42 -101t-101 -42h-195q-59 0 -100.5 42t-41.5 101q0 17 11.5 28.5t28.5 11.5t28.5 -11.5t11.5 -28.5q0 -26 18.5 -44.5t43.5 -18.5h195q25 0 44 19t19 44v102
q0 27 -18.5 46t-44.5 19h-137q-17 0 -28.5 11.5t-11.5 28.5t11.5 28.5t28.5 11.5h137q26 0 44.5 18.5t18.5 44.5v103q0 27 -18.5 45.5t-44.5 18.5h-195q-26 0 -44 -18.5t-18 -45.5q0 -17 -11.5 -28.5t-28.5 -11.5q-16 0 -28 12t-12 28z" />
    <glyph glyph-name="four" unicode="4" 
d="M330 0q-17 0 -28.5 11.5t-11.5 28.5v120h-200q-15 0 -27.5 12t-12.5 28v117q0 59 19 98l128 262q11 23 35 23q20 0 33 -19t3 -39l-124 -260q-14 -28 -14 -65v-77h160v110q0 17 11.5 28.5t28.5 11.5t28.5 -11.5t11.5 -28.5v-110h120q16 0 28 -12t12 -28q0 -17 -11.5 -28.5
t-28.5 -11.5h-120v-120q0 -16 -12 -28t-28 -12z" />
    <glyph glyph-name="five" unicode="5" 
d="M530 660q0 -17 -11.5 -28.5t-28.5 -11.5h-360v-230h257q59 0 101 -42.5t42 -102.5v-102q0 -59 -42 -101t-101 -42h-195q-59 0 -100.5 42t-41.5 101q0 17 11.5 28.5t28.5 11.5t28.5 -11.5t11.5 -28.5q0 -24 19 -43.5t43 -19.5h195q25 0 44 19t19 44v102q0 25 -19 45
t-44 20h-297q-17 0 -28.5 11.5t-11.5 28.5v310q0 16 12 28t28 12h400q17 0 28.5 -11.5t11.5 -28.5z" />
    <glyph glyph-name="six" unicode="6" 
d="M50 143v102q0 41 37 111l169 323q11 21 34 21q20 0 33.5 -18.5t3.5 -38.5l-132 -253h192q59 0 101 -42.5t42 -102.5v-102q0 -59 -42 -101t-101 -42h-193q-60 0 -102 42t-42 101zM130 245v-102q0 -26 19 -44.5t45 -18.5h193q25 0 44 19t19 44v102q0 27 -18.5 46t-44.5 19
h-193q-26 0 -45 -19t-19 -46z" />
    <glyph glyph-name="seven" unicode="7" 
d="M530 660v-110q0 -49 -12 -66l-252 -362q-16 -25 -16 -52v-30q0 -17 -11.5 -28.5t-28.5 -11.5t-28.5 11.5t-11.5 28.5v33q0 46 13 66l258 373q9 13 9 59v49h-360q-17 0 -28.5 11.5t-11.5 28.5q0 16 12 28t28 12h400q17 0 28.5 -11.5t11.5 -28.5z" />
    <glyph glyph-name="eight" unicode="8" 
d="M450 143v102q0 27 -18.5 46t-44.5 19h-193q-26 0 -45 -19t-19 -46v-102q0 -26 19 -44.5t45 -18.5h193q25 0 44 19t19 44zM450 453v104q0 27 -18.5 45t-44.5 18h-193q-27 0 -45.5 -18t-18.5 -45v-104q0 -26 19 -44.5t45 -18.5h193q26 0 44.5 18.5t18.5 44.5zM530 245v-102
q0 -59 -42 -101t-101 -42h-193q-60 0 -102 42t-42 101v102q0 54 43 105q-43 48 -43 103v104q0 60 42 101.5t102 41.5h193q59 0 101 -41.5t42 -101.5v-104q0 -55 -43 -103q43 -51 43 -105z" />
    <glyph glyph-name="nine" unicode="9" 
d="M530 557v-102q0 -41 -37 -111l-169 -323q-11 -21 -34 -21q-20 0 -33.5 18.5t-3.5 38.5l132 253h-192q-59 0 -101 42.5t-42 102.5v102q0 59 42 101t101 42h193q60 0 102 -42t42 -101zM450 455v102q0 26 -19 44.5t-45 18.5h-193q-25 0 -44 -19t-19 -44v-102q0 -27 18.5 -46
t44.5 -19h193q26 0 45 19t19 46z" />
    <glyph glyph-name="colon" unicode=":" 
d="M250 120v80q0 17 11.5 28.5t28.5 11.5q16 0 28 -12t12 -28v-80q0 -17 -11.5 -28.5t-28.5 -11.5t-28.5 11.5t-11.5 28.5zM250 501v79q0 17 11.5 28.5t28.5 11.5q16 0 28 -12t12 -28v-79q0 -17 -11.5 -28.5t-28.5 -11.5t-28.5 11.5t-11.5 28.5z" />
    <glyph glyph-name="semicolon" unicode=";" 
d="M250 390v80q0 17 11.5 28.5t28.5 11.5q16 0 28 -12t12 -28v-80q0 -17 -11.5 -28.5t-28.5 -11.5t-28.5 11.5t-11.5 28.5zM250 40v72q0 48 40 48q20 0 30 -14t10 -35v-78q0 -33 -9 -54l-37 -88q-4 -9 -13.5 -10t-16 6.5t-2.5 17.5l38 95q-17 0 -28.5 11.5t-11.5 28.5z" />
    <glyph glyph-name="less" unicode="&#x3c;" 
d="M130 364v-28l334 -146h26q17 0 28.5 -11.5t11.5 -28.5q0 -19 -14 -29.5t-33 -10.5h-22q-20 0 -59 18l-337 158q-15 7 -15 29v70q0 22 15 29l337 158q39 18 59 18h22q19 0 33 -10.5t14 -29.5q0 -17 -11.5 -28.5t-28.5 -11.5h-26z" />
    <glyph glyph-name="equal" unicode="=" 
d="M50 430q0 17 11.5 28.5t28.5 11.5h400q17 0 28.5 -11.5t11.5 -28.5t-11.5 -28.5t-28.5 -11.5h-400q-16 0 -28 12t-12 28zM50 270q0 17 11.5 28.5t28.5 11.5h400q17 0 28.5 -11.5t11.5 -28.5t-11.5 -28.5t-28.5 -11.5h-400q-16 0 -28 12t-12 28z" />
    <glyph glyph-name="greater" unicode="&#x3e;" 
d="M450 336v28l-334 146h-26q-17 0 -28.5 11.5t-11.5 28.5q0 19 14 29.5t33 10.5h22q20 0 59 -18l337 -158q15 -7 15 -29v-70q0 -22 -15 -29l-337 -158q-39 -18 -59 -18h-22q-19 0 -33 10.5t-14 29.5q0 17 11.5 28.5t28.5 11.5h26z" />
    <glyph glyph-name="question" unicode="?" 
d="M290 190q-17 0 -28.5 11.5t-11.5 28.5v47q0 50 20.5 83.5t50 50t59 30t50 35.5t20.5 55q0 36 -27.5 62.5t-63.5 26.5h-138q-37 0 -64 -26t-27 -62q0 -17 -11.5 -28.5t-28.5 -11.5t-28.5 11.5t-11.5 28.5q0 70 50 119t121 49h138q71 0 121 -49.5t50 -119.5
q0 -50 -20.5 -83t-50 -49.5t-59 -30t-50 -35.5t-20.5 -56v-47q0 -17 -11.5 -28.5t-28.5 -11.5zM250 40v80q0 17 11.5 28.5t28.5 11.5q16 0 28 -12t12 -28v-80q0 -17 -11.5 -28.5t-28.5 -11.5t-28.5 11.5t-11.5 28.5z" />
    <glyph glyph-name="at" unicode="@" 
d="M330 350v-270h43q31 0 54 23t23 54v387q0 37 -28.5 56.5t-70.5 19.5h-144q-29 0 -53 -23t-24 -53q0 -17 -11.5 -28.5t-28.5 -11.5t-28.5 11.5t-11.5 28.5q0 65 46 110.5t111 45.5h166q65 0 111 -45.5t46 -110.5v-387q0 -65 -46 -111t-111 -46h-179q-60 0 -102 42.5
t-42 101.5v102q0 60 42 102t102 42h96q16 0 28 -12t12 -28zM194 80h56v230h-56q-26 0 -45 -18.5t-19 -45.5v-102q0 -26 19 -45t45 -19z" />
    <glyph glyph-name="A" unicode="A" 
d="M50 40v281q0 49 5 59l137 289q8 18 16 24.5t26 6.5h112q18 0 26 -7t16 -24l137 -289q5 -10 5 -59v-281q0 -17 -11.5 -28.5t-28.5 -11.5t-28.5 11.5t-11.5 28.5v120h-320v-120q0 -17 -11.5 -28.5t-28.5 -11.5t-28.5 11.5t-11.5 28.5zM130 350v-110h320v110l-123 270h-71z
" />
    <glyph glyph-name="B" unicode="B" 
d="M90 700h297q59 0 101 -41t42 -100v-106q0 -55 -44 -102q44 -47 44 -105v-103q0 -59 -42 -101t-101 -42h-297q-17 0 -28.5 11.5t-11.5 28.5v620q0 16 12 28t28 12zM450 452v105q0 26 -18.5 44.5t-44.5 18.5h-257v-230h257q26 0 44.5 17.5t18.5 44.5zM450 143v103
q0 27 -18.5 45.5t-44.5 18.5h-257v-230h257q25 0 44 19t19 44z" />
    <glyph glyph-name="C" unicode="C" 
d="M450 556q0 26 -18.5 45t-44.5 19h-194q-26 0 -44.5 -19t-18.5 -45v-413q0 -25 19 -44t44 -19h194q25 0 44 19t19 44q0 17 11.5 28.5t28.5 11.5t28.5 -11.5t11.5 -28.5q0 -59 -42 -101t-101 -42h-194q-59 0 -101 42t-42 101v413q0 59 42 101.5t101 42.5h194
q59 0 101 -42.5t42 -101.5q0 -17 -11.5 -28.5t-28.5 -11.5t-28.5 11.5t-11.5 28.5z" />
    <glyph glyph-name="D" unicode="D" 
d="M90 700h297q59 0 101 -41.5t42 -101.5v-414q0 -59 -42 -101t-101 -42h-297q-17 0 -28.5 11.5t-11.5 28.5v620q0 16 12 28t28 12zM450 143v413q0 26 -18.5 45t-44.5 19h-257v-540h257q25 0 44 19t19 44z" />
    <glyph glyph-name="E" unicode="E" 
d="M530 660q0 -17 -11.5 -28.5t-28.5 -11.5h-360v-230h360q17 0 28.5 -11.5t11.5 -28.5t-11.5 -28.5t-28.5 -11.5h-360v-230h360q17 0 28.5 -11.5t11.5 -28.5t-11.5 -28.5t-28.5 -11.5h-400q-17 0 -28.5 11.5t-11.5 28.5v620q0 16 12 28t28 12h400q17 0 28.5 -11.5
t11.5 -28.5z" />
    <glyph glyph-name="F" unicode="F" 
d="M90 0q-17 0 -28.5 11.5t-11.5 28.5v620q0 16 12 28t28 12h400q17 0 28.5 -11.5t11.5 -28.5t-11.5 -28.5t-28.5 -11.5h-360v-230h360q17 0 28.5 -11.5t11.5 -28.5t-11.5 -28.5t-28.5 -11.5h-360v-270q0 -17 -11.5 -28.5t-28.5 -11.5z" />
    <glyph glyph-name="G" unicode="G" 
d="M450 556q0 26 -18.5 45t-44.5 19h-194q-26 0 -44.5 -19t-18.5 -45v-413q0 -25 19 -44t44 -19h194q26 0 44.5 18.5t18.5 44.5v167h-120q-17 0 -28.5 11.5t-11.5 28.5t11.5 28.5t28.5 11.5h160q17 0 28.5 -11.5t11.5 -28.5v-207q0 -59 -42 -101t-101 -42h-194
q-60 0 -101.5 42t-41.5 101v413q0 60 41.5 102t101.5 42h194q59 0 101 -42.5t42 -101.5q0 -17 -11.5 -28.5t-28.5 -11.5t-28.5 11.5t-11.5 28.5z" />
    <glyph glyph-name="H" unicode="H" 
d="M90 700q17 0 28.5 -11.5t11.5 -28.5v-270h320v270q0 16 12 28t28 12q17 0 28.5 -11.5t11.5 -28.5v-620q0 -17 -11.5 -28.5t-28.5 -11.5t-28.5 11.5t-11.5 28.5v270h-320v-270q0 -17 -11.5 -28.5t-28.5 -11.5t-28.5 11.5t-11.5 28.5v620q0 16 12 28t28 12z" />
    <glyph glyph-name="I" unicode="I" 
d="M530 660q0 -17 -11.5 -28.5t-28.5 -11.5h-160v-540h160q17 0 28.5 -11.5t11.5 -28.5t-11.5 -28.5t-28.5 -11.5h-400q-17 0 -28.5 11.5t-11.5 28.5q0 16 12 28t28 12h160v540h-160q-17 0 -28.5 11.5t-11.5 28.5q0 16 12 28t28 12h400q17 0 28.5 -11.5t11.5 -28.5z" />
    <glyph glyph-name="J" unicode="J" 
d="M50 660q0 16 12 28t28 12h400q17 0 28.5 -11.5t11.5 -28.5v-517q0 -59 -42 -101t-101 -42h-192q-59 0 -102 38t-43 93q0 17 11.5 28.5t28.5 11.5t28.5 -11.5t11.5 -28.5q0 -21 20.5 -36t44.5 -15h192q26 0 44.5 18.5t18.5 44.5v477h-360q-17 0 -28.5 11.5t-11.5 28.5z
" />
    <glyph glyph-name="K" unicode="K" 
d="M490 700q17 0 28.5 -11.5t11.5 -28.5v-51q0 -34 -33 -73l-159 -186l159 -191q32 -39 33 -74v-45q0 -17 -11.5 -28.5t-28.5 -11.5t-28.5 11.5t-11.5 28.5v50l-183 220h-137v-270q0 -17 -11.5 -28.5t-28.5 -11.5t-28.5 11.5t-11.5 28.5v620q0 16 12 28t28 12
q17 0 28.5 -11.5t11.5 -28.5v-270h137l183 215v55q0 16 12 28t28 12z" />
    <glyph glyph-name="L" unicode="L" 
d="M90 700q17 0 28.5 -11.5t11.5 -28.5v-580h360q17 0 28.5 -11.5t11.5 -28.5t-11.5 -28.5t-28.5 -11.5h-400q-17 0 -28.5 11.5t-11.5 28.5v620q0 16 12 28t28 12z" />
    <glyph glyph-name="M" unicode="M" 
d="M250 350q0 22 -8 34l-112 153v-497q0 -17 -11.5 -28.5t-28.5 -11.5t-28.5 11.5t-11.5 28.5v620q0 16 12 28t28 12q24 0 40 -25l159 -222l161 222q18 25 40 25q17 0 28.5 -11.5t11.5 -28.5v-620q0 -17 -11.5 -28.5t-28.5 -11.5t-28.5 11.5t-11.5 28.5v498l-114 -154
q-6 -8 -6 -34q0 -17 -11.5 -28.5t-28.5 -11.5t-28.5 11.5t-11.5 28.5z" />
    <glyph glyph-name="N" unicode="N" 
d="M490 700q17 0 28.5 -11.5t11.5 -28.5v-620q0 -17 -11.5 -28.5t-28.5 -11.5q-24 0 -40 25l-320 490v-475q0 -17 -11.5 -28.5t-28.5 -11.5t-28.5 11.5t-11.5 28.5v620q0 16 12 28t28 12q24 0 40 -25l320 -490v475q0 16 12 28t28 12z" />
    <glyph glyph-name="O" unicode="O" 
d="M530 556v-413q0 -59 -42 -101t-101 -42h-193q-60 0 -102 42t-42 101v413q0 59 42 101.5t102 42.5h193q59 0 101 -42.5t42 -101.5zM450 143v413q0 26 -18.5 45t-44.5 19h-193q-26 0 -45 -19t-19 -45v-413q0 -26 19 -44.5t45 -18.5h193q25 0 44 19t19 44z" />
    <glyph glyph-name="P" unicode="P" 
d="M90 700h271q70 0 119.5 -49.5t49.5 -120.5v-51q0 -71 -49 -120t-120 -49h-231v-270q0 -17 -11.5 -28.5t-28.5 -11.5t-28.5 11.5t-11.5 28.5v620q0 16 12 28t28 12zM450 479v51q0 37 -26 63.5t-63 26.5h-231v-230h231q37 0 63 26t26 63z" />
    <glyph glyph-name="Q" unicode="Q" 
d="M530 556v-413q0 -59 -42 -101t-101 -42h-193q-60 0 -102 42t-42 101v413q0 60 42 102t102 42h193q59 0 101 -42t42 -102zM290 215q16 0 28 -11.5t12 -28.5v-95h57q24 0 43.5 19t19.5 44v413q0 24 -19 44t-44 20h-193q-26 0 -45 -19t-19 -45v-413q0 -26 19 -44.5t45 -18.5
h56v95q0 17 11.5 28.5t28.5 11.5z" />
    <glyph glyph-name="R" unicode="R" 
d="M90 700h271q70 0 119.5 -49.5t49.5 -120.5v-51q0 -69 -47 -118t-113 -49l124 -145q20 -25 28 -40t8 -37v-50q0 -17 -11.5 -28.5t-28.5 -11.5t-28.5 11.5t-11.5 28.5v55l-183 215h-137v-270q0 -17 -11.5 -28.5t-28.5 -11.5t-28.5 11.5t-11.5 28.5v620q0 16 12 28t28 12z
M450 479v51q0 37 -26 63.5t-63 26.5h-231v-230h231q37 0 63 26t26 63z" />
    <glyph glyph-name="S" unicode="S" 
d="M491 492q-17 0 -28.5 11.5t-11.5 28.5q0 36 -26.5 62t-63.5 26h-142q-36 0 -62.5 -26t-26.5 -63q0 -36 29.5 -65.5t74 -48t96.5 -42t96.5 -47.5t74 -65t29.5 -93q0 -71 -49.5 -120.5t-119.5 -49.5h-141q-70 0 -120 49.5t-50 119.5q0 17 11.5 28.5t28.5 11.5t28.5 -11.5
t11.5 -28.5q0 -37 26.5 -63t63.5 -26h142q37 0 63 26t26 64q0 43 -41.5 75.5t-100 56t-117.5 50t-100.5 72t-41.5 107.5q0 70 49.5 119.5t119.5 49.5h142q70 0 119.5 -49t49.5 -119q0 -17 -11 -28.5t-28 -11.5z" />
    <glyph glyph-name="T" unicode="T" 
d="M50 660q0 16 12 28t28 12h400q17 0 28.5 -11.5t11.5 -28.5t-11.5 -28.5t-28.5 -11.5h-160v-580q0 -17 -11.5 -28.5t-28.5 -11.5t-28.5 11.5t-11.5 28.5v580h-160q-17 0 -28.5 11.5t-11.5 28.5z" />
    <glyph glyph-name="U" unicode="U" 
d="M90 700q17 0 28.5 -11.5t11.5 -28.5v-517q0 -26 19 -44.5t45 -18.5h193q25 0 44 19t19 44v517q0 16 12 28t28 12q17 0 28.5 -11.5t11.5 -28.5v-517q0 -59 -42 -101t-101 -42h-193q-60 0 -102 42t-42 101v517q0 16 12 28t28 12z" />
    <glyph glyph-name="V" unicode="V" 
d="M490 700q17 0 28.5 -11.5t11.5 -28.5v-281q0 -49 -5 -59l-137 -289q-8 -17 -16 -24t-26 -7h-112q-18 0 -26 6.5t-16 24.5l-137 289q-5 10 -5 59v281q0 16 12 28t28 12q17 0 28.5 -11.5t11.5 -28.5v-310l126 -270h71l123 270v310q0 16 12 28t28 12z" />
    <glyph glyph-name="W" unicode="W" 
d="M250 350q0 17 11.5 28.5t28.5 11.5t28.5 -11.5t11.5 -28.5q0 -26 6 -34l114 -154v498q0 17 11.5 28.5t28.5 11.5t28.5 -11.5t11.5 -28.5v-620q0 -17 -11.5 -28.5t-28.5 -11.5q-22 0 -40 25l-161 222l-159 -222q-16 -25 -40 -25q-16 0 -28 12t-12 28v620q0 17 11.5 28.5
t28.5 11.5t28.5 -11.5t11.5 -28.5v-497l112 153q8 12 8 34z" />
    <glyph glyph-name="X" unicode="X" 
d="M90 700q17 0 28.5 -11.5t11.5 -28.5v-59l160 -187l160 187v59q0 15 12 27.5t28 12.5q20 0 30 -15t10 -37v-30q0 -21 -0.5 -30t-7 -23.5t-19.5 -30.5l-155 -185l155 -186q13 -16 19 -30.5t7 -23t1 -29.5v-30q0 -22 -10.5 -36t-29.5 -14q-17 0 -28.5 11.5t-11.5 28.5v57
l-160 186l-160 -186v-57q0 -16 -12 -28t-28 -12q-20 0 -30 14.5t-10 35.5v30q0 20 1 29.5t7 23.5t20 30l158 186l-159 185q-19 22 -23 38t-4 46v30q0 21 10 36.5t30 15.5z" />
    <glyph glyph-name="Y" unicode="Y" 
d="M290 415l160 186v59q0 16 12 28t28 12q17 0 28.5 -11.5t11.5 -28.5v-64q0 -34 -27 -67l-173 -200v-289q0 -17 -11.5 -28.5t-28.5 -11.5t-28.5 11.5t-11.5 28.5v289l-173 200q-27 33 -27 67v64q0 17 12 28.5t29 11.5q16 0 27.5 -11.5t11.5 -28.5v-59z" />
    <glyph glyph-name="Z" unicode="Z" 
d="M50 660q0 16 12 28t28 12h396q17 0 30.5 -13t13.5 -29q0 -17 -14 -38l-358 -540h332q17 0 28.5 -11.5t11.5 -28.5t-11.5 -28.5t-28.5 -11.5h-400q-18 0 -29 12.5t-11 29.5q0 24 10 38l363 540h-333q-17 0 -28.5 11.5t-11.5 28.5z" />
    <glyph glyph-name="bracketleft" unicode="[" 
d="M373 660q0 -17 -11.5 -28.5t-28.5 -11.5h-43v-540h43q17 0 28.5 -11.5t11.5 -28.5t-11.5 -28.5t-28.5 -11.5h-83q-16 0 -28 12t-12 28v620q0 16 12 28t28 12h83q17 0 28.5 -11.5t11.5 -28.5z" />
    <glyph glyph-name="backslash" unicode="\" 
d="M530 75v-35q0 -17 -11.5 -28.5t-28.5 -11.5t-28.5 11.5t-11.5 28.5v40l-381 489q-19 23 -19 56v35q0 16 12 28t28 12q17 0 28.5 -11.5t11.5 -28.5v-40l382 -491q18 -23 18 -54z" />
    <glyph glyph-name="bracketright" unicode="]" 
d="M166 660q0 16 12 28t28 12h84q16 0 28 -12t12 -28v-620q0 -16 -12 -28t-28 -12h-84q-17 0 -28.5 11.5t-11.5 28.5q0 16 12 28t28 12h44v540h-44q-17 0 -28.5 11.5t-11.5 28.5z" />
    <glyph glyph-name="asciicircum" unicode="^" 
d="M74 313q-16 6 -21.5 24.5t2.5 30.5l167 312q11 20 30 20h77q19 0 30 -20l167 -312q8 -12 2.5 -30.5t-21.5 -24.5q-35 -14 -53 20l-152 287h-23l-152 -287q-18 -34 -53 -20z" />
    <glyph glyph-name="underscore" unicode="_" 
d="M530 40q0 -17 -11.5 -28.5t-28.5 -11.5h-400q-17 0 -28.5 11.5t-11.5 28.5q0 16 12 28t28 12h400q17 0 28.5 -11.5t11.5 -28.5z" />
    <glyph glyph-name="grave" unicode="`" 
d="M262 792l-79 79q-11 12 -11.5 28t11.5 29q12 11 28.5 11t28.5 -11l79 -79q12 -12 11.5 -28.5t-11.5 -28.5q-13 -12 -29 -12t-28 12z" />
    <glyph glyph-name="a" unicode="a" 
d="M50 40v281q0 49 5 59l137 289q8 18 16 24.5t26 6.5h112q18 0 26 -7t16 -24l137 -289q5 -10 5 -59v-281q0 -17 -11.5 -28.5t-28.5 -11.5t-28.5 11.5t-11.5 28.5v120h-320v-120q0 -17 -11.5 -28.5t-28.5 -11.5t-28.5 11.5t-11.5 28.5zM130 350v-110h320v110l-123 270h-71z
" />
    <glyph glyph-name="b" unicode="b" 
d="M90 700h297q59 0 101 -41t42 -100v-106q0 -55 -44 -102q44 -47 44 -105v-103q0 -59 -42 -101t-101 -42h-297q-17 0 -28.5 11.5t-11.5 28.5v620q0 16 12 28t28 12zM450 452v105q0 26 -18.5 44.5t-44.5 18.5h-257v-230h257q26 0 44.5 17.5t18.5 44.5zM450 143v103
q0 27 -18.5 45.5t-44.5 18.5h-257v-230h257q25 0 44 19t19 44z" />
    <glyph glyph-name="c" unicode="c" 
d="M450 556q0 26 -18.5 45t-44.5 19h-194q-26 0 -44.5 -19t-18.5 -45v-413q0 -25 19 -44t44 -19h194q25 0 44 19t19 44q0 17 11.5 28.5t28.5 11.5t28.5 -11.5t11.5 -28.5q0 -59 -42 -101t-101 -42h-194q-59 0 -101 42t-42 101v413q0 59 42 101.5t101 42.5h194
q59 0 101 -42.5t42 -101.5q0 -17 -11.5 -28.5t-28.5 -11.5t-28.5 11.5t-11.5 28.5z" />
    <glyph glyph-name="d" unicode="d" 
d="M90 700h297q59 0 101 -41.5t42 -101.5v-414q0 -59 -42 -101t-101 -42h-297q-17 0 -28.5 11.5t-11.5 28.5v620q0 16 12 28t28 12zM450 143v413q0 26 -18.5 45t-44.5 19h-257v-540h257q25 0 44 19t19 44z" />
    <glyph glyph-name="e" unicode="e" 
d="M530 660q0 -17 -11.5 -28.5t-28.5 -11.5h-360v-230h360q17 0 28.5 -11.5t11.5 -28.5t-11.5 -28.5t-28.5 -11.5h-360v-230h360q17 0 28.5 -11.5t11.5 -28.5t-11.5 -28.5t-28.5 -11.5h-400q-17 0 -28.5 11.5t-11.5 28.5v620q0 16 12 28t28 12h400q17 0 28.5 -11.5
t11.5 -28.5z" />
    <glyph glyph-name="f" unicode="f" 
d="M90 0q-17 0 -28.5 11.5t-11.5 28.5v620q0 16 12 28t28 12h400q17 0 28.5 -11.5t11.5 -28.5t-11.5 -28.5t-28.5 -11.5h-360v-230h360q17 0 28.5 -11.5t11.5 -28.5t-11.5 -28.5t-28.5 -11.5h-360v-270q0 -17 -11.5 -28.5t-28.5 -11.5z" />
    <glyph glyph-name="g" unicode="g" 
d="M450 556q0 26 -18.5 45t-44.5 19h-194q-26 0 -44.5 -19t-18.5 -45v-413q0 -25 19 -44t44 -19h194q26 0 44.5 18.5t18.5 44.5v167h-120q-17 0 -28.5 11.5t-11.5 28.5t11.5 28.5t28.5 11.5h160q17 0 28.5 -11.5t11.5 -28.5v-207q0 -59 -42 -101t-101 -42h-194
q-60 0 -101.5 42t-41.5 101v413q0 60 41.5 102t101.5 42h194q59 0 101 -42.5t42 -101.5q0 -17 -11.5 -28.5t-28.5 -11.5t-28.5 11.5t-11.5 28.5z" />
    <glyph glyph-name="h" unicode="h" 
d="M90 700q17 0 28.5 -11.5t11.5 -28.5v-270h320v270q0 16 12 28t28 12q17 0 28.5 -11.5t11.5 -28.5v-620q0 -17 -11.5 -28.5t-28.5 -11.5t-28.5 11.5t-11.5 28.5v270h-320v-270q0 -17 -11.5 -28.5t-28.5 -11.5t-28.5 11.5t-11.5 28.5v620q0 16 12 28t28 12z" />
    <glyph glyph-name="i" unicode="i" 
d="M530 660q0 -17 -11.5 -28.5t-28.5 -11.5h-160v-540h160q17 0 28.5 -11.5t11.5 -28.5t-11.5 -28.5t-28.5 -11.5h-400q-17 0 -28.5 11.5t-11.5 28.5q0 16 12 28t28 12h160v540h-160q-17 0 -28.5 11.5t-11.5 28.5q0 16 12 28t28 12h400q17 0 28.5 -11.5t11.5 -28.5z" />
    <glyph glyph-name="j" unicode="j" 
d="M50 660q0 16 12 28t28 12h400q17 0 28.5 -11.5t11.5 -28.5v-517q0 -59 -42 -101t-101 -42h-192q-59 0 -102 38t-43 93q0 17 11.5 28.5t28.5 11.5t28.5 -11.5t11.5 -28.5q0 -21 20.5 -36t44.5 -15h192q26 0 44.5 18.5t18.5 44.5v477h-360q-17 0 -28.5 11.5t-11.5 28.5z
" />
    <glyph glyph-name="k" unicode="k" 
d="M490 700q17 0 28.5 -11.5t11.5 -28.5v-51q0 -34 -33 -73l-159 -186l159 -191q32 -39 33 -74v-45q0 -17 -11.5 -28.5t-28.5 -11.5t-28.5 11.5t-11.5 28.5v50l-183 220h-137v-270q0 -17 -11.5 -28.5t-28.5 -11.5t-28.5 11.5t-11.5 28.5v620q0 16 12 28t28 12
q17 0 28.5 -11.5t11.5 -28.5v-270h137l183 215v55q0 16 12 28t28 12z" />
    <glyph glyph-name="l" unicode="l" 
d="M90 700q17 0 28.5 -11.5t11.5 -28.5v-580h360q17 0 28.5 -11.5t11.5 -28.5t-11.5 -28.5t-28.5 -11.5h-400q-17 0 -28.5 11.5t-11.5 28.5v620q0 16 12 28t28 12z" />
    <glyph glyph-name="m" unicode="m" 
d="M250 350q0 22 -8 34l-112 153v-497q0 -17 -11.5 -28.5t-28.5 -11.5t-28.5 11.5t-11.5 28.5v620q0 16 12 28t28 12q24 0 40 -25l159 -222l161 222q18 25 40 25q17 0 28.5 -11.5t11.5 -28.5v-620q0 -17 -11.5 -28.5t-28.5 -11.5t-28.5 11.5t-11.5 28.5v498l-114 -154
q-6 -8 -6 -34q0 -17 -11.5 -28.5t-28.5 -11.5t-28.5 11.5t-11.5 28.5z" />
    <glyph glyph-name="n" unicode="n" 
d="M490 700q17 0 28.5 -11.5t11.5 -28.5v-620q0 -17 -11.5 -28.5t-28.5 -11.5q-24 0 -40 25l-320 490v-475q0 -17 -11.5 -28.5t-28.5 -11.5t-28.5 11.5t-11.5 28.5v620q0 16 12 28t28 12q24 0 40 -25l320 -490v475q0 16 12 28t28 12z" />
    <glyph glyph-name="o" unicode="o" 
d="M530 556v-413q0 -59 -42 -101t-101 -42h-193q-60 0 -102 42t-42 101v413q0 59 42 101.5t102 42.5h193q59 0 101 -42.5t42 -101.5zM450 143v413q0 26 -18.5 45t-44.5 19h-193q-26 0 -45 -19t-19 -45v-413q0 -26 19 -44.5t45 -18.5h193q25 0 44 19t19 44z" />
    <glyph glyph-name="p" unicode="p" 
d="M90 700h271q70 0 119.5 -49.5t49.5 -120.5v-51q0 -71 -49 -120t-120 -49h-231v-270q0 -17 -11.5 -28.5t-28.5 -11.5t-28.5 11.5t-11.5 28.5v620q0 16 12 28t28 12zM450 479v51q0 37 -26 63.5t-63 26.5h-231v-230h231q37 0 63 26t26 63z" />
    <glyph glyph-name="q" unicode="q" 
d="M530 556v-413q0 -59 -42 -101t-101 -42h-193q-60 0 -102 42t-42 101v413q0 60 42 102t102 42h193q59 0 101 -42t42 -102zM290 215q16 0 28 -11.5t12 -28.5v-95h57q24 0 43.5 19t19.5 44v413q0 24 -19 44t-44 20h-193q-26 0 -45 -19t-19 -45v-413q0 -26 19 -44.5t45 -18.5
h56v95q0 17 11.5 28.5t28.5 11.5z" />
    <glyph glyph-name="r" unicode="r" 
d="M90 700h271q70 0 119.5 -49.5t49.5 -120.5v-51q0 -69 -47 -118t-113 -49l124 -145q20 -25 28 -40t8 -37v-50q0 -17 -11.5 -28.5t-28.5 -11.5t-28.5 11.5t-11.5 28.5v55l-183 215h-137v-270q0 -17 -11.5 -28.5t-28.5 -11.5t-28.5 11.5t-11.5 28.5v620q0 16 12 28t28 12z
M450 479v51q0 37 -26 63.5t-63 26.5h-231v-230h231q37 0 63 26t26 63z" />
    <glyph glyph-name="s" unicode="s" 
d="M491 492q-17 0 -28.5 11.5t-11.5 28.5q0 36 -26.5 62t-63.5 26h-142q-36 0 -62.5 -26t-26.5 -63q0 -36 29.5 -65.5t74 -48t96.5 -42t96.5 -47.5t74 -65t29.5 -93q0 -71 -49.5 -120.5t-119.5 -49.5h-141q-70 0 -120 49.5t-50 119.5q0 17 11.5 28.5t28.5 11.5t28.5 -11.5
t11.5 -28.5q0 -37 26.5 -63t63.5 -26h142q37 0 63 26t26 64q0 43 -41.5 75.5t-100 56t-117.5 50t-100.5 72t-41.5 107.5q0 70 49.5 119.5t119.5 49.5h142q70 0 119.5 -49t49.5 -119q0 -17 -11 -28.5t-28 -11.5z" />
    <glyph glyph-name="t" unicode="t" 
d="M50 660q0 16 12 28t28 12h400q17 0 28.5 -11.5t11.5 -28.5t-11.5 -28.5t-28.5 -11.5h-160v-580q0 -17 -11.5 -28.5t-28.5 -11.5t-28.5 11.5t-11.5 28.5v580h-160q-17 0 -28.5 11.5t-11.5 28.5z" />
    <glyph glyph-name="u" unicode="u" 
d="M90 700q17 0 28.5 -11.5t11.5 -28.5v-517q0 -26 19 -44.5t45 -18.5h193q25 0 44 19t19 44v517q0 16 12 28t28 12q17 0 28.5 -11.5t11.5 -28.5v-517q0 -59 -42 -101t-101 -42h-193q-60 0 -102 42t-42 101v517q0 16 12 28t28 12z" />
    <glyph glyph-name="v" unicode="v" 
d="M490 700q17 0 28.5 -11.5t11.5 -28.5v-281q0 -49 -5 -59l-137 -289q-8 -17 -16 -24t-26 -7h-112q-18 0 -26 6.5t-16 24.5l-137 289q-5 10 -5 59v281q0 16 12 28t28 12q17 0 28.5 -11.5t11.5 -28.5v-310l126 -270h71l123 270v310q0 16 12 28t28 12z" />
    <glyph glyph-name="w" unicode="w" 
d="M250 350q0 17 11.5 28.5t28.5 11.5t28.5 -11.5t11.5 -28.5q0 -26 6 -34l114 -154v498q0 17 11.5 28.5t28.5 11.5t28.5 -11.5t11.5 -28.5v-620q0 -17 -11.5 -28.5t-28.5 -11.5q-22 0 -40 25l-161 222l-159 -222q-16 -25 -40 -25q-16 0 -28 12t-12 28v620q0 17 11.5 28.5
t28.5 11.5t28.5 -11.5t11.5 -28.5v-497l112 153q8 12 8 34z" />
    <glyph glyph-name="x" unicode="x" 
d="M90 700q17 0 28.5 -11.5t11.5 -28.5v-59l160 -187l160 187v59q0 15 12 27.5t28 12.5q20 0 30 -15t10 -37v-30q0 -21 -0.5 -30t-7 -23.5t-19.5 -30.5l-155 -185l155 -186q13 -16 19 -30.5t7 -23t1 -29.5v-30q0 -22 -10.5 -36t-29.5 -14q-17 0 -28.5 11.5t-11.5 28.5v57
l-160 186l-160 -186v-57q0 -16 -12 -28t-28 -12q-20 0 -30 14.5t-10 35.5v30q0 20 1 29.5t7 23.5t20 30l158 186l-159 185q-19 22 -23 38t-4 46v30q0 21 10 36.5t30 15.5z" />
    <glyph glyph-name="y" unicode="y" 
d="M290 415l160 186v59q0 16 12 28t28 12q17 0 28.5 -11.5t11.5 -28.5v-64q0 -34 -27 -67l-173 -200v-289q0 -17 -11.5 -28.5t-28.5 -11.5t-28.5 11.5t-11.5 28.5v289l-173 200q-27 33 -27 67v64q0 17 12 28.5t29 11.5q16 0 27.5 -11.5t11.5 -28.5v-59z" />
    <glyph glyph-name="z" unicode="z" 
d="M50 660q0 16 12 28t28 12h396q17 0 30.5 -13t13.5 -29q0 -17 -14 -38l-358 -540h332q17 0 28.5 -11.5t11.5 -28.5t-11.5 -28.5t-28.5 -11.5h-400q-18 0 -29 12.5t-11 29.5q0 24 10 38l363 540h-333q-17 0 -28.5 11.5t-11.5 28.5z" />
    <glyph glyph-name="braceleft" unicode="{" 
d="M183 350q0 17 11.5 28.5t28.5 11.5q11 0 19 8t8 20v139q0 59 42 101t102 42q17 0 28.5 -11.5t11.5 -28.5t-11.5 -28.5t-28.5 -11.5q-26 0 -45 -18.5t-19 -44.5v-139q0 -34 -23 -68q23 -35 23 -70v-137q0 -25 19 -44t45 -19q17 0 28.5 -11.5t11.5 -28.5t-11.5 -28.5
t-28.5 -11.5q-60 0 -102 42t-42 101v137q0 11 -8 20.5t-19 9.5q-17 0 -28.5 11.5t-11.5 28.5z" />
    <glyph glyph-name="bar" unicode="|" 
d="M290 820q16 0 28 -12t12 -28v-860q0 -16 -12 -28t-28 -12q-17 0 -28.5 11.5t-11.5 28.5v860q0 17 11.5 28.5t28.5 11.5z" />
    <glyph glyph-name="braceright" unicode="}" 
d="M397 350q0 -17 -11.5 -28.5t-28.5 -11.5q-11 0 -19 -9.5t-8 -20.5v-137q0 -59 -42 -101t-102 -42q-17 0 -28.5 11.5t-11.5 28.5t11.5 28.5t28.5 11.5q26 0 45 19t19 44v137q0 35 23 70q-23 34 -23 68v139q0 26 -19 44.5t-45 18.5q-17 0 -28.5 11.5t-11.5 28.5t11.5 28.5
t28.5 11.5q60 0 102 -42t42 -101v-139q0 -12 8 -20t19 -8q17 0 28.5 -11.5t11.5 -28.5z" />
    <glyph glyph-name="asciitilde" unicode="~" 
d="M518 407q12 -15 12 -30q0 -17 -12 -27l-41 -41q-27 -27 -46 -27h-113q-17 0 -46 27l-29 28h-88l-38 -39q-11 -11 -29 -11q-16 0 -27.5 12t-11.5 29q0 16 11 27l36 35q29 27 46 27h115q19 0 46 -27l29 -28h85l44 45q13 11 28 11q16 0 29 -11z" />
    <glyph glyph-name="uni007F" 
 />
    <glyph glyph-name="uni00A0" unicode="&#xa0;" horiz-adv-x="0" 
 />
    <glyph glyph-name="exclamdown" unicode="&#xa1;" 
d="M250 40v430q0 17 11.5 28.5t28.5 11.5t28.5 -11.5t11.5 -28.5v-430q0 -16 -12 -28t-28 -12q-17 0 -28.5 11.5t-11.5 28.5zM250 580v80q0 17 11.5 28.5t28.5 11.5t28.5 -11.5t11.5 -28.5v-80q0 -16 -12 -28t-28 -12q-17 0 -28.5 11.5t-11.5 28.5z" />
    <glyph glyph-name="cent" unicode="&#xa2;" 
d="M450 556q0 26 -18.5 45t-44.5 19h-194q-26 0 -44.5 -19t-18.5 -45v-413q0 -25 19 -44t44 -19h194q25 0 44 19t19 44q0 17 11.5 28.5t28.5 11.5t28.5 -11.5t11.5 -28.5q0 -59 -42 -101t-101 -42h-57v-80q0 -16 -12 -28t-28 -12q-17 0 -28.5 11.5t-11.5 28.5v80h-57
q-59 0 -101 42t-42 101v413q0 59 42 101.5t101 42.5h57v80q0 17 11.5 28.5t28.5 11.5q16 0 28 -12t12 -28v-80h57q59 0 101 -42.5t42 -101.5q0 -17 -11.5 -28.5t-28.5 -11.5t-28.5 11.5t-11.5 28.5z" />
    <glyph glyph-name="sterling" unicode="&#xa3;" 
d="M530 41q0 -18 -11.5 -29.5t-28.5 -11.5h-400q-17 0 -28.5 11.5t-11.5 28.5q0 16 12 28t28 12h80v150h-80q-16 0 -28 12t-12 28q0 17 11.5 28.5t28.5 11.5h80v80h-80q-16 0 -28 12t-12 28q0 17 11.5 28.5t28.5 11.5h80v74q0 71 48 113.5t109 42.5h46q65 0 111 -45.5
t46 -110.5q0 -17 -11.5 -28.5t-28.5 -11.5t-28.5 11.5t-11.5 28.5q0 31 -22.5 53.5t-54.5 22.5h-46q-31 0 -54 -22.5t-23 -53.5v-74h79q17 0 28.5 -11.5t11.5 -28.5t-11.5 -28.5t-28.5 -11.5h-79v-80h79q17 0 28.5 -11.5t11.5 -28.5t-11.5 -28.5t-28.5 -11.5h-79v-150h200
v55q0 17 11.5 28.5t28.5 11.5t28.5 -11.5t11.5 -28.5v-94z" />
    <glyph glyph-name="currency" unicode="&#xa4;" 
d="M465 396v-93q0 -31 -14 -61l31 -30q11 -11 11.5 -27.5t-11.5 -28.5t-28.5 -12t-28.5 12l-27 26q-35 -22 -76 -22h-69q-41 0 -77 21l-25 -25q-12 -12 -28.5 -12t-28.5 12t-11.5 28.5t11.5 27.5l29 29q-14 28 -14 62v93q0 33 14 61l-29 30q-12 12 -11.5 28.5t11.5 27.5
q13 12 29 12t28 -12l25 -26q36 23 77 23h69q43 0 77 -23l26 26q12 12 28 12t29 -12q11 -11 11.5 -27.5t-11.5 -28.5l-31 -31q14 -28 14 -60zM385 303v93q0 26 -18.5 45t-44.5 19h-69q-26 0 -45 -19t-19 -45v-93q0 -26 19 -44.5t45 -18.5h69q26 0 44.5 19t18.5 44z" />
    <glyph glyph-name="yen" unicode="&#xa5;" 
d="M50 170q0 17 11.5 28.5t28.5 11.5h160v100h-160q-16 0 -28 12t-12 28q0 17 11.5 28.5t28.5 11.5h105l-118 139q-27 33 -27 67v64q0 17 11.5 28.5t28.5 11.5q16 0 28 -12t12 -28v-59l160 -186l160 186v59q0 16 12 28t28 12q17 0 28.5 -11.5t11.5 -28.5v-64q0 -34 -27 -67
l-122 -139h109q17 0 28.5 -11.5t11.5 -28.5t-11.5 -28.5t-28.5 -11.5h-160v-100h160q17 0 28.5 -11.5t11.5 -28.5t-11.5 -28.5t-28.5 -11.5h-160v-90q0 -17 -11.5 -28.5t-28.5 -11.5t-28.5 11.5t-11.5 28.5v90h-160q-16 0 -28 12t-12 28z" />
    <glyph glyph-name="brokenbar" unicode="&#xa6;" 
d="M290 820q16 0 28 -12t12 -28v-350q0 -17 -11.5 -28.5t-28.5 -11.5t-28.5 11.5t-11.5 28.5v350q0 17 11.5 28.5t28.5 11.5zM290 310q16 0 28 -12t12 -28v-350q0 -16 -12 -28t-28 -12q-17 0 -28.5 11.5t-11.5 28.5v350q0 17 11.5 28.5t28.5 11.5z" />
    <glyph glyph-name="section" unicode="&#xa7;" 
d="M90 87q17 0 28.5 -11.5t11.5 -28.5q0 -36 26.5 -62t63.5 -26h142q36 0 62.5 26t26.5 63q0 43 -41.5 75.5t-100 56t-117.5 50t-100.5 72t-41.5 107.5q0 73 52 123q-52 49 -52 119t49.5 119.5t119.5 49.5h142q71 0 120.5 -49t49.5 -119q0 -17 -11.5 -28.5t-28.5 -11.5
t-28.5 11.5t-11.5 28.5q0 36 -26.5 62t-63.5 26h-142q-36 0 -62.5 -26t-26.5 -63q0 -43 41.5 -75.5t100 -56t117.5 -50t100.5 -72t41.5 -107.5q0 -72 -53 -123q53 -51 53 -119q0 -70 -49.5 -119.5t-119.5 -49.5h-142q-71 0 -120.5 49t-49.5 119q0 17 11.5 28.5t28.5 11.5z
M451 290q0 35 -29.5 64t-65.5 45.5t-95 41.5t-92 43q-39 -26 -39 -75q0 -35 29.5 -64t65.5 -45.5t95 -42t92 -43.5q39 27 39 76z" />
    <glyph glyph-name="dieresis" unicode="&#xa8;" 
d="M50 820v80q0 17 11.5 28.5t28.5 11.5q16 0 28 -12t12 -28v-80q0 -17 -11.5 -28.5t-28.5 -11.5t-28.5 11.5t-11.5 28.5zM450 820v80q0 17 11.5 28.5t28.5 11.5q16 0 28 -12t12 -28v-80q0 -17 -11.5 -28.5t-28.5 -11.5t-28.5 11.5t-11.5 28.5z" />
    <glyph glyph-name="copyright" unicode="&#xa9;" 
d="M530 565v-430q0 -56 -41 -95.5t-99 -39.5h-200q-58 0 -99 39.5t-41 95.5v430q0 56 41 95.5t99 39.5h200q58 0 99 -39.5t41 -95.5zM474 135v430q0 33 -25 57t-59 24h-200q-34 0 -59 -24t-25 -57v-430q0 -34 24.5 -57.5t59.5 -23.5h200q35 0 59.5 23.5t24.5 57.5zM372 453
q0 13 -9.5 22.5t-22.5 9.5h-99q-13 0 -22.5 -9.5t-9.5 -22.5v-207q0 -13 9.5 -22t22.5 -9h99q13 0 22.5 9t9.5 22q0 9 6 14.5t14 5.5t14 -5.5t6 -14.5q0 -29 -21 -50t-51 -21h-99q-30 0 -51 21t-21 50v207q0 29 21 50.5t51 21.5h99q30 0 51 -21.5t21 -50.5q0 -9 -6 -14.5
t-14 -5.5t-14 5.5t-6 14.5z" />
    <glyph glyph-name="ordfeminine" unicode="&#xaa;" 
d="M195 350q-11 0 -18 7t-7 18v136q0 24 3 31l62 140q7 18 26 18h56q17 0 26 -18l63 -140q3 -7 3 -31v-136q0 -11 -7.5 -18t-17.5 -7t-17.5 7t-7.5 18v50h-139v-50q0 -11 -7 -18t-18 -7zM359 475v50l-56 127h-27l-56 -127v-50h139zM407 275q0 -11 -7.5 -18t-17.5 -7h-188
q-10 0 -17.5 7t-7.5 18t7.5 18t17.5 7h188q10 0 17.5 -7t7.5 -18z" />
    <glyph glyph-name="guillemotleft" unicode="&#xab;" 
d="M50 311v78q0 14 10 24l140 140q31 32 68 32h22q17 0 28.5 -11t11.5 -29q0 -17 -12 -28.5t-28 -11.5h-22l-138 -139v-32l138 -139h22q16 0 28 -11.5t12 -28.5q0 -18 -11.5 -29t-28.5 -11h-22q-37 0 -68 32l-140 140q-10 10 -10 24zM250 311v78q0 14 10 24l140 140
q31 32 68 32h22q17 0 28.5 -11t11.5 -29q0 -17 -12 -28.5t-28 -11.5h-22l-138 -139v-32l138 -139h22q16 0 28 -11.5t12 -28.5q0 -18 -11.5 -29t-28.5 -11h-22q-37 0 -68 32l-140 140q-10 10 -10 24z" />
    <glyph glyph-name="logicalnot" unicode="&#xac;" 
d="M490 0q-17 0 -28.5 11.5t-11.5 28.5v270h-360q-17 0 -28.5 11.5t-11.5 28.5q0 16 12 28t28 12h400q17 0 28.5 -11.5t11.5 -28.5v-310q0 -17 -11.5 -28.5t-28.5 -11.5z" />
    <glyph glyph-name="uni00AD" unicode="&#xad;" 
d="M530 350q0 -17 -11.5 -28.5t-28.5 -11.5h-400q-17 0 -28.5 11.5t-11.5 28.5q0 16 12 28t28 12h400q17 0 28.5 -11.5t11.5 -28.5z" />
    <glyph glyph-name="registered" unicode="&#xae;" 
d="M530 565v-430q0 -56 -41 -95.5t-99 -39.5h-200q-58 0 -99 39.5t-41 95.5v430q0 56 41 95.5t99 39.5h200q58 0 99 -39.5t41 -95.5zM474 135v430q0 33 -25 57t-59 24h-200q-34 0 -59 -24t-25 -57v-430q0 -34 24.5 -57.5t59.5 -23.5h200q35 0 59.5 23.5t24.5 57.5zM190 525
h135q35 0 60 -25t25 -60v-26q0 -34 -24 -58.5t-56 -24.5l62 -73q18 -21 18 -38v-25q0 -9 -6 -14.5t-14 -5.5t-14 5.5t-6 14.5v27l-92 108h-68v-135q0 -20 -20 -20q-8 0 -14 5.5t-6 14.5v310q0 8 6 14t14 6zM370 414v26q0 19 -13 32t-32 13h-115v-115h115q19 0 32 13t13 31z
" />
    <glyph glyph-name="macron" unicode="&#xaf;" 
d="M450 820q0 -17 -11.5 -28.5t-28.5 -11.5h-240q-17 0 -28.5 11.5t-11.5 28.5q0 16 12 28t28 12h240q17 0 28.5 -11.5t11.5 -28.5z" />
    <glyph glyph-name="degree" unicode="&#xb0;" 
d="M459 532v-52q0 -70 -49.5 -120t-119.5 -50t-120 50t-50 120v52q0 70 49.5 119t120.5 49q70 0 119.5 -49t49.5 -119zM379 480v52q0 36 -26 62.5t-63 26.5t-63.5 -26.5t-26.5 -62.5v-52q0 -37 26.5 -63.5t63.5 -26.5t63 26.5t26 63.5z" />
    <glyph glyph-name="plusminus" unicode="&#xb1;" 
d="M530 40q0 -17 -11.5 -28.5t-28.5 -11.5h-400q-17 0 -28.5 11.5t-11.5 28.5q0 16 12 28t28 12h400q17 0 28.5 -11.5t11.5 -28.5zM291 700q16 0 27.5 -11.5t11.5 -28.5v-160h160q15 0 27.5 -12.5t12.5 -28.5t-11.5 -27.5t-28.5 -11.5h-160v-160q0 -16 -11.5 -28t-27.5 -12
q-17 0 -29 11.5t-12 28.5v160h-160q-16 0 -28 11.5t-12 27.5q0 17 11.5 29t28.5 12h160v160q0 15 12.5 27.5t28.5 12.5z" />
    <glyph glyph-name="uni00B2" unicode="&#xb2;" 
d="M50 375v50q0 38 23 66.5t51 43t51 34.5t23 43q0 16 -10.5 27t-26.5 11h-24q-16 0 -26.5 -11t-10.5 -27q0 -10 -7 -17.5t-18 -7.5t-18 7.5t-7 17.5q0 36 25.5 62t61.5 26h24q36 0 62 -26t26 -62q0 -33 -23.5 -59t-51 -40.5t-51 -37.5t-23.5 -50v-25h124q10 0 17.5 -7
t7.5 -18t-7.5 -18t-17.5 -7h-149q-11 0 -18 7t-7 18z" />
    <glyph glyph-name="uni00B3" unicode="&#xb3;" 
d="M50 625q0 31 21.5 53t52.5 22h51q31 0 53 -22t22 -53v-50q0 -29 -19 -50q19 -22 19 -51v-49q0 -31 -22 -53t-53 -22h-51q-31 0 -52.5 21.5t-21.5 53.5q0 11 7 18t18 7t18 -7t7 -18t7 -18t17 -7h51q10 0 17.5 7.5t7.5 17.5v49q0 10 -7.5 18t-17.5 8h-27q-10 0 -17.5 7
t-7.5 18t7.5 18t17.5 7h27q10 0 17.5 7.5t7.5 17.5v50q0 10 -7.5 17.5t-17.5 7.5h-52q-10 0 -16.5 -7t-6.5 -18t-7 -18t-18 -7t-18 7t-7 18z" />
    <glyph glyph-name="acute" unicode="&#xb4;" 
d="M397 871l-79 -79q-12 -12 -28 -12t-29 12q-11 12 -11.5 28.5t11.5 28.5l79 79q12 11 28.5 11t28.5 -11q12 -13 11.5 -29t-11.5 -28z" />
    <glyph glyph-name="mu" unicode="&#xb5;" 
d="M0 10h285v211q-98 2 -166.5 72t-68.5 168q0 99 70.5 169.5t169.5 70.5t169.5 -70.5t70.5 -169.5q0 -98 -69 -168t-166 -72v-211h285v-10h-580v10z" />
    <glyph glyph-name="paragraph" unicode="&#xb6;" 
d="M370 620h-80v-740q0 -17 -11.5 -28.5t-28.5 -11.5t-28.5 11.5t-11.5 28.5v430q-68 0 -114 50t-46 121v50q0 70 46 119.5t114 49.5h280q15 0 27.5 -12.5t12.5 -28.5t-11.5 -27.5t-28.5 -11.5h-40v-740q0 -17 -11.5 -28.5t-28.5 -11.5t-28.5 11.5t-11.5 28.5v740z" />
    <glyph glyph-name="periodcentered" unicode="&#xb7;" 
d="M250 325v55q0 17 11.5 28.5t28.5 11.5t28.5 -11.5t11.5 -28.5v-55q0 -17 -12 -28.5t-28 -11.5q-17 0 -28.5 11.5t-11.5 28.5z" />
    <glyph glyph-name="cedilla" unicode="&#xb8;" 
d="M290 20q8 0 14 -6t6 -14v-26q22 -6 37 -24t15 -40v-5q0 -26 -20 -45.5t-48 -19.5h-4q-27 0 -46.5 19.5t-19.5 45.5q0 8 6 14t14 6t13.5 -6t5.5 -14q0 -10 8 -17.5t19 -7.5h4q11 0 19.5 7.5t8.5 17.5v5q0 10 -8.5 18t-19.5 8h-4q-8 0 -14 6t-6 14v44q0 8 6 14t14 6z" />
    <glyph glyph-name="uni00B9" unicode="&#xb9;" 
d="M205 375q0 -11 -7.5 -18t-17.5 -7h-105q-11 0 -18 7t-7 18t7 18t18 7h28v250h-28q-11 0 -18 7t-7 18t7 18t18 7h53q10 0 17.5 -7t7.5 -18v-275h27q10 0 17.5 -7t7.5 -18z" />
    <glyph glyph-name="ordmasculine" unicode="&#xba;" 
d="M168 438v175q0 37 25.5 62t61.5 25h70q37 0 62.5 -25t25.5 -62v-175q0 -36 -25.5 -62t-62.5 -26h-70q-36 0 -61.5 26t-25.5 62zM325 651h-70q-15 0 -26 -11t-11 -27v-175q0 -16 11 -27t26 -11h70q16 0 27 11t11 27v175q0 16 -11 27t-27 11zM413 275q0 -11 -7.5 -18
t-17.5 -7h-195q-11 0 -18 7t-7 18t7 18t18 7h195q10 0 17.5 -7t7.5 -18z" />
    <glyph glyph-name="guillemotright" unicode="&#xbb;" 
d="M530 389v-78q0 -14 -10 -24l-140 -140q-31 -32 -68 -32h-22q-17 0 -28.5 11t-11.5 29q0 17 12 28.5t28 11.5h22l138 139v32l-138 139h-22q-16 0 -28 11.5t-12 28.5q0 18 11.5 29t28.5 11h22q37 0 68 -32l140 -140q10 -10 10 -24zM330 389v-78q0 -14 -10 -24l-140 -140
q-31 -32 -68 -32h-22q-17 0 -28.5 11t-11.5 29q0 17 12 28.5t28 11.5h22l138 139v32l-138 139h-22q-16 0 -28 11.5t-12 28.5q0 18 11.5 29t28.5 11h22q37 0 68 -32l140 -140q10 -10 10 -24z" />
    <glyph glyph-name="onequarter" unicode="&#xbc;" 
d="M205 375q0 -11 -7.5 -18t-17.5 -7h-105q-11 0 -18 7t-7 18t7 18t18 7h28v250h-28q-11 0 -18 7t-7 18t7 18t18 7h53q10 0 17.5 -7t7.5 -18v-275h27q10 0 17.5 -7t7.5 -18zM50 30v30q0 15 8 27l412 553v30q0 13 8.5 21.5t21.5 8.5t21.5 -8.5t8.5 -21.5v-30q0 -16 -8 -27
l-412 -553v-30q0 -13 -8.5 -21.5t-21.5 -8.5t-21.5 8.5t-8.5 21.5zM330 105v57q0 31 10 50l64 125q5 9 14.5 12t18.5 -2q23 -12 11 -34l-62 -123q-6 -12 -6 -28v-32h45v45q0 11 7.5 18t17.5 7t17.5 -7t7.5 -18v-45h30q11 0 18 -7t7 -18t-7 -18t-18 -7h-30v-55
q0 -11 -7.5 -18t-17.5 -7t-17.5 7t-7.5 18v55h-70q-11 0 -18 7t-7 18z" />
    <glyph glyph-name="onehalf" unicode="&#xbd;" 
d="M340 25v50q0 38 21.5 66.5t48 43t48 34.5t21.5 43q0 16 -10.5 27t-26.5 11h-15q-16 0 -26.5 -11t-10.5 -27q0 -10 -7 -17.5t-18 -7.5t-18 7.5t-7 17.5q0 36 25.5 62t61.5 26h15q36 0 62 -26t26 -62q0 -33 -22 -59t-48 -40.5t-48 -37.5t-22 -50v-25h115q11 0 18 -7t7 -18
t-7 -18t-18 -7h-140q-11 0 -18 7t-7 18zM205 375q0 -11 -7.5 -18t-17.5 -7h-105q-11 0 -18 7t-7 18t7 18t18 7h28v250h-28q-11 0 -18 7t-7 18t7 18t18 7h53q10 0 17.5 -7t7.5 -18v-275h27q10 0 17.5 -7t7.5 -18zM50 30v30q0 15 8 27l412 553v30q0 13 8.5 21.5t21.5 8.5
t21.5 -8.5t8.5 -21.5v-30q0 -16 -8 -27l-412 -553v-30q0 -13 -8.5 -21.5t-21.5 -8.5t-21.5 8.5t-8.5 21.5z" />
    <glyph glyph-name="threequarters" unicode="&#xbe;" 
d="M330 105v57q0 31 10 50l64 125q5 9 14.5 12t18.5 -2q23 -12 11 -34l-62 -123q-6 -12 -6 -28v-32h45v45q0 11 7.5 18t17.5 7t17.5 -7t7.5 -18v-45h30q11 0 18 -7t7 -18t-7 -18t-18 -7h-30v-55q0 -11 -7.5 -18t-17.5 -7t-17.5 7t-7.5 18v55h-70q-11 0 -18 7t-7 18zM50 625
q0 31 21.5 53t52.5 22h51q31 0 53 -22t22 -53v-50q0 -29 -19 -50q19 -22 19 -51v-49q0 -31 -22 -53t-53 -22h-51q-31 0 -52.5 21.5t-21.5 53.5q0 11 7 18t18 7t18 -7t7 -18t7 -18t17 -7h51q10 0 17.5 7.5t7.5 17.5v49q0 10 -7.5 18t-17.5 8h-27q-10 0 -17.5 7t-7.5 18
t7.5 18t17.5 7h27q10 0 17.5 7.5t7.5 17.5v50q0 10 -7.5 17.5t-17.5 7.5h-52q-10 0 -16.5 -7t-6.5 -18t-7 -18t-18 -7t-18 7t-7 18zM50 30v30q0 15 8 27l412 553v30q0 13 8.5 21.5t21.5 8.5t21.5 -8.5t8.5 -21.5v-30q0 -16 -8 -27l-412 -553v-30q0 -13 -8.5 -21.5
t-21.5 -8.5t-21.5 8.5t-8.5 21.5z" />
    <glyph glyph-name="questiondown" unicode="&#xbf;" 
d="M290 510q17 0 28.5 -11.5t11.5 -28.5v-47q0 -50 -20.5 -83.5t-50 -50t-59 -30t-50 -35.5t-20.5 -55q0 -36 27.5 -62.5t63.5 -26.5h138q37 0 64 26t27 62q0 17 11.5 28.5t28.5 11.5t28.5 -11.5t11.5 -28.5q0 -70 -50 -119t-121 -49h-138q-71 0 -121 49.5t-50 119.5
q0 50 20.5 83t50 49.5t59 30t50 35.5t20.5 56v47q0 17 11.5 28.5t28.5 11.5zM330 660v-80q0 -17 -11.5 -28.5t-28.5 -11.5q-16 0 -28 12t-12 28v80q0 17 11.5 28.5t28.5 11.5t28.5 -11.5t11.5 -28.5z" />
    <glyph glyph-name="Agrave" unicode="&#xc0;" 
d="M50 40v281q0 49 5 59l137 289q8 18 16 24.5t26 6.5h112q18 0 26 -7t16 -24l137 -289q5 -10 5 -59v-281q0 -17 -11.5 -28.5t-28.5 -11.5t-28.5 11.5t-11.5 28.5v120h-320v-120q0 -17 -11.5 -28.5t-28.5 -11.5t-28.5 11.5t-11.5 28.5zM130 350v-110h320v110l-123 270h-71z
M262 792l-79 79q-11 12 -11.5 28t11.5 29q12 11 28.5 11t28.5 -11l79 -79q12 -12 11.5 -28.5t-11.5 -28.5q-13 -12 -29 -12t-28 12z" />
    <glyph glyph-name="Aacute" unicode="&#xc1;" 
d="M50 40v281q0 49 5 59l137 289q8 18 16 24.5t26 6.5h112q18 0 26 -7t16 -24l137 -289q5 -10 5 -59v-281q0 -17 -11.5 -28.5t-28.5 -11.5t-28.5 11.5t-11.5 28.5v120h-320v-120q0 -17 -11.5 -28.5t-28.5 -11.5t-28.5 11.5t-11.5 28.5zM130 350v-110h320v110l-123 270h-71z
M397 871l-79 -79q-12 -12 -28 -12t-29 12q-11 12 -11.5 28.5t11.5 28.5l79 79q12 11 28.5 11t28.5 -11q12 -13 11.5 -29t-11.5 -28z" />
    <glyph glyph-name="Acircumflex" unicode="&#xc2;" 
d="M50 40v281q0 49 5 59l137 289q8 18 16 24.5t26 6.5h112q18 0 26 -7t16 -24l137 -289q5 -10 5 -59v-281q0 -17 -11.5 -28.5t-28.5 -11.5t-28.5 11.5t-11.5 28.5v120h-320v-120q0 -17 -11.5 -28.5t-28.5 -11.5t-28.5 11.5t-11.5 28.5zM130 350v-110h320v110l-123 270h-71z
M381 792l-68 68h-45l-68 -68q-12 -12 -28 -12t-29 12q-11 12 -11.5 28.5t11.5 28.5l79 79q12 12 28 12h80q17 0 29 -12l79 -79q12 -12 11.5 -28.5t-11.5 -28.5q-13 -12 -29 -12t-28 12z" />
    <glyph glyph-name="Atilde" unicode="&#xc3;" 
d="M50 40v281q0 49 5 59l137 289q8 18 16 24.5t26 6.5h112q18 0 26 -7t16 -24l137 -289q5 -10 5 -59v-281q0 -17 -11.5 -28.5t-28.5 -11.5t-28.5 11.5t-11.5 28.5v120h-320v-120q0 -17 -11.5 -28.5t-28.5 -11.5t-28.5 11.5t-11.5 28.5zM130 350v-110h320v110l-123 270h-71z
M472 904q12 -12 12 -28q0 -17 -17 -34q-5 -5 -15.5 -16t-14 -14t-12 -10.5t-12.5 -10t-10.5 -6t-12.5 -4.5t-13 -1h-59q-14 0 -38 22l-34 33h-39l-40 -39q-16 -16 -35 -16q-16 0 -27 11.5t-11 28.5q0 16 17 33l36 35q28 27 55 27h55q19 0 46 -27l29 -28h40l39 39
q16 16 34 16q14 0 27 -11z" />
    <glyph glyph-name="Adieresis" unicode="&#xc4;" 
d="M50 40v281q0 49 5 59l137 289q8 18 16 24.5t26 6.5h112q18 0 26 -7t16 -24l137 -289q5 -10 5 -59v-281q0 -17 -11.5 -28.5t-28.5 -11.5t-28.5 11.5t-11.5 28.5v120h-320v-120q0 -17 -11.5 -28.5t-28.5 -11.5t-28.5 11.5t-11.5 28.5zM130 350v-110h320v110l-123 270h-71z
M50 820v80q0 17 11.5 28.5t28.5 11.5q16 0 28 -12t12 -28v-80q0 -17 -11.5 -28.5t-28.5 -11.5t-28.5 11.5t-11.5 28.5zM450 820v80q0 17 11.5 28.5t28.5 11.5q16 0 28 -12t12 -28v-80q0 -17 -11.5 -28.5t-28.5 -11.5t-28.5 11.5t-11.5 28.5z" />
    <glyph glyph-name="Aring" unicode="&#xc5;" 
d="M50 40v281q0 49 5 59l137 289q8 18 16 24.5t26 6.5h112q18 0 26 -7t16 -24l137 -289q5 -10 5 -59v-281q0 -17 -11.5 -28.5t-28.5 -11.5t-28.5 11.5t-11.5 28.5v120h-320v-120q0 -17 -11.5 -28.5t-28.5 -11.5t-28.5 11.5t-11.5 28.5zM130 350v-110h320v110l-123 270h-71z
M155 915q0 56 39.5 95.5t95.5 39.5t95.5 -40t39.5 -95q0 -56 -39.5 -95.5t-95.5 -39.5t-95.5 39.5t-39.5 95.5zM235 915q0 -23 16 -39t39 -16q22 0 38.5 16t16.5 39t-16 39t-39 16t-39 -16t-16 -39z" />
    <glyph glyph-name="AE" unicode="&#xc6;" 
d="M50 40v281q0 51 29 114l104 229q15 36 43 36h264q17 0 28.5 -11.5t11.5 -28.5t-11.5 -28.5t-28.5 -11.5h-160v-230h160q17 0 28.5 -11.5t11.5 -28.5t-11.5 -28.5t-28.5 -11.5h-160v-230h160q17 0 28.5 -11.5t11.5 -28.5t-11.5 -28.5t-28.5 -11.5h-200q-17 0 -28.5 11.5
t-11.5 28.5v120h-120v-120q0 -17 -11.5 -28.5t-28.5 -11.5t-28.5 11.5t-11.5 28.5zM130 321v-81h120v380l-88 -200q-32 -73 -32 -99z" />
    <glyph glyph-name="Ccedilla" unicode="&#xc7;" 
d="M450 556q0 26 -18.5 45t-44.5 19h-194q-26 0 -44.5 -19t-18.5 -45v-413q0 -25 19 -44t44 -19h194q25 0 44 19t19 44q0 17 11.5 28.5t28.5 11.5t28.5 -11.5t11.5 -28.5q0 -59 -42 -101t-101 -42h-77v-1v-25q22 -6 37 -24t15 -40v-5q0 -26 -20 -45.5t-48 -19.5h-4
q-27 0 -46.5 19.5t-19.5 45.5q0 8 6 14t14 6t13.5 -6t5.5 -14q0 -10 8 -17.5t19 -7.5h4q11 0 19.5 7.5t8.5 17.5v5q0 10 -8.5 18t-19.5 8h-4q-8 0 -14 6t-6 14v43v1h-77q-59 0 -101 42t-42 101v413q0 59 42 101.5t101 42.5h194q59 0 101 -42.5t42 -101.5q0 -17 -11.5 -28.5
t-28.5 -11.5t-28.5 11.5t-11.5 28.5z" />
    <glyph glyph-name="Egrave" unicode="&#xc8;" 
d="M530 660q0 -17 -11.5 -28.5t-28.5 -11.5h-360v-230h360q17 0 28.5 -11.5t11.5 -28.5t-11.5 -28.5t-28.5 -11.5h-360v-230h360q17 0 28.5 -11.5t11.5 -28.5t-11.5 -28.5t-28.5 -11.5h-400q-17 0 -28.5 11.5t-11.5 28.5v620q0 16 12 28t28 12h400q17 0 28.5 -11.5
t11.5 -28.5zM262 792l-79 79q-11 12 -11.5 28t11.5 29q12 11 28.5 11t28.5 -11l79 -79q12 -12 11.5 -28.5t-11.5 -28.5q-13 -12 -29 -12t-28 12z" />
    <glyph glyph-name="Eacute" unicode="&#xc9;" 
d="M530 660q0 -17 -11.5 -28.5t-28.5 -11.5h-360v-230h360q17 0 28.5 -11.5t11.5 -28.5t-11.5 -28.5t-28.5 -11.5h-360v-230h360q17 0 28.5 -11.5t11.5 -28.5t-11.5 -28.5t-28.5 -11.5h-400q-17 0 -28.5 11.5t-11.5 28.5v620q0 16 12 28t28 12h400q17 0 28.5 -11.5
t11.5 -28.5zM397 871l-79 -79q-12 -12 -28 -12t-29 12q-11 12 -11.5 28.5t11.5 28.5l79 79q12 11 28.5 11t28.5 -11q12 -13 11.5 -29t-11.5 -28z" />
    <glyph glyph-name="Ecircumflex" unicode="&#xca;" 
d="M530 660q0 -17 -11.5 -28.5t-28.5 -11.5h-360v-230h360q17 0 28.5 -11.5t11.5 -28.5t-11.5 -28.5t-28.5 -11.5h-360v-230h360q17 0 28.5 -11.5t11.5 -28.5t-11.5 -28.5t-28.5 -11.5h-400q-17 0 -28.5 11.5t-11.5 28.5v620q0 16 12 28t28 12h400q17 0 28.5 -11.5
t11.5 -28.5zM381 792l-68 68h-45l-68 -68q-12 -12 -28 -12t-29 12q-11 12 -11.5 28.5t11.5 28.5l79 79q12 12 28 12h80q17 0 29 -12l79 -79q12 -12 11.5 -28.5t-11.5 -28.5q-13 -12 -29 -12t-28 12z" />
    <glyph glyph-name="Edieresis" unicode="&#xcb;" 
d="M530 660q0 -17 -11.5 -28.5t-28.5 -11.5h-360v-230h360q17 0 28.5 -11.5t11.5 -28.5t-11.5 -28.5t-28.5 -11.5h-360v-230h360q17 0 28.5 -11.5t11.5 -28.5t-11.5 -28.5t-28.5 -11.5h-400q-17 0 -28.5 11.5t-11.5 28.5v620q0 16 12 28t28 12h400q17 0 28.5 -11.5
t11.5 -28.5zM50 820v80q0 17 11.5 28.5t28.5 11.5q16 0 28 -12t12 -28v-80q0 -17 -11.5 -28.5t-28.5 -11.5t-28.5 11.5t-11.5 28.5zM450 820v80q0 17 11.5 28.5t28.5 11.5q16 0 28 -12t12 -28v-80q0 -17 -11.5 -28.5t-28.5 -11.5t-28.5 11.5t-11.5 28.5z" />
    <glyph glyph-name="Igrave" unicode="&#xcc;" 
d="M530 660q0 -17 -11.5 -28.5t-28.5 -11.5h-160v-540h160q17 0 28.5 -11.5t11.5 -28.5t-11.5 -28.5t-28.5 -11.5h-400q-17 0 -28.5 11.5t-11.5 28.5q0 16 12 28t28 12h160v540h-160q-17 0 -28.5 11.5t-11.5 28.5q0 16 12 28t28 12h400q17 0 28.5 -11.5t11.5 -28.5zM262 792
l-79 79q-11 12 -11.5 28t11.5 29q12 11 28.5 11t28.5 -11l79 -79q12 -12 11.5 -28.5t-11.5 -28.5q-13 -12 -29 -12t-28 12z" />
    <glyph glyph-name="Iacute" unicode="&#xcd;" 
d="M530 660q0 -17 -11.5 -28.5t-28.5 -11.5h-160v-540h160q17 0 28.5 -11.5t11.5 -28.5t-11.5 -28.5t-28.5 -11.5h-400q-17 0 -28.5 11.5t-11.5 28.5q0 16 12 28t28 12h160v540h-160q-17 0 -28.5 11.5t-11.5 28.5q0 16 12 28t28 12h400q17 0 28.5 -11.5t11.5 -28.5zM397 871
l-79 -79q-12 -12 -28 -12t-29 12q-11 12 -11.5 28.5t11.5 28.5l79 79q12 11 28.5 11t28.5 -11q12 -13 11.5 -29t-11.5 -28z" />
    <glyph glyph-name="Icircumflex" unicode="&#xce;" 
d="M530 660q0 -17 -11.5 -28.5t-28.5 -11.5h-160v-540h160q17 0 28.5 -11.5t11.5 -28.5t-11.5 -28.5t-28.5 -11.5h-400q-17 0 -28.5 11.5t-11.5 28.5q0 16 12 28t28 12h160v540h-160q-17 0 -28.5 11.5t-11.5 28.5q0 16 12 28t28 12h400q17 0 28.5 -11.5t11.5 -28.5zM381 792
l-68 68h-45l-68 -68q-12 -12 -28 -12t-29 12q-11 12 -11.5 28.5t11.5 28.5l79 79q12 12 28 12h80q17 0 29 -12l79 -79q12 -12 11.5 -28.5t-11.5 -28.5q-13 -12 -29 -12t-28 12z" />
    <glyph glyph-name="Idieresis" unicode="&#xcf;" 
d="M530 660q0 -17 -11.5 -28.5t-28.5 -11.5h-160v-540h160q17 0 28.5 -11.5t11.5 -28.5t-11.5 -28.5t-28.5 -11.5h-400q-17 0 -28.5 11.5t-11.5 28.5q0 16 12 28t28 12h160v540h-160q-17 0 -28.5 11.5t-11.5 28.5q0 16 12 28t28 12h400q17 0 28.5 -11.5t11.5 -28.5zM50 820
v80q0 17 11.5 28.5t28.5 11.5q16 0 28 -12t12 -28v-80q0 -17 -11.5 -28.5t-28.5 -11.5t-28.5 11.5t-11.5 28.5zM450 820v80q0 17 11.5 28.5t28.5 11.5q16 0 28 -12t12 -28v-80q0 -17 -11.5 -28.5t-28.5 -11.5t-28.5 11.5t-11.5 28.5z" />
    <glyph glyph-name="Eth" unicode="&#xd0;" 
d="M0 350q0 17 11.5 28.5t28.5 11.5h10v270q0 16 12 28t28 12h297q59 0 101 -41.5t42 -101.5v-414q0 -59 -42 -101t-101 -42h-297q-17 0 -28.5 11.5t-11.5 28.5v270h-10q-16 0 -28 12t-12 28zM450 143v413q0 25 -19 44.5t-44 19.5h-257v-230h120q17 0 28.5 -11.5t11.5 -28.5
q0 -16 -12 -28t-28 -12h-120v-230h257q24 0 43.5 19t19.5 44z" />
    <glyph glyph-name="Ntilde" unicode="&#xd1;" 
d="M490 700q17 0 28.5 -11.5t11.5 -28.5v-620q0 -17 -11.5 -28.5t-28.5 -11.5q-24 0 -40 25l-320 490v-475q0 -17 -11.5 -28.5t-28.5 -11.5t-28.5 11.5t-11.5 28.5v620q0 16 12 28t28 12q24 0 40 -25l320 -490v475q0 16 12 28t28 12zM472 904q12 -12 12 -28q0 -17 -17 -34
q-5 -5 -15.5 -16t-14 -14t-12 -10.5t-12.5 -10t-10.5 -6t-12.5 -4.5t-13 -1h-59q-14 0 -38 22l-34 33h-39l-40 -39q-16 -16 -35 -16q-16 0 -27 11.5t-11 28.5q0 16 17 33l36 35q28 27 55 27h55q19 0 46 -27l29 -28h40l39 39q16 16 34 16q14 0 27 -11z" />
    <glyph glyph-name="Ograve" unicode="&#xd2;" 
d="M530 556v-413q0 -59 -42 -101t-101 -42h-193q-60 0 -102 42t-42 101v413q0 59 42 101.5t102 42.5h193q59 0 101 -42.5t42 -101.5zM450 143v413q0 26 -18.5 45t-44.5 19h-193q-26 0 -45 -19t-19 -45v-413q0 -26 19 -44.5t45 -18.5h193q25 0 44 19t19 44zM262 792l-79 79
q-11 12 -11.5 28t11.5 29q12 11 28.5 11t28.5 -11l79 -79q12 -12 11.5 -28.5t-11.5 -28.5q-13 -12 -29 -12t-28 12z" />
    <glyph glyph-name="Oacute" unicode="&#xd3;" 
d="M530 556v-413q0 -59 -42 -101t-101 -42h-193q-60 0 -102 42t-42 101v413q0 59 42 101.5t102 42.5h193q59 0 101 -42.5t42 -101.5zM450 143v413q0 26 -18.5 45t-44.5 19h-193q-26 0 -45 -19t-19 -45v-413q0 -26 19 -44.5t45 -18.5h193q25 0 44 19t19 44zM397 871l-79 -79
q-12 -12 -28 -12t-29 12q-11 12 -11.5 28.5t11.5 28.5l79 79q12 11 28.5 11t28.5 -11q12 -13 11.5 -29t-11.5 -28z" />
    <glyph glyph-name="Ocircumflex" unicode="&#xd4;" 
d="M530 556v-413q0 -59 -42 -101t-101 -42h-193q-60 0 -102 42t-42 101v413q0 59 42 101.5t102 42.5h193q59 0 101 -42.5t42 -101.5zM450 143v413q0 26 -18.5 45t-44.5 19h-193q-26 0 -45 -19t-19 -45v-413q0 -26 19 -44.5t45 -18.5h193q25 0 44 19t19 44zM381 792l-68 68
h-45l-68 -68q-12 -12 -28 -12t-29 12q-11 12 -11.5 28.5t11.5 28.5l79 79q12 12 28 12h80q17 0 29 -12l79 -79q12 -12 11.5 -28.5t-11.5 -28.5q-13 -12 -29 -12t-28 12z" />
    <glyph glyph-name="Otilde" unicode="&#xd5;" 
d="M530 556v-413q0 -59 -42 -101t-101 -42h-193q-60 0 -102 42t-42 101v413q0 59 42 101.5t102 42.5h193q59 0 101 -42.5t42 -101.5zM450 143v413q0 26 -18.5 45t-44.5 19h-193q-26 0 -45 -19t-19 -45v-413q0 -26 19 -44.5t45 -18.5h193q25 0 44 19t19 44zM472 904
q12 -12 12 -28q0 -17 -17 -34q-5 -5 -15.5 -16t-14 -14t-12 -10.5t-12.5 -10t-10.5 -6t-12.5 -4.5t-13 -1h-59q-14 0 -38 22l-34 33h-39l-40 -39q-16 -16 -35 -16q-16 0 -27 11.5t-11 28.5q0 16 17 33l36 35q28 27 55 27h55q19 0 46 -27l29 -28h40l39 39q16 16 34 16
q14 0 27 -11z" />
    <glyph glyph-name="Odieresis" unicode="&#xd6;" 
d="M530 556v-413q0 -59 -42 -101t-101 -42h-193q-60 0 -102 42t-42 101v413q0 59 42 101.5t102 42.5h193q59 0 101 -42.5t42 -101.5zM450 143v413q0 26 -18.5 45t-44.5 19h-193q-26 0 -45 -19t-19 -45v-413q0 -26 19 -44.5t45 -18.5h193q25 0 44 19t19 44zM50 820v80
q0 17 11.5 28.5t28.5 11.5q16 0 28 -12t12 -28v-80q0 -17 -11.5 -28.5t-28.5 -11.5t-28.5 11.5t-11.5 28.5zM450 820v80q0 17 11.5 28.5t28.5 11.5q16 0 28 -12t12 -28v-80q0 -17 -11.5 -28.5t-28.5 -11.5t-28.5 11.5t-11.5 28.5z" />
    <glyph glyph-name="multiply" unicode="&#xd7;" 
d="M495 555q12 -12 12 -28.5t-12 -28.5l-148 -148l148 -148q12 -13 12 -29.5t-12 -27.5q-12 -12 -28 -12t-29 12l-148 148l-148 -148q-13 -12 -29 -12t-28 12q-12 11 -12 27.5t12 29.5l148 148l-148 148q-12 12 -12 28.5t12 28.5q11 12 28 12t29 -12l148 -148l148 148
q12 12 29 12t28 -12z" />
    <glyph glyph-name="Oslash" unicode="&#xd8;" 
d="M530 556v-413q0 -59 -42 -101t-101 -42h-57v-80q0 -16 -12 -28t-28 -12q-17 0 -28.5 11.5t-11.5 28.5v80h-56q-60 0 -102 42t-42 101v413q0 59 42 101.5t102 42.5h56v80q0 17 11.5 28.5t28.5 11.5q16 0 28 -12t12 -28v-80h57q59 0 101 -42.5t42 -101.5zM450 143v413
q0 26 -18.5 45t-44.5 19h-57v-540h57q25 0 44 19t19 44zM130 143q0 -26 19 -44.5t45 -18.5h56v540h-56q-26 0 -45 -19t-19 -45v-413z" />
    <glyph glyph-name="Ugrave" unicode="&#xd9;" 
d="M90 700q17 0 28.5 -11.5t11.5 -28.5v-517q0 -26 19 -44.5t45 -18.5h193q25 0 44 19t19 44v517q0 16 12 28t28 12q17 0 28.5 -11.5t11.5 -28.5v-517q0 -59 -42 -101t-101 -42h-193q-60 0 -102 42t-42 101v517q0 16 12 28t28 12zM262 792l-79 79q-11 12 -11.5 28t11.5 29
q12 11 28.5 11t28.5 -11l79 -79q12 -12 11.5 -28.5t-11.5 -28.5q-13 -12 -29 -12t-28 12z" />
    <glyph glyph-name="Uacute" unicode="&#xda;" 
d="M90 700q17 0 28.5 -11.5t11.5 -28.5v-517q0 -26 19 -44.5t45 -18.5h193q25 0 44 19t19 44v517q0 16 12 28t28 12q17 0 28.5 -11.5t11.5 -28.5v-517q0 -59 -42 -101t-101 -42h-193q-60 0 -102 42t-42 101v517q0 16 12 28t28 12zM397 871l-79 -79q-12 -12 -28 -12t-29 12
q-11 12 -11.5 28.5t11.5 28.5l79 79q12 11 28.5 11t28.5 -11q12 -13 11.5 -29t-11.5 -28z" />
    <glyph glyph-name="Ucircumflex" unicode="&#xdb;" 
d="M90 700q17 0 28.5 -11.5t11.5 -28.5v-517q0 -26 19 -44.5t45 -18.5h193q25 0 44 19t19 44v517q0 16 12 28t28 12q17 0 28.5 -11.5t11.5 -28.5v-517q0 -59 -42 -101t-101 -42h-193q-60 0 -102 42t-42 101v517q0 16 12 28t28 12zM381 792l-68 68h-45l-68 -68
q-12 -12 -28 -12t-29 12q-11 12 -11.5 28.5t11.5 28.5l79 79q12 12 28 12h80q17 0 29 -12l79 -79q12 -12 11.5 -28.5t-11.5 -28.5q-13 -12 -29 -12t-28 12z" />
    <glyph glyph-name="Udieresis" unicode="&#xdc;" 
d="M90 700q17 0 28.5 -11.5t11.5 -28.5v-517q0 -26 19 -44.5t45 -18.5h193q25 0 44 19t19 44v517q0 16 12 28t28 12q17 0 28.5 -11.5t11.5 -28.5v-517q0 -59 -42 -101t-101 -42h-193q-60 0 -102 42t-42 101v517q0 16 12 28t28 12zM50 820v80q0 17 11.5 28.5t28.5 11.5
q16 0 28 -12t12 -28v-80q0 -17 -11.5 -28.5t-28.5 -11.5t-28.5 11.5t-11.5 28.5zM450 820v80q0 17 11.5 28.5t28.5 11.5q16 0 28 -12t12 -28v-80q0 -17 -11.5 -28.5t-28.5 -11.5t-28.5 11.5t-11.5 28.5z" />
    <glyph glyph-name="Yacute" unicode="&#xdd;" 
d="M290 415l160 186v59q0 16 12 28t28 12q17 0 28.5 -11.5t11.5 -28.5v-64q0 -34 -27 -67l-173 -200v-289q0 -17 -11.5 -28.5t-28.5 -11.5t-28.5 11.5t-11.5 28.5v289l-173 200q-27 33 -27 67v64q0 17 12 28.5t29 11.5q16 0 27.5 -11.5t11.5 -28.5v-59zM397 871l-79 -79
q-12 -12 -28 -12t-29 12q-11 12 -11.5 28.5t11.5 28.5l79 79q12 11 28.5 11t28.5 -11q12 -13 11.5 -29t-11.5 -28z" />
    <glyph glyph-name="Thorn" unicode="&#xde;" 
d="M90 0q-17 0 -28.5 11.5t-11.5 28.5v620q0 16 12 28t28 12q17 0 28.5 -11.5t11.5 -28.5v-120h231q70 0 119.5 -50t49.5 -120v-41q0 -71 -49 -120t-120 -49h-231v-120q0 -17 -11.5 -28.5t-28.5 -11.5zM450 329v41q0 37 -26 63.5t-63 26.5h-231v-220h231q37 0 63 26t26 63z
" />
    <glyph glyph-name="germandbls" unicode="&#xdf;" 
d="M309 350v40l101 109v32q0 37 -24 63t-60 26h-107q-36 0 -62.5 -26t-26.5 -63v-491q0 -17 -11.5 -28.5t-28.5 -11.5t-28.5 11.5t-11.5 28.5v491q0 70 49.5 119.5t119.5 49.5h107q69 0 116.5 -49.5t47.5 -119.5v-61l-77 -81q56 -10 86.5 -49.5t30.5 -94.5v-102
q0 -59 -42 -101t-101 -42h-35q-59 0 -100.5 42t-41.5 101q0 17 11.5 28.5t28.5 11.5t28.5 -11.5t11.5 -28.5q0 -24 19 -43.5t43 -19.5h35q25 0 44 19t19 44v102q0 25 -19 45t-44 20h-38q-17 0 -28.5 11.5t-11.5 28.5z" />
    <glyph glyph-name="agrave" unicode="&#xe0;" 
d="M50 40v281q0 49 5 59l137 289q8 18 16 24.5t26 6.5h112q18 0 26 -7t16 -24l137 -289q5 -10 5 -59v-281q0 -17 -11.5 -28.5t-28.5 -11.5t-28.5 11.5t-11.5 28.5v120h-320v-120q0 -17 -11.5 -28.5t-28.5 -11.5t-28.5 11.5t-11.5 28.5zM130 350v-110h320v110l-123 270h-71z
M261 793l-79 79q-11 12 -11.5 28t11.5 29q12 11 28.5 11t28.5 -11l79 -79q12 -12 11.5 -28.5t-11.5 -28.5q-13 -12 -29 -12t-28 12z" />
    <glyph glyph-name="aacute" unicode="&#xe1;" 
d="M50 40v281q0 49 5 59l137 289q8 18 16 24.5t26 6.5h112q18 0 26 -7t16 -24l137 -289q5 -10 5 -59v-281q0 -17 -11.5 -28.5t-28.5 -11.5t-28.5 11.5t-11.5 28.5v120h-320v-120q0 -17 -11.5 -28.5t-28.5 -11.5t-28.5 11.5t-11.5 28.5zM130 350v-110h320v110l-123 270h-71z
M399 872l-79 -79q-12 -12 -28 -12t-29 12q-11 12 -11.5 28.5t11.5 28.5l79 79q12 11 28.5 11t28.5 -11q12 -13 11.5 -29t-11.5 -28z" />
    <glyph glyph-name="acircumflex" unicode="&#xe2;" 
d="M50 40v281q0 49 5 59l137 289q8 18 16 24.5t26 6.5h112q18 0 26 -7t16 -24l137 -289q5 -10 5 -59v-281q0 -17 -11.5 -28.5t-28.5 -11.5t-28.5 11.5t-11.5 28.5v120h-320v-120q0 -17 -11.5 -28.5t-28.5 -11.5t-28.5 11.5t-11.5 28.5zM130 350v-110h320v110l-123 270h-71z
M381 792l-68 68h-45l-68 -68q-12 -12 -28 -12t-29 12q-11 12 -11.5 28.5t11.5 28.5l79 79q12 12 28 12h80q17 0 29 -12l79 -79q12 -12 11.5 -28.5t-11.5 -28.5q-13 -12 -29 -12t-28 12z" />
    <glyph glyph-name="atilde" unicode="&#xe3;" 
d="M50 40v281q0 49 5 59l137 289q8 18 16 24.5t26 6.5h112q18 0 26 -7t16 -24l137 -289q5 -10 5 -59v-281q0 -17 -11.5 -28.5t-28.5 -11.5t-28.5 11.5t-11.5 28.5v120h-320v-120q0 -17 -11.5 -28.5t-28.5 -11.5t-28.5 11.5t-11.5 28.5zM130 350v-110h320v110l-123 270h-71z
M472 904q12 -12 12 -28q0 -17 -17 -34q-5 -5 -15.5 -16t-14 -14t-12 -10.5t-12.5 -10t-10.5 -6t-12.5 -4.5t-13 -1h-59q-14 0 -38 22l-34 33h-39l-40 -39q-16 -16 -35 -16q-16 0 -27 11.5t-11 28.5q0 16 17 33l36 35q28 27 55 27h55q19 0 46 -27l29 -28h40l39 39
q16 16 34 16q14 0 27 -11z" />
    <glyph glyph-name="adieresis" unicode="&#xe4;" 
d="M50 40v281q0 49 5 59l137 289q8 18 16 24.5t26 6.5h112q18 0 26 -7t16 -24l137 -289q5 -10 5 -59v-281q0 -17 -11.5 -28.5t-28.5 -11.5t-28.5 11.5t-11.5 28.5v120h-320v-120q0 -17 -11.5 -28.5t-28.5 -11.5t-28.5 11.5t-11.5 28.5zM130 350v-110h320v110l-123 270h-71z
M50 820v80q0 17 11.5 28.5t28.5 11.5q16 0 28 -12t12 -28v-80q0 -17 -11.5 -28.5t-28.5 -11.5t-28.5 11.5t-11.5 28.5zM450 820v80q0 17 11.5 28.5t28.5 11.5q16 0 28 -12t12 -28v-80q0 -17 -11.5 -28.5t-28.5 -11.5t-28.5 11.5t-11.5 28.5z" />
    <glyph glyph-name="aring" unicode="&#xe5;" 
d="M50 40v281q0 49 5 59l137 289q8 18 16 24.5t26 6.5h112q18 0 26 -7t16 -24l137 -289q5 -10 5 -59v-281q0 -17 -11.5 -28.5t-28.5 -11.5t-28.5 11.5t-11.5 28.5v120h-320v-120q0 -17 -11.5 -28.5t-28.5 -11.5t-28.5 11.5t-11.5 28.5zM130 350v-110h320v110l-123 270h-71z
M155 915q0 56 39.5 95.5t95.5 39.5t95.5 -40t39.5 -95q0 -56 -39.5 -95.5t-95.5 -39.5t-95.5 39.5t-39.5 95.5zM235 915q0 -23 16 -39t39 -16q22 0 38.5 16t16.5 39t-16 39t-39 16t-39 -16t-16 -39z" />
    <glyph glyph-name="ae" unicode="&#xe6;" 
d="M50 40v281q0 51 29 114l104 229q15 36 43 36h264q17 0 28.5 -11.5t11.5 -28.5t-11.5 -28.5t-28.5 -11.5h-160v-230h160q17 0 28.5 -11.5t11.5 -28.5t-11.5 -28.5t-28.5 -11.5h-160v-230h160q17 0 28.5 -11.5t11.5 -28.5t-11.5 -28.5t-28.5 -11.5h-200q-17 0 -28.5 11.5
t-11.5 28.5v120h-120v-120q0 -17 -11.5 -28.5t-28.5 -11.5t-28.5 11.5t-11.5 28.5zM130 321v-81h120v380l-88 -200q-32 -73 -32 -99z" />
    <glyph glyph-name="ccedilla" unicode="&#xe7;" 
d="M450 556q0 26 -18.5 45t-44.5 19h-194q-26 0 -44.5 -19t-18.5 -45v-413q0 -25 19 -44t44 -19h194q25 0 44 19t19 44q0 17 11.5 28.5t28.5 11.5t28.5 -11.5t11.5 -28.5q0 -59 -42 -101t-101 -42h-77v-1v-25q22 -6 37 -24t15 -40v-5q0 -26 -20 -45.5t-48 -19.5h-4
q-27 0 -46.5 19.5t-19.5 45.5q0 8 6 14t14 6t13.5 -6t5.5 -14q0 -10 8 -17.5t19 -7.5h4q11 0 19.5 7.5t8.5 17.5v5q0 10 -8.5 18t-19.5 8h-4q-8 0 -14 6t-6 14v43v1h-77q-59 0 -101 42t-42 101v413q0 59 42 101.5t101 42.5h194q59 0 101 -42.5t42 -101.5q0 -17 -11.5 -28.5
t-28.5 -11.5t-28.5 11.5t-11.5 28.5z" />
    <glyph glyph-name="egrave" unicode="&#xe8;" 
d="M530 660q0 -17 -11.5 -28.5t-28.5 -11.5h-360v-230h360q17 0 28.5 -11.5t11.5 -28.5t-11.5 -28.5t-28.5 -11.5h-360v-230h360q17 0 28.5 -11.5t11.5 -28.5t-11.5 -28.5t-28.5 -11.5h-400q-17 0 -28.5 11.5t-11.5 28.5v620q0 16 12 28t28 12h400q17 0 28.5 -11.5
t11.5 -28.5zM261 793l-79 79q-11 12 -11.5 28t11.5 29q12 11 28.5 11t28.5 -11l79 -79q12 -12 11.5 -28.5t-11.5 -28.5q-13 -12 -29 -12t-28 12z" />
    <glyph glyph-name="eacute" unicode="&#xe9;" 
d="M530 660q0 -17 -11.5 -28.5t-28.5 -11.5h-360v-230h360q17 0 28.5 -11.5t11.5 -28.5t-11.5 -28.5t-28.5 -11.5h-360v-230h360q17 0 28.5 -11.5t11.5 -28.5t-11.5 -28.5t-28.5 -11.5h-400q-17 0 -28.5 11.5t-11.5 28.5v620q0 16 12 28t28 12h400q17 0 28.5 -11.5
t11.5 -28.5zM399 872l-79 -79q-12 -12 -28 -12t-29 12q-11 12 -11.5 28.5t11.5 28.5l79 79q12 11 28.5 11t28.5 -11q12 -13 11.5 -29t-11.5 -28z" />
    <glyph glyph-name="ecircumflex" unicode="&#xea;" 
d="M530 660q0 -17 -11.5 -28.5t-28.5 -11.5h-360v-230h360q17 0 28.5 -11.5t11.5 -28.5t-11.5 -28.5t-28.5 -11.5h-360v-230h360q17 0 28.5 -11.5t11.5 -28.5t-11.5 -28.5t-28.5 -11.5h-400q-17 0 -28.5 11.5t-11.5 28.5v620q0 16 12 28t28 12h400q17 0 28.5 -11.5
t11.5 -28.5zM382 792l-68 68h-45l-68 -68q-12 -12 -28 -12t-29 12q-11 12 -11.5 28.5t11.5 28.5l79 79q12 12 28 12h80q17 0 29 -12l79 -79q12 -12 11.5 -28.5t-11.5 -28.5q-13 -12 -29 -12t-28 12z" />
    <glyph glyph-name="edieresis" unicode="&#xeb;" 
d="M530 660q0 -17 -11.5 -28.5t-28.5 -11.5h-360v-230h360q17 0 28.5 -11.5t11.5 -28.5t-11.5 -28.5t-28.5 -11.5h-360v-230h360q17 0 28.5 -11.5t11.5 -28.5t-11.5 -28.5t-28.5 -11.5h-400q-17 0 -28.5 11.5t-11.5 28.5v620q0 16 12 28t28 12h400q17 0 28.5 -11.5
t11.5 -28.5zM50 820v80q0 17 11.5 28.5t28.5 11.5q16 0 28 -12t12 -28v-80q0 -17 -11.5 -28.5t-28.5 -11.5t-28.5 11.5t-11.5 28.5zM450 820v80q0 17 11.5 28.5t28.5 11.5q16 0 28 -12t12 -28v-80q0 -17 -11.5 -28.5t-28.5 -11.5t-28.5 11.5t-11.5 28.5z" />
    <glyph glyph-name="igrave" unicode="&#xec;" 
d="M530 660q0 -17 -11.5 -28.5t-28.5 -11.5h-160v-540h160q17 0 28.5 -11.5t11.5 -28.5t-11.5 -28.5t-28.5 -11.5h-400q-17 0 -28.5 11.5t-11.5 28.5q0 16 12 28t28 12h160v540h-160q-17 0 -28.5 11.5t-11.5 28.5q0 16 12 28t28 12h400q17 0 28.5 -11.5t11.5 -28.5zM261 793
l-79 79q-11 12 -11.5 28t11.5 29q12 11 28.5 11t28.5 -11l79 -79q12 -12 11.5 -28.5t-11.5 -28.5q-13 -12 -29 -12t-28 12z" />
    <glyph glyph-name="iacute" unicode="&#xed;" 
d="M530 660q0 -17 -11.5 -28.5t-28.5 -11.5h-160v-540h160q17 0 28.5 -11.5t11.5 -28.5t-11.5 -28.5t-28.5 -11.5h-400q-17 0 -28.5 11.5t-11.5 28.5q0 16 12 28t28 12h160v540h-160q-17 0 -28.5 11.5t-11.5 28.5q0 16 12 28t28 12h400q17 0 28.5 -11.5t11.5 -28.5zM399 872
l-79 -79q-12 -12 -28 -12t-29 12q-11 12 -11.5 28.5t11.5 28.5l79 79q12 11 28.5 11t28.5 -11q12 -13 11.5 -29t-11.5 -28z" />
    <glyph glyph-name="icircumflex" unicode="&#xee;" 
d="M530 660q0 -17 -11.5 -28.5t-28.5 -11.5h-160v-540h160q17 0 28.5 -11.5t11.5 -28.5t-11.5 -28.5t-28.5 -11.5h-400q-17 0 -28.5 11.5t-11.5 28.5q0 16 12 28t28 12h160v540h-160q-17 0 -28.5 11.5t-11.5 28.5q0 16 12 28t28 12h400q17 0 28.5 -11.5t11.5 -28.5zM381 792
l-68 68h-45l-68 -68q-12 -12 -28 -12t-29 12q-11 12 -11.5 28.5t11.5 28.5l79 79q12 12 28 12h80q17 0 29 -12l79 -79q12 -12 11.5 -28.5t-11.5 -28.5q-13 -12 -29 -12t-28 12z" />
    <glyph glyph-name="idieresis" unicode="&#xef;" 
d="M50 820v80q0 17 11.5 28.5t28.5 11.5q16 0 28 -12t12 -28v-80q0 -17 -11.5 -28.5t-28.5 -11.5t-28.5 11.5t-11.5 28.5zM450 820v80q0 17 11.5 28.5t28.5 11.5q16 0 28 -12t12 -28v-80q0 -17 -11.5 -28.5t-28.5 -11.5t-28.5 11.5t-11.5 28.5zM530 660q0 -17 -11.5 -28.5
t-28.5 -11.5h-160v-540h160q17 0 28.5 -11.5t11.5 -28.5t-11.5 -28.5t-28.5 -11.5h-400q-17 0 -28.5 11.5t-11.5 28.5q0 16 12 28t28 12h160v540h-160q-17 0 -28.5 11.5t-11.5 28.5q0 16 12 28t28 12h400q17 0 28.5 -11.5t11.5 -28.5z" />
    <glyph glyph-name="eth" unicode="&#xf0;" 
d="M0 350q0 17 11.5 28.5t28.5 11.5h10v270q0 16 12 28t28 12h297q59 0 101 -41.5t42 -101.5v-414q0 -59 -42 -101t-101 -42h-297q-17 0 -28.5 11.5t-11.5 28.5v270h-10q-16 0 -28 12t-12 28zM450 143v413q0 25 -19 44.5t-44 19.5h-257v-230h120q17 0 28.5 -11.5t11.5 -28.5
q0 -16 -12 -28t-28 -12h-120v-230h257q24 0 43.5 19t19.5 44z" />
    <glyph glyph-name="ntilde" unicode="&#xf1;" 
d="M490 700q17 0 28.5 -11.5t11.5 -28.5v-620q0 -17 -11.5 -28.5t-28.5 -11.5q-24 0 -40 25l-320 490v-475q0 -17 -11.5 -28.5t-28.5 -11.5t-28.5 11.5t-11.5 28.5v620q0 16 12 28t28 12q24 0 40 -25l320 -490v475q0 16 12 28t28 12zM474 904q12 -12 12 -28q0 -17 -17 -34
q-5 -5 -15.5 -16t-14 -14t-12 -10.5t-12.5 -10t-10.5 -6t-12.5 -4.5t-13 -1h-59q-14 0 -38 22l-34 33h-39l-40 -39q-16 -16 -35 -16q-16 0 -27 11.5t-11 28.5q0 16 17 33l36 35q28 27 55 27h55q19 0 46 -27l29 -28h40l39 39q16 16 34 16q14 0 27 -11z" />
    <glyph glyph-name="ograve" unicode="&#xf2;" 
d="M530 556v-413q0 -59 -42 -101t-101 -42h-193q-60 0 -102 42t-42 101v413q0 59 42 101.5t102 42.5h193q59 0 101 -42.5t42 -101.5zM450 143v413q0 26 -18.5 45t-44.5 19h-193q-26 0 -45 -19t-19 -45v-413q0 -26 19 -44.5t45 -18.5h193q25 0 44 19t19 44zM261 793l-79 79
q-11 12 -11.5 28t11.5 29q12 11 28.5 11t28.5 -11l79 -79q12 -12 11.5 -28.5t-11.5 -28.5q-13 -12 -29 -12t-28 12z" />
    <glyph glyph-name="oacute" unicode="&#xf3;" 
d="M530 556v-413q0 -59 -42 -101t-101 -42h-193q-60 0 -102 42t-42 101v413q0 59 42 101.5t102 42.5h193q59 0 101 -42.5t42 -101.5zM450 143v413q0 26 -18.5 45t-44.5 19h-193q-26 0 -45 -19t-19 -45v-413q0 -26 19 -44.5t45 -18.5h193q25 0 44 19t19 44zM399 872l-79 -79
q-12 -12 -28 -12t-29 12q-11 12 -11.5 28.5t11.5 28.5l79 79q12 11 28.5 11t28.5 -11q12 -13 11.5 -29t-11.5 -28z" />
    <glyph glyph-name="ocircumflex" unicode="&#xf4;" 
d="M530 556v-413q0 -59 -42 -101t-101 -42h-193q-60 0 -102 42t-42 101v413q0 59 42 101.5t102 42.5h193q59 0 101 -42.5t42 -101.5zM450 143v413q0 26 -18.5 45t-44.5 19h-193q-26 0 -45 -19t-19 -45v-413q0 -26 19 -44.5t45 -18.5h193q25 0 44 19t19 44zM381 792l-68 68
h-45l-68 -68q-12 -12 -28 -12t-29 12q-11 12 -11.5 28.5t11.5 28.5l79 79q12 12 28 12h80q17 0 29 -12l79 -79q12 -12 11.5 -28.5t-11.5 -28.5q-13 -12 -29 -12t-28 12z" />
    <glyph glyph-name="otilde" unicode="&#xf5;" 
d="M530 556v-413q0 -59 -42 -101t-101 -42h-193q-60 0 -102 42t-42 101v413q0 59 42 101.5t102 42.5h193q59 0 101 -42.5t42 -101.5zM450 143v413q0 26 -18.5 45t-44.5 19h-193q-26 0 -45 -19t-19 -45v-413q0 -26 19 -44.5t45 -18.5h193q25 0 44 19t19 44zM474 904
q12 -12 12 -28q0 -17 -17 -34q-5 -5 -15.5 -16t-14 -14t-12 -10.5t-12.5 -10t-10.5 -6t-12.5 -4.5t-13 -1h-59q-14 0 -38 22l-34 33h-39l-40 -39q-16 -16 -35 -16q-16 0 -27 11.5t-11 28.5q0 16 17 33l36 35q28 27 55 27h55q19 0 46 -27l29 -28h40l39 39q16 16 34 16
q14 0 27 -11z" />
    <glyph glyph-name="odieresis" unicode="&#xf6;" 
d="M530 556v-413q0 -59 -42 -101t-101 -42h-193q-60 0 -102 42t-42 101v413q0 59 42 101.5t102 42.5h193q59 0 101 -42.5t42 -101.5zM450 143v413q0 26 -18.5 45t-44.5 19h-193q-26 0 -45 -19t-19 -45v-413q0 -26 19 -44.5t45 -18.5h193q25 0 44 19t19 44zM50 820v80
q0 17 11.5 28.5t28.5 11.5q16 0 28 -12t12 -28v-80q0 -17 -11.5 -28.5t-28.5 -11.5t-28.5 11.5t-11.5 28.5zM450 820v80q0 17 11.5 28.5t28.5 11.5q16 0 28 -12t12 -28v-80q0 -17 -11.5 -28.5t-28.5 -11.5t-28.5 11.5t-11.5 28.5z" />
    <glyph glyph-name="divide" unicode="&#xf7;" 
d="M250 120v80q0 17 11.5 28.5t28.5 11.5q16 0 28 -12t12 -28v-80q0 -17 -11.5 -28.5t-28.5 -11.5t-28.5 11.5t-11.5 28.5zM250 501v79q0 17 11.5 28.5t28.5 11.5q16 0 28 -12t12 -28v-79q0 -17 -11.5 -28.5t-28.5 -11.5t-28.5 11.5t-11.5 28.5zM530 350q0 -17 -11.5 -28.5
t-28.5 -11.5h-400q-17 0 -28.5 11.5t-11.5 28.5q0 16 12 28t28 12h400q17 0 28.5 -11.5t11.5 -28.5z" />
    <glyph glyph-name="oslash" unicode="&#xf8;" 
d="M530 556v-413q0 -59 -42 -101t-101 -42h-57v-80q0 -16 -12 -28t-28 -12q-17 0 -28.5 11.5t-11.5 28.5v80h-56q-60 0 -102 42t-42 101v413q0 59 42 101.5t102 42.5h56v80q0 17 11.5 28.5t28.5 11.5q16 0 28 -12t12 -28v-80h57q59 0 101 -42.5t42 -101.5zM450 143v413
q0 26 -18.5 45t-44.5 19h-57v-540h57q25 0 44 19t19 44zM130 143q0 -26 19 -44.5t45 -18.5h56v540h-56q-26 0 -45 -19t-19 -45v-413z" />
    <glyph glyph-name="ugrave" unicode="&#xf9;" 
d="M90 700q17 0 28.5 -11.5t11.5 -28.5v-517q0 -26 19 -44.5t45 -18.5h193q25 0 44 19t19 44v517q0 16 12 28t28 12q17 0 28.5 -11.5t11.5 -28.5v-517q0 -59 -42 -101t-101 -42h-193q-60 0 -102 42t-42 101v517q0 16 12 28t28 12zM261 793l-79 79q-11 12 -11.5 28t11.5 29
q12 11 28.5 11t28.5 -11l79 -79q12 -12 11.5 -28.5t-11.5 -28.5q-13 -12 -29 -12t-28 12z" />
    <glyph glyph-name="uacute" unicode="&#xfa;" 
d="M90 700q17 0 28.5 -11.5t11.5 -28.5v-517q0 -26 19 -44.5t45 -18.5h193q25 0 44 19t19 44v517q0 16 12 28t28 12q17 0 28.5 -11.5t11.5 -28.5v-517q0 -59 -42 -101t-101 -42h-193q-60 0 -102 42t-42 101v517q0 16 12 28t28 12zM399 872l-79 -79q-12 -12 -28 -12t-29 12
q-11 12 -11.5 28.5t11.5 28.5l79 79q12 11 28.5 11t28.5 -11q12 -13 11.5 -29t-11.5 -28z" />
    <glyph glyph-name="ucircumflex" unicode="&#xfb;" 
d="M90 700q17 0 28.5 -11.5t11.5 -28.5v-517q0 -26 19 -44.5t45 -18.5h193q25 0 44 19t19 44v517q0 16 12 28t28 12q17 0 28.5 -11.5t11.5 -28.5v-517q0 -59 -42 -101t-101 -42h-193q-60 0 -102 42t-42 101v517q0 16 12 28t28 12zM381 792l-68 68h-45l-68 -68
q-12 -12 -28 -12t-29 12q-11 12 -11.5 28.5t11.5 28.5l79 79q12 12 28 12h80q17 0 29 -12l79 -79q12 -12 11.5 -28.5t-11.5 -28.5q-13 -12 -29 -12t-28 12z" />
    <glyph glyph-name="udieresis" unicode="&#xfc;" 
d="M90 700q17 0 28.5 -11.5t11.5 -28.5v-517q0 -26 19 -44.5t45 -18.5h193q25 0 44 19t19 44v517q0 16 12 28t28 12q17 0 28.5 -11.5t11.5 -28.5v-517q0 -59 -42 -101t-101 -42h-193q-60 0 -102 42t-42 101v517q0 16 12 28t28 12zM50 820v80q0 17 11.5 28.5t28.5 11.5
q16 0 28 -12t12 -28v-80q0 -17 -11.5 -28.5t-28.5 -11.5t-28.5 11.5t-11.5 28.5zM450 820v80q0 17 11.5 28.5t28.5 11.5q16 0 28 -12t12 -28v-80q0 -17 -11.5 -28.5t-28.5 -11.5t-28.5 11.5t-11.5 28.5z" />
    <glyph glyph-name="yacute" unicode="&#xfd;" 
d="M290 415l160 186v59q0 16 12 28t28 12q17 0 28.5 -11.5t11.5 -28.5v-64q0 -34 -27 -67l-173 -200v-289q0 -17 -11.5 -28.5t-28.5 -11.5t-28.5 11.5t-11.5 28.5v289l-173 200q-27 33 -27 67v64q0 17 12 28.5t29 11.5q16 0 27.5 -11.5t11.5 -28.5v-59zM399 872l-79 -79
q-12 -12 -28 -12t-29 12q-11 12 -11.5 28.5t11.5 28.5l79 79q12 11 28.5 11t28.5 -11q12 -13 11.5 -29t-11.5 -28z" />
    <glyph glyph-name="thorn" unicode="&#xfe;" 
d="M90 0q-17 0 -28.5 11.5t-11.5 28.5v620q0 16 12 28t28 12q17 0 28.5 -11.5t11.5 -28.5v-120h231q70 0 119.5 -50t49.5 -120v-41q0 -71 -49 -120t-120 -49h-231v-120q0 -17 -11.5 -28.5t-28.5 -11.5zM450 329v41q0 37 -26 63.5t-63 26.5h-231v-220h231q37 0 63 26t26 63z
" />
    <glyph glyph-name="ydieresis" unicode="&#xff;" 
d="M290 415l160 186v59q0 16 12 28t28 12q17 0 28.5 -11.5t11.5 -28.5v-64q0 -34 -27 -67l-173 -200v-289q0 -17 -11.5 -28.5t-28.5 -11.5t-28.5 11.5t-11.5 28.5v289l-173 200q-27 33 -27 67v64q0 17 12 28.5t29 11.5q16 0 27.5 -11.5t11.5 -28.5v-59zM50 820v80
q0 17 11.5 28.5t28.5 11.5q16 0 28 -12t12 -28v-80q0 -17 -11.5 -28.5t-28.5 -11.5t-28.5 11.5t-11.5 28.5zM450 820v80q0 17 11.5 28.5t28.5 11.5q16 0 28 -12t12 -28v-80q0 -17 -11.5 -28.5t-28.5 -11.5t-28.5 11.5t-11.5 28.5z" />
    <glyph glyph-name="Amacron" unicode="&#x100;" 
d="M50 40v281q0 49 5 59l137 289q8 18 16 24.5t26 6.5h112q18 0 26 -7t16 -24l137 -289q5 -10 5 -59v-281q0 -17 -11.5 -28.5t-28.5 -11.5t-28.5 11.5t-11.5 28.5v120h-320v-120q0 -17 -11.5 -28.5t-28.5 -11.5t-28.5 11.5t-11.5 28.5zM130 350v-110h320v110l-123 270h-71z
M450 820q0 -17 -11.5 -28.5t-28.5 -11.5h-240q-17 0 -28.5 11.5t-11.5 28.5q0 16 12 28t28 12h240q17 0 28.5 -11.5t11.5 -28.5z" />
    <glyph glyph-name="amacron" unicode="&#x101;" 
d="M50 40v281q0 49 5 59l137 289q8 18 16 24.5t26 6.5h112q18 0 26 -7t16 -24l137 -289q5 -10 5 -59v-281q0 -17 -11.5 -28.5t-28.5 -11.5t-28.5 11.5t-11.5 28.5v120h-320v-120q0 -17 -11.5 -28.5t-28.5 -11.5t-28.5 11.5t-11.5 28.5zM130 350v-110h320v110l-123 270h-71z
M450 820q0 -17 -11.5 -28.5t-28.5 -11.5h-240q-17 0 -28.5 11.5t-11.5 28.5q0 16 12 28t28 12h240q17 0 28.5 -11.5t11.5 -28.5z" />
    <glyph glyph-name="Abreve" unicode="&#x102;" 
d="M50 40v281q0 49 5 59l137 289q8 18 16 24.5t26 6.5h112q18 0 26 -7t16 -24l137 -289q5 -10 5 -59v-281q0 -17 -11.5 -28.5t-28.5 -11.5t-28.5 11.5t-11.5 28.5v120h-320v-120q0 -17 -11.5 -28.5t-28.5 -11.5t-28.5 11.5t-11.5 28.5zM130 350v-110h320v110l-123 270h-71z
M209 940q19 0 29.5 -11t10.5 -29q0 -17 12 -28.5t29 -11.5t29 11.5t12 28.5q0 18 10.5 29t29.5 11q18 0 29 -11t11 -29q0 -50 -35.5 -85t-85.5 -35t-85.5 35t-35.5 85q0 18 11 29t29 11z" />
    <glyph glyph-name="abreve" unicode="&#x103;" 
d="M50 40v281q0 49 5 59l137 289q8 18 16 24.5t26 6.5h112q18 0 26 -7t16 -24l137 -289q5 -10 5 -59v-281q0 -17 -11.5 -28.5t-28.5 -11.5t-28.5 11.5t-11.5 28.5v120h-320v-120q0 -17 -11.5 -28.5t-28.5 -11.5t-28.5 11.5t-11.5 28.5zM130 350v-110h320v110l-123 270h-71z
M209 940q19 0 29.5 -11t10.5 -29q0 -17 12 -28.5t29 -11.5t29 11.5t12 28.5q0 18 10.5 29t29.5 11q18 0 29 -11t11 -29q0 -50 -35.5 -85t-85.5 -35t-85.5 35t-35.5 85q0 18 11 29t29 11z" />
    <glyph glyph-name="Aogonek" unicode="&#x104;" 
d="M510 -160h-4q-28 0 -48 19.5t-20 45.5v5q0 22 15 40t37 24v26q-17 0 -28.5 11.5t-11.5 28.5v120h-320v-120q0 -17 -11.5 -28.5t-28.5 -11.5t-28.5 11.5t-11.5 28.5v281q0 49 5 59l137 289q8 18 16 24.5t26 6.5h112q18 0 26 -7t16 -24l137 -289q5 -10 5 -59v-365
q0 -8 -6 -14t-14 -6h-4q-11 0 -19.5 -8t-8.5 -18v-5q0 -10 8.5 -17.5t19.5 -7.5h4q8 0 14 -6t6 -14t-6 -14t-14 -6zM130 350v-110h320v110l-123 270h-71z" />
    <glyph glyph-name="aogonek" unicode="&#x105;" 
d="M510 -160h-4q-28 0 -48 19.5t-20 45.5v5q0 22 15 40t37 24v26q-17 0 -28.5 11.5t-11.5 28.5v120h-320v-120q0 -17 -11.5 -28.5t-28.5 -11.5t-28.5 11.5t-11.5 28.5v281q0 49 5 59l137 289q8 18 16 24.5t26 6.5h112q18 0 26 -7t16 -24l137 -289q5 -10 5 -59v-365
q0 -8 -6 -14t-14 -6h-4q-11 0 -19.5 -8t-8.5 -18v-5q0 -10 8.5 -17.5t19.5 -7.5h4q8 0 14 -6t6 -14t-6 -14t-14 -6zM130 350v-110h320v110l-123 270h-71z" />
    <glyph glyph-name="Cacute" unicode="&#x106;" 
d="M450 556q0 26 -18.5 45t-44.5 19h-194q-26 0 -44.5 -19t-18.5 -45v-413q0 -25 19 -44t44 -19h194q25 0 44 19t19 44q0 17 11.5 28.5t28.5 11.5t28.5 -11.5t11.5 -28.5q0 -59 -42 -101t-101 -42h-194q-59 0 -101 42t-42 101v413q0 59 42 101.5t101 42.5h194
q59 0 101 -42.5t42 -101.5q0 -17 -11.5 -28.5t-28.5 -11.5t-28.5 11.5t-11.5 28.5zM399 872l-79 -79q-12 -12 -28 -12t-29 12q-11 12 -11.5 28.5t11.5 28.5l79 79q12 11 28.5 11t28.5 -11q12 -13 11.5 -29t-11.5 -28z" />
    <glyph glyph-name="cacute" unicode="&#x107;" 
d="M450 556q0 26 -18.5 45t-44.5 19h-194q-26 0 -44.5 -19t-18.5 -45v-413q0 -25 19 -44t44 -19h194q25 0 44 19t19 44q0 17 11.5 28.5t28.5 11.5t28.5 -11.5t11.5 -28.5q0 -59 -42 -101t-101 -42h-194q-59 0 -101 42t-42 101v413q0 59 42 101.5t101 42.5h194
q59 0 101 -42.5t42 -101.5q0 -17 -11.5 -28.5t-28.5 -11.5t-28.5 11.5t-11.5 28.5zM399 872l-79 -79q-12 -12 -28 -12t-29 12q-11 12 -11.5 28.5t11.5 28.5l79 79q12 11 28.5 11t28.5 -11q12 -13 11.5 -29t-11.5 -28z" />
    <glyph glyph-name="Ccircumflex" unicode="&#x108;" 
d="M450 556q0 26 -18.5 45t-44.5 19h-194q-26 0 -44.5 -19t-18.5 -45v-413q0 -25 19 -44t44 -19h194q25 0 44 19t19 44q0 17 11.5 28.5t28.5 11.5t28.5 -11.5t11.5 -28.5q0 -59 -42 -101t-101 -42h-194q-59 0 -101 42t-42 101v413q0 59 42 101.5t101 42.5h194
q59 0 101 -42.5t42 -101.5q0 -17 -11.5 -28.5t-28.5 -11.5t-28.5 11.5t-11.5 28.5zM381 792l-68 68h-45l-68 -68q-12 -12 -28 -12t-29 12q-11 12 -11.5 28.5t11.5 28.5l79 79q12 12 28 12h80q17 0 29 -12l79 -79q12 -12 11.5 -28.5t-11.5 -28.5q-13 -12 -29 -12t-28 12z" />
    <glyph glyph-name="ccircumflex" unicode="&#x109;" 
d="M450 556q0 26 -18.5 45t-44.5 19h-194q-26 0 -44.5 -19t-18.5 -45v-413q0 -25 19 -44t44 -19h194q25 0 44 19t19 44q0 17 11.5 28.5t28.5 11.5t28.5 -11.5t11.5 -28.5q0 -59 -42 -101t-101 -42h-194q-59 0 -101 42t-42 101v413q0 59 42 101.5t101 42.5h194
q59 0 101 -42.5t42 -101.5q0 -17 -11.5 -28.5t-28.5 -11.5t-28.5 11.5t-11.5 28.5zM381 792l-68 68h-45l-68 -68q-12 -12 -28 -12t-29 12q-11 12 -11.5 28.5t11.5 28.5l79 79q12 12 28 12h80q17 0 29 -12l79 -79q12 -12 11.5 -28.5t-11.5 -28.5q-13 -12 -29 -12t-28 12z" />
    <glyph glyph-name="Cdotaccent" unicode="&#x10a;" 
d="M450 556q0 26 -18.5 45t-44.5 19h-194q-26 0 -44.5 -19t-18.5 -45v-413q0 -25 19 -44t44 -19h194q25 0 44 19t19 44q0 17 11.5 28.5t28.5 11.5t28.5 -11.5t11.5 -28.5q0 -59 -42 -101t-101 -42h-194q-59 0 -101 42t-42 101v413q0 59 42 101.5t101 42.5h194
q59 0 101 -42.5t42 -101.5q0 -17 -11.5 -28.5t-28.5 -11.5t-28.5 11.5t-11.5 28.5zM250 820v80q0 17 11.5 28.5t28.5 11.5q16 0 28 -12t12 -28v-80q0 -17 -11.5 -28.5t-28.5 -11.5t-28.5 11.5t-11.5 28.5z" />
    <glyph glyph-name="cdotaccent" unicode="&#x10b;" 
d="M450 556q0 26 -18.5 45t-44.5 19h-194q-26 0 -44.5 -19t-18.5 -45v-413q0 -25 19 -44t44 -19h194q25 0 44 19t19 44q0 17 11.5 28.5t28.5 11.5t28.5 -11.5t11.5 -28.5q0 -59 -42 -101t-101 -42h-194q-59 0 -101 42t-42 101v413q0 59 42 101.5t101 42.5h194
q59 0 101 -42.5t42 -101.5q0 -17 -11.5 -28.5t-28.5 -11.5t-28.5 11.5t-11.5 28.5zM250 820v80q0 17 11.5 28.5t28.5 11.5q16 0 28 -12t12 -28v-80q0 -17 -11.5 -28.5t-28.5 -11.5t-28.5 11.5t-11.5 28.5z" />
    <glyph glyph-name="Ccaron" unicode="&#x10c;" 
d="M450 556q0 26 -18.5 45t-44.5 19h-194q-26 0 -44.5 -19t-18.5 -45v-413q0 -25 19 -44t44 -19h194q25 0 44 19t19 44q0 17 11.5 28.5t28.5 11.5t28.5 -11.5t11.5 -28.5q0 -59 -42 -101t-101 -42h-194q-59 0 -101 42t-42 101v413q0 59 42 101.5t101 42.5h194
q59 0 101 -42.5t42 -101.5q0 -17 -11.5 -28.5t-28.5 -11.5t-28.5 11.5t-11.5 28.5zM313 860l68 68q12 12 28 12t29 -12q11 -12 11.5 -28.5t-11.5 -28.5l-79 -79q-14 -12 -29 -12h-80q-14 0 -28 12l-79 79q-12 12 -11.5 28.5t11.5 28.5q13 12 29 12t28 -12l68 -68h45z" />
    <glyph glyph-name="ccaron" unicode="&#x10d;" 
d="M450 556q0 26 -18.5 45t-44.5 19h-194q-26 0 -44.5 -19t-18.5 -45v-413q0 -25 19 -44t44 -19h194q25 0 44 19t19 44q0 17 11.5 28.5t28.5 11.5t28.5 -11.5t11.5 -28.5q0 -59 -42 -101t-101 -42h-194q-59 0 -101 42t-42 101v413q0 59 42 101.5t101 42.5h194
q59 0 101 -42.5t42 -101.5q0 -17 -11.5 -28.5t-28.5 -11.5t-28.5 11.5t-11.5 28.5zM313 860l68 68q12 12 28 12t29 -12q11 -12 11.5 -28.5t-11.5 -28.5l-79 -79q-14 -12 -29 -12h-80q-14 0 -28 12l-79 79q-12 12 -11.5 28.5t11.5 28.5q13 12 29 12t28 -12l68 -68h45z" />
    <glyph glyph-name="Dcaron" unicode="&#x10e;" 
d="M90 700h297q59 0 101 -41.5t42 -101.5v-414q0 -59 -42 -101t-101 -42h-297q-17 0 -28.5 11.5t-11.5 28.5v620q0 16 12 28t28 12zM450 143v413q0 26 -18.5 45t-44.5 19h-257v-540h257q25 0 44 19t19 44zM313 860l68 68q12 12 28 12t29 -12q11 -12 11.5 -28.5t-11.5 -28.5
l-79 -79q-14 -12 -29 -12h-80q-14 0 -28 12l-79 79q-12 12 -11.5 28.5t11.5 28.5q13 12 29 12t28 -12l68 -68h45z" />
    <glyph glyph-name="dcaron" unicode="&#x10f;" 
d="M90 700h297q59 0 101 -41.5t42 -101.5v-414q0 -59 -42 -101t-101 -42h-297q-17 0 -28.5 11.5t-11.5 28.5v620q0 16 12 28t28 12zM450 143v413q0 26 -18.5 45t-44.5 19h-257v-540h257q25 0 44 19t19 44zM313 860l68 68q12 12 28 12t29 -12q11 -12 11.5 -28.5t-11.5 -28.5
l-79 -79q-14 -12 -29 -12h-80q-14 0 -28 12l-79 79q-12 12 -11.5 28.5t11.5 28.5q13 12 29 12t28 -12l68 -68h45z" />
    <glyph glyph-name="Dcroat" unicode="&#x110;" 
d="M0 350q0 17 11.5 28.5t28.5 11.5h10v270q0 16 12 28t28 12h297q59 0 101 -41.5t42 -101.5v-414q0 -59 -42 -101t-101 -42h-297q-17 0 -28.5 11.5t-11.5 28.5v270h-10q-16 0 -28 12t-12 28zM450 143v413q0 25 -19 44.5t-44 19.5h-257v-230h120q17 0 28.5 -11.5t11.5 -28.5
q0 -16 -12 -28t-28 -12h-120v-230h257q24 0 43.5 19t19.5 44z" />
    <glyph glyph-name="dcroat" unicode="&#x111;" 
d="M0 350q0 17 11.5 28.5t28.5 11.5h10v270q0 16 12 28t28 12h297q59 0 101 -41.5t42 -101.5v-414q0 -59 -42 -101t-101 -42h-297q-17 0 -28.5 11.5t-11.5 28.5v270h-10q-16 0 -28 12t-12 28zM450 143v413q0 25 -19 44.5t-44 19.5h-257v-230h120q17 0 28.5 -11.5t11.5 -28.5
q0 -16 -12 -28t-28 -12h-120v-230h257q24 0 43.5 19t19.5 44z" />
    <glyph glyph-name="Emacron" unicode="&#x112;" 
d="M530 660q0 -17 -11.5 -28.5t-28.5 -11.5h-360v-230h360q17 0 28.5 -11.5t11.5 -28.5t-11.5 -28.5t-28.5 -11.5h-360v-230h360q17 0 28.5 -11.5t11.5 -28.5t-11.5 -28.5t-28.5 -11.5h-400q-17 0 -28.5 11.5t-11.5 28.5v620q0 16 12 28t28 12h400q17 0 28.5 -11.5
t11.5 -28.5zM450 820q0 -17 -11.5 -28.5t-28.5 -11.5h-240q-17 0 -28.5 11.5t-11.5 28.5q0 16 12 28t28 12h240q17 0 28.5 -11.5t11.5 -28.5z" />
    <glyph glyph-name="emacron" unicode="&#x113;" 
d="M530 660q0 -17 -11.5 -28.5t-28.5 -11.5h-360v-230h360q17 0 28.5 -11.5t11.5 -28.5t-11.5 -28.5t-28.5 -11.5h-360v-230h360q17 0 28.5 -11.5t11.5 -28.5t-11.5 -28.5t-28.5 -11.5h-400q-17 0 -28.5 11.5t-11.5 28.5v620q0 16 12 28t28 12h400q17 0 28.5 -11.5
t11.5 -28.5zM450 820q0 -17 -11.5 -28.5t-28.5 -11.5h-240q-17 0 -28.5 11.5t-11.5 28.5q0 16 12 28t28 12h240q17 0 28.5 -11.5t11.5 -28.5z" />
    <glyph glyph-name="Ebreve" unicode="&#x114;" 
d="M530 660q0 -17 -11.5 -28.5t-28.5 -11.5h-360v-230h360q17 0 28.5 -11.5t11.5 -28.5t-11.5 -28.5t-28.5 -11.5h-360v-230h360q17 0 28.5 -11.5t11.5 -28.5t-11.5 -28.5t-28.5 -11.5h-400q-17 0 -28.5 11.5t-11.5 28.5v620q0 16 12 28t28 12h400q17 0 28.5 -11.5
t11.5 -28.5zM209 940q19 0 29.5 -11t10.5 -29q0 -17 12 -28.5t29 -11.5t29 11.5t12 28.5q0 18 10.5 29t29.5 11q18 0 29 -11t11 -29q0 -50 -35.5 -85t-85.5 -35t-85.5 35t-35.5 85q0 18 11 29t29 11z" />
    <glyph glyph-name="ebreve" unicode="&#x115;" 
d="M530 660q0 -17 -11.5 -28.5t-28.5 -11.5h-360v-230h360q17 0 28.5 -11.5t11.5 -28.5t-11.5 -28.5t-28.5 -11.5h-360v-230h360q17 0 28.5 -11.5t11.5 -28.5t-11.5 -28.5t-28.5 -11.5h-400q-17 0 -28.5 11.5t-11.5 28.5v620q0 16 12 28t28 12h400q17 0 28.5 -11.5
t11.5 -28.5zM209 940q19 0 29.5 -11t10.5 -29q0 -17 12 -28.5t29 -11.5t29 11.5t12 28.5q0 18 10.5 29t29.5 11q18 0 29 -11t11 -29q0 -50 -35.5 -85t-85.5 -35t-85.5 35t-35.5 85q0 18 11 29t29 11z" />
    <glyph glyph-name="Edotaccent" unicode="&#x116;" 
d="M530 660q0 -17 -11.5 -28.5t-28.5 -11.5h-360v-230h360q17 0 28.5 -11.5t11.5 -28.5t-11.5 -28.5t-28.5 -11.5h-360v-230h360q17 0 28.5 -11.5t11.5 -28.5t-11.5 -28.5t-28.5 -11.5h-400q-17 0 -28.5 11.5t-11.5 28.5v620q0 16 12 28t28 12h400q17 0 28.5 -11.5
t11.5 -28.5zM250 820v80q0 17 11.5 28.5t28.5 11.5q16 0 28 -12t12 -28v-80q0 -17 -11.5 -28.5t-28.5 -11.5t-28.5 11.5t-11.5 28.5z" />
    <glyph glyph-name="edotaccent" unicode="&#x117;" 
d="M530 660q0 -17 -11.5 -28.5t-28.5 -11.5h-360v-230h360q17 0 28.5 -11.5t11.5 -28.5t-11.5 -28.5t-28.5 -11.5h-360v-230h360q17 0 28.5 -11.5t11.5 -28.5t-11.5 -28.5t-28.5 -11.5h-400q-17 0 -28.5 11.5t-11.5 28.5v620q0 16 12 28t28 12h400q17 0 28.5 -11.5
t11.5 -28.5zM250 820v80q0 17 11.5 28.5t28.5 11.5q16 0 28 -12t12 -28v-80q0 -17 -11.5 -28.5t-28.5 -11.5t-28.5 11.5t-11.5 28.5z" />
    <glyph glyph-name="Eogonek" unicode="&#x118;" 
d="M530 660q0 -17 -11.5 -28.5t-28.5 -11.5h-360v-230h360q17 0 28.5 -11.5t11.5 -28.5t-11.5 -28.5t-28.5 -11.5h-360v-230h360q17 0 28.5 -11.5t11.5 -28.5v-84q0 -8 -6 -14t-14 -6h-4q-11 0 -19.5 -8t-8.5 -18v-5q0 -10 8.5 -17.5t19.5 -7.5h4q8 0 14 -6t6 -14t-6 -14
t-14 -6h-4q-28 0 -48 19.5t-20 45.5v5q0 22 15 40t37 24v26h-400q-17 0 -28.5 11.5t-11.5 28.5v620q0 16 12 28t28 12h400q17 0 28.5 -11.5t11.5 -28.5z" />
    <glyph glyph-name="eogonek" unicode="&#x119;" 
d="M530 660q0 -17 -11.5 -28.5t-28.5 -11.5h-360v-230h360q17 0 28.5 -11.5t11.5 -28.5t-11.5 -28.5t-28.5 -11.5h-360v-230h360q17 0 28.5 -11.5t11.5 -28.5v-84q0 -8 -6 -14t-14 -6h-4q-11 0 -19.5 -8t-8.5 -18v-5q0 -10 8.5 -17.5t19.5 -7.5h4q8 0 14 -6t6 -14t-6 -14
t-14 -6h-4q-28 0 -48 19.5t-20 45.5v5q0 22 15 40t37 24v26h-400q-17 0 -28.5 11.5t-11.5 28.5v620q0 16 12 28t28 12h400q17 0 28.5 -11.5t11.5 -28.5z" />
    <glyph glyph-name="Ecaron" unicode="&#x11a;" 
d="M530 660q0 -17 -11.5 -28.5t-28.5 -11.5h-360v-230h360q17 0 28.5 -11.5t11.5 -28.5t-11.5 -28.5t-28.5 -11.5h-360v-230h360q17 0 28.5 -11.5t11.5 -28.5t-11.5 -28.5t-28.5 -11.5h-400q-17 0 -28.5 11.5t-11.5 28.5v620q0 16 12 28t28 12h400q17 0 28.5 -11.5
t11.5 -28.5zM313 860l68 68q12 12 28 12t29 -12q11 -12 11.5 -28.5t-11.5 -28.5l-79 -79q-14 -12 -29 -12h-80q-14 0 -28 12l-79 79q-12 12 -11.5 28.5t11.5 28.5q13 12 29 12t28 -12l68 -68h45z" />
    <glyph glyph-name="ecaron" unicode="&#x11b;" 
d="M530 660q0 -17 -11.5 -28.5t-28.5 -11.5h-360v-230h360q17 0 28.5 -11.5t11.5 -28.5t-11.5 -28.5t-28.5 -11.5h-360v-230h360q17 0 28.5 -11.5t11.5 -28.5t-11.5 -28.5t-28.5 -11.5h-400q-17 0 -28.5 11.5t-11.5 28.5v620q0 16 12 28t28 12h400q17 0 28.5 -11.5
t11.5 -28.5zM313 860l68 68q12 12 28 12t29 -12q11 -12 11.5 -28.5t-11.5 -28.5l-79 -79q-14 -12 -29 -12h-80q-14 0 -28 12l-79 79q-12 12 -11.5 28.5t11.5 28.5q13 12 29 12t28 -12l68 -68h45z" />
    <glyph glyph-name="Gcircumflex" unicode="&#x11c;" 
d="M450 556q0 26 -18.5 45t-44.5 19h-194q-26 0 -44.5 -19t-18.5 -45v-413q0 -25 19 -44t44 -19h194q26 0 44.5 18.5t18.5 44.5v167h-120q-17 0 -28.5 11.5t-11.5 28.5t11.5 28.5t28.5 11.5h160q17 0 28.5 -11.5t11.5 -28.5v-207q0 -59 -42 -101t-101 -42h-194
q-60 0 -101.5 42t-41.5 101v413q0 60 41.5 102t101.5 42h194q59 0 101 -42.5t42 -101.5q0 -17 -11.5 -28.5t-28.5 -11.5t-28.5 11.5t-11.5 28.5zM381 792l-68 68h-45l-68 -68q-12 -12 -28 -12t-29 12q-11 12 -11.5 28.5t11.5 28.5l79 79q12 12 28 12h80q17 0 29 -12l79 -79
q12 -12 11.5 -28.5t-11.5 -28.5q-13 -12 -29 -12t-28 12z" />
    <glyph glyph-name="gcircumflex" unicode="&#x11d;" 
d="M450 556q0 26 -18.5 45t-44.5 19h-194q-26 0 -44.5 -19t-18.5 -45v-413q0 -25 19 -44t44 -19h194q26 0 44.5 18.5t18.5 44.5v167h-120q-17 0 -28.5 11.5t-11.5 28.5t11.5 28.5t28.5 11.5h160q17 0 28.5 -11.5t11.5 -28.5v-207q0 -59 -42 -101t-101 -42h-194
q-60 0 -101.5 42t-41.5 101v413q0 60 41.5 102t101.5 42h194q59 0 101 -42.5t42 -101.5q0 -17 -11.5 -28.5t-28.5 -11.5t-28.5 11.5t-11.5 28.5zM381 792l-68 68h-45l-68 -68q-12 -12 -28 -12t-29 12q-11 12 -11.5 28.5t11.5 28.5l79 79q12 12 28 12h80q17 0 29 -12l79 -79
q12 -12 11.5 -28.5t-11.5 -28.5q-13 -12 -29 -12t-28 12z" />
    <glyph glyph-name="Gbreve" unicode="&#x11e;" 
d="M450 556q0 26 -18.5 45t-44.5 19h-194q-26 0 -44.5 -19t-18.5 -45v-413q0 -25 19 -44t44 -19h194q26 0 44.5 18.5t18.5 44.5v167h-120q-17 0 -28.5 11.5t-11.5 28.5t11.5 28.5t28.5 11.5h160q17 0 28.5 -11.5t11.5 -28.5v-207q0 -59 -42 -101t-101 -42h-194
q-60 0 -101.5 42t-41.5 101v413q0 60 41.5 102t101.5 42h194q59 0 101 -42.5t42 -101.5q0 -17 -11.5 -28.5t-28.5 -11.5t-28.5 11.5t-11.5 28.5zM209 940q19 0 29.5 -11t10.5 -29q0 -17 12 -28.5t29 -11.5t29 11.5t12 28.5q0 18 10.5 29t29.5 11q18 0 29 -11t11 -29
q0 -50 -35.5 -85t-85.5 -35t-85.5 35t-35.5 85q0 18 11 29t29 11z" />
    <glyph glyph-name="gbreve" unicode="&#x11f;" 
d="M450 556q0 26 -18.5 45t-44.5 19h-194q-26 0 -44.5 -19t-18.5 -45v-413q0 -25 19 -44t44 -19h194q26 0 44.5 18.5t18.5 44.5v167h-120q-17 0 -28.5 11.5t-11.5 28.5t11.5 28.5t28.5 11.5h160q17 0 28.5 -11.5t11.5 -28.5v-207q0 -59 -42 -101t-101 -42h-194
q-60 0 -101.5 42t-41.5 101v413q0 60 41.5 102t101.5 42h194q59 0 101 -42.5t42 -101.5q0 -17 -11.5 -28.5t-28.5 -11.5t-28.5 11.5t-11.5 28.5zM209 940q19 0 29.5 -11t10.5 -29q0 -17 12 -28.5t29 -11.5t29 11.5t12 28.5q0 18 10.5 29t29.5 11q18 0 29 -11t11 -29
q0 -50 -35.5 -85t-85.5 -35t-85.5 35t-35.5 85q0 18 11 29t29 11z" />
    <glyph glyph-name="Gdotaccent" unicode="&#x120;" 
d="M450 556q0 26 -18.5 45t-44.5 19h-194q-26 0 -44.5 -19t-18.5 -45v-413q0 -25 19 -44t44 -19h194q26 0 44.5 18.5t18.5 44.5v167h-120q-17 0 -28.5 11.5t-11.5 28.5t11.5 28.5t28.5 11.5h160q17 0 28.5 -11.5t11.5 -28.5v-207q0 -59 -42 -101t-101 -42h-194
q-60 0 -101.5 42t-41.5 101v413q0 60 41.5 102t101.5 42h194q59 0 101 -42.5t42 -101.5q0 -17 -11.5 -28.5t-28.5 -11.5t-28.5 11.5t-11.5 28.5zM250 820v80q0 17 11.5 28.5t28.5 11.5q16 0 28 -12t12 -28v-80q0 -17 -11.5 -28.5t-28.5 -11.5t-28.5 11.5t-11.5 28.5z" />
    <glyph glyph-name="gdotaccent" unicode="&#x121;" 
d="M450 556q0 26 -18.5 45t-44.5 19h-194q-26 0 -44.5 -19t-18.5 -45v-413q0 -25 19 -44t44 -19h194q26 0 44.5 18.5t18.5 44.5v167h-120q-17 0 -28.5 11.5t-11.5 28.5t11.5 28.5t28.5 11.5h160q17 0 28.5 -11.5t11.5 -28.5v-207q0 -59 -42 -101t-101 -42h-194
q-60 0 -101.5 42t-41.5 101v413q0 60 41.5 102t101.5 42h194q59 0 101 -42.5t42 -101.5q0 -17 -11.5 -28.5t-28.5 -11.5t-28.5 11.5t-11.5 28.5zM250 820v80q0 17 11.5 28.5t28.5 11.5q16 0 28 -12t12 -28v-80q0 -17 -11.5 -28.5t-28.5 -11.5t-28.5 11.5t-11.5 28.5z" />
    <glyph glyph-name="uni0122" unicode="&#x122;" 
d="M326 -157l-42 -74q-8 -15 -25 -6q-15 8 -6 24l30 54q-14 2 -23.5 13.5t-9.5 25.5q0 16 12 28t28 12t28 -12t12 -28v-15q0 -14 -4 -22zM450 556q0 26 -18.5 45t-44.5 19h-194q-26 0 -44.5 -19t-18.5 -45v-413q0 -25 19 -44t44 -19h194q26 0 44.5 18.5t18.5 44.5v167h-120
q-17 0 -28.5 11.5t-11.5 28.5t11.5 28.5t28.5 11.5h160q17 0 28.5 -11.5t11.5 -28.5v-207q0 -59 -42 -101t-101 -42h-194q-60 0 -101.5 42t-41.5 101v413q0 60 41.5 102t101.5 42h194q59 0 101 -42.5t42 -101.5q0 -17 -11.5 -28.5t-28.5 -11.5t-28.5 11.5t-11.5 28.5z" />
    <glyph glyph-name="uni0123" unicode="&#x123;" 
d="M326 -157l-42 -74q-8 -15 -25 -6q-15 8 -6 24l30 54q-14 2 -23.5 13.5t-9.5 25.5q0 16 12 28t28 12t28 -12t12 -28v-15q0 -14 -4 -22zM450 556q0 26 -18.5 45t-44.5 19h-194q-26 0 -44.5 -19t-18.5 -45v-413q0 -25 19 -44t44 -19h194q26 0 44.5 18.5t18.5 44.5v167h-120
q-17 0 -28.5 11.5t-11.5 28.5t11.5 28.5t28.5 11.5h160q17 0 28.5 -11.5t11.5 -28.5v-207q0 -59 -42 -101t-101 -42h-194q-60 0 -101.5 42t-41.5 101v413q0 60 41.5 102t101.5 42h194q59 0 101 -42.5t42 -101.5q0 -17 -11.5 -28.5t-28.5 -11.5t-28.5 11.5t-11.5 28.5z" />
    <glyph glyph-name="Hcircumflex" unicode="&#x124;" 
d="M90 700q17 0 28.5 -11.5t11.5 -28.5v-270h320v270q0 16 12 28t28 12q17 0 28.5 -11.5t11.5 -28.5v-620q0 -17 -11.5 -28.5t-28.5 -11.5t-28.5 11.5t-11.5 28.5v270h-320v-270q0 -17 -11.5 -28.5t-28.5 -11.5t-28.5 11.5t-11.5 28.5v620q0 16 12 28t28 12zM381 792l-68 68
h-45l-68 -68q-12 -12 -28 -12t-29 12q-11 12 -11.5 28.5t11.5 28.5l79 79q12 12 28 12h80q17 0 29 -12l79 -79q12 -12 11.5 -28.5t-11.5 -28.5q-13 -12 -29 -12t-28 12z" />
    <glyph glyph-name="hcircumflex" unicode="&#x125;" 
d="M90 700q17 0 28.5 -11.5t11.5 -28.5v-270h320v270q0 16 12 28t28 12q17 0 28.5 -11.5t11.5 -28.5v-620q0 -17 -11.5 -28.5t-28.5 -11.5t-28.5 11.5t-11.5 28.5v270h-320v-270q0 -17 -11.5 -28.5t-28.5 -11.5t-28.5 11.5t-11.5 28.5v620q0 16 12 28t28 12zM381 792l-68 68
h-45l-68 -68q-12 -12 -28 -12t-29 12q-11 12 -11.5 28.5t11.5 28.5l79 79q12 12 28 12h80q17 0 29 -12l79 -79q12 -12 11.5 -28.5t-11.5 -28.5q-13 -12 -29 -12t-28 12z" />
    <glyph glyph-name="Hbar" unicode="&#x126;" 
d="M580 541q0 -17 -11.5 -28.5t-28.5 -11.5h-10v-461q0 -17 -11.5 -28.5t-28.5 -11.5t-28.5 11.5t-11.5 28.5v270h-320v-270q0 -17 -11.5 -28.5t-28.5 -11.5t-28.5 11.5t-11.5 28.5v461h-10q-17 0 -28.5 11.5t-11.5 28.5t12 28.5t28 11.5h10v79q0 16 12 28t28 12
q17 0 28.5 -11.5t11.5 -28.5v-79h320v79q0 16 12 28t28 12q17 0 28.5 -11.5t11.5 -28.5v-79h10q17 0 28.5 -11.5t11.5 -28.5zM130 390h320v111h-320v-111z" />
    <glyph glyph-name="hbar" unicode="&#x127;" 
d="M580 541q0 -17 -11.5 -28.5t-28.5 -11.5h-10v-461q0 -17 -11.5 -28.5t-28.5 -11.5t-28.5 11.5t-11.5 28.5v270h-320v-270q0 -17 -11.5 -28.5t-28.5 -11.5t-28.5 11.5t-11.5 28.5v461h-10q-17 0 -28.5 11.5t-11.5 28.5t12 28.5t28 11.5h10v79q0 16 12 28t28 12
q17 0 28.5 -11.5t11.5 -28.5v-79h320v79q0 16 12 28t28 12q17 0 28.5 -11.5t11.5 -28.5v-79h10q17 0 28.5 -11.5t11.5 -28.5zM130 390h320v111h-320v-111z" />
    <glyph glyph-name="Itilde" unicode="&#x128;" 
d="M530 660q0 -17 -11.5 -28.5t-28.5 -11.5h-160v-540h160q17 0 28.5 -11.5t11.5 -28.5t-11.5 -28.5t-28.5 -11.5h-400q-17 0 -28.5 11.5t-11.5 28.5q0 16 12 28t28 12h160v540h-160q-17 0 -28.5 11.5t-11.5 28.5q0 16 12 28t28 12h400q17 0 28.5 -11.5t11.5 -28.5zM473 904
q12 -12 12 -28q0 -17 -17 -34q-5 -5 -15.5 -16t-14 -14t-12 -10.5t-12.5 -10t-10.5 -6t-12.5 -4.5t-13 -1h-59q-14 0 -38 22l-34 33h-39l-40 -39q-16 -16 -35 -16q-16 0 -27 11.5t-11 28.5q0 16 17 33l36 35q28 27 55 27h55q19 0 46 -27l29 -28h40l39 39q16 16 34 16
q14 0 27 -11z" />
    <glyph glyph-name="itilde" unicode="&#x129;" 
d="M530 660q0 -17 -11.5 -28.5t-28.5 -11.5h-160v-540h160q17 0 28.5 -11.5t11.5 -28.5t-11.5 -28.5t-28.5 -11.5h-400q-17 0 -28.5 11.5t-11.5 28.5q0 16 12 28t28 12h160v540h-160q-17 0 -28.5 11.5t-11.5 28.5q0 16 12 28t28 12h400q17 0 28.5 -11.5t11.5 -28.5zM473 904
q12 -12 12 -28q0 -17 -17 -34q-5 -5 -15.5 -16t-14 -14t-12 -10.5t-12.5 -10t-10.5 -6t-12.5 -4.5t-13 -1h-59q-14 0 -38 22l-34 33h-39l-40 -39q-16 -16 -35 -16q-16 0 -27 11.5t-11 28.5q0 16 17 33l36 35q28 27 55 27h55q19 0 46 -27l29 -28h40l39 39q16 16 34 16
q14 0 27 -11z" />
    <glyph glyph-name="Imacron" unicode="&#x12a;" 
d="M530 660q0 -17 -11.5 -28.5t-28.5 -11.5h-160v-540h160q17 0 28.5 -11.5t11.5 -28.5t-11.5 -28.5t-28.5 -11.5h-400q-17 0 -28.5 11.5t-11.5 28.5q0 16 12 28t28 12h160v540h-160q-17 0 -28.5 11.5t-11.5 28.5q0 16 12 28t28 12h400q17 0 28.5 -11.5t11.5 -28.5zM450 820
q0 -17 -11.5 -28.5t-28.5 -11.5h-240q-17 0 -28.5 11.5t-11.5 28.5q0 16 12 28t28 12h240q17 0 28.5 -11.5t11.5 -28.5z" />
    <glyph glyph-name="imacron" unicode="&#x12b;" 
d="M530 660q0 -17 -11.5 -28.5t-28.5 -11.5h-160v-540h160q17 0 28.5 -11.5t11.5 -28.5t-11.5 -28.5t-28.5 -11.5h-400q-17 0 -28.5 11.5t-11.5 28.5q0 16 12 28t28 12h160v540h-160q-17 0 -28.5 11.5t-11.5 28.5q0 16 12 28t28 12h400q17 0 28.5 -11.5t11.5 -28.5zM450 820
q0 -17 -11.5 -28.5t-28.5 -11.5h-240q-17 0 -28.5 11.5t-11.5 28.5q0 16 12 28t28 12h240q17 0 28.5 -11.5t11.5 -28.5z" />
    <glyph glyph-name="Iogonek" unicode="&#x12e;" 
d="M290 -160h-4q-28 0 -48 19.5t-20 45.5v5q0 22 15 40t37 24v26h-180q-17 0 -28.5 11.5t-11.5 28.5q0 16 12 28t28 12h160v540h-160q-17 0 -28.5 11.5t-11.5 28.5q0 16 12 28t28 12h400q17 0 28.5 -11.5t11.5 -28.5t-11.5 -28.5t-28.5 -11.5h-160v-540h160q17 0 28.5 -11.5
t11.5 -28.5t-11.5 -28.5t-28.5 -11.5h-180v-44q0 -8 -6 -14t-14 -6h-4q-11 0 -19.5 -8t-8.5 -18v-5q0 -10 8.5 -17.5t19.5 -7.5h4q8 0 14 -6t6 -14t-6 -14t-14 -6z" />
    <glyph glyph-name="iogonek" unicode="&#x12f;" 
d="M290 -160h-4q-28 0 -48 19.5t-20 45.5v5q0 22 15 40t37 24v26h-180q-17 0 -28.5 11.5t-11.5 28.5q0 16 12 28t28 12h160v540h-160q-17 0 -28.5 11.5t-11.5 28.5q0 16 12 28t28 12h400q17 0 28.5 -11.5t11.5 -28.5t-11.5 -28.5t-28.5 -11.5h-160v-540h160q17 0 28.5 -11.5
t11.5 -28.5t-11.5 -28.5t-28.5 -11.5h-180v-44q0 -8 -6 -14t-14 -6h-4q-11 0 -19.5 -8t-8.5 -18v-5q0 -10 8.5 -17.5t19.5 -7.5h4q8 0 14 -6t6 -14t-6 -14t-14 -6z" />
    <glyph glyph-name="Idotaccent" unicode="&#x130;" 
d="M530 660q0 -17 -11.5 -28.5t-28.5 -11.5h-160v-540h160q17 0 28.5 -11.5t11.5 -28.5t-11.5 -28.5t-28.5 -11.5h-400q-17 0 -28.5 11.5t-11.5 28.5q0 16 12 28t28 12h160v540h-160q-17 0 -28.5 11.5t-11.5 28.5q0 16 12 28t28 12h400q17 0 28.5 -11.5t11.5 -28.5zM250 820
v80q0 17 11.5 28.5t28.5 11.5q16 0 28 -12t12 -28v-80q0 -17 -11.5 -28.5t-28.5 -11.5t-28.5 11.5t-11.5 28.5z" />
    <glyph glyph-name="dotlessi" unicode="&#x131;" 
d="M530 660q0 -17 -11.5 -28.5t-28.5 -11.5h-160v-540h160q17 0 28.5 -11.5t11.5 -28.5t-11.5 -28.5t-28.5 -11.5h-400q-17 0 -28.5 11.5t-11.5 28.5q0 16 12 28t28 12h160v540h-160q-17 0 -28.5 11.5t-11.5 28.5q0 16 12 28t28 12h400q17 0 28.5 -11.5t11.5 -28.5z" />
    <glyph glyph-name="IJ" unicode="&#x132;" 
d="M230 660q0 16 12 28t28 12h220q17 0 28.5 -11.5t11.5 -28.5v-517q0 -59 -42 -101t-101 -42h-12q-59 0 -102 38t-43 93q0 17 11.5 28.5t28.5 11.5t28.5 -11.5t11.5 -28.5q0 -21 20.5 -36t44.5 -15h12q26 0 44.5 18.5t18.5 44.5v477h-180q-17 0 -28.5 11.5t-11.5 28.5z
M90 700q16 0 28 -12t12 -28v-620q0 -16 -12 -28t-28 -12q-17 0 -28.5 11.5t-11.5 28.5v620q0 17 11.5 28.5t28.5 11.5z" />
    <glyph glyph-name="ij" unicode="&#x133;" 
d="M230 660q0 16 12 28t28 12h220q17 0 28.5 -11.5t11.5 -28.5v-517q0 -59 -42 -101t-101 -42h-12q-59 0 -102 38t-43 93q0 17 11.5 28.5t28.5 11.5t28.5 -11.5t11.5 -28.5q0 -21 20.5 -36t44.5 -15h12q26 0 44.5 18.5t18.5 44.5v477h-180q-17 0 -28.5 11.5t-11.5 28.5z
M90 700q16 0 28 -12t12 -28v-620q0 -16 -12 -28t-28 -12q-17 0 -28.5 11.5t-11.5 28.5v620q0 17 11.5 28.5t28.5 11.5z" />
    <glyph glyph-name="Jcircumflex" unicode="&#x134;" 
d="M50 660q0 16 12 28t28 12h400q17 0 28.5 -11.5t11.5 -28.5v-517q0 -59 -42 -101t-101 -42h-192q-59 0 -102 38t-43 93q0 17 11.5 28.5t28.5 11.5t28.5 -11.5t11.5 -28.5q0 -21 20.5 -36t44.5 -15h192q26 0 44.5 18.5t18.5 44.5v477h-360q-17 0 -28.5 11.5t-11.5 28.5z
M381 792l-68 68h-45l-68 -68q-12 -12 -28 -12t-29 12q-11 12 -11.5 28.5t11.5 28.5l79 79q12 12 28 12h80q17 0 29 -12l79 -79q12 -12 11.5 -28.5t-11.5 -28.5q-13 -12 -29 -12t-28 12z" />
    <glyph glyph-name="jcircumflex" unicode="&#x135;" 
d="M50 660q0 16 12 28t28 12h400q17 0 28.5 -11.5t11.5 -28.5v-517q0 -59 -42 -101t-101 -42h-192q-59 0 -102 38t-43 93q0 17 11.5 28.5t28.5 11.5t28.5 -11.5t11.5 -28.5q0 -21 20.5 -36t44.5 -15h192q26 0 44.5 18.5t18.5 44.5v477h-360q-17 0 -28.5 11.5t-11.5 28.5z
M381 792l-68 68h-45l-68 -68q-12 -12 -28 -12t-29 12q-11 12 -11.5 28.5t11.5 28.5l79 79q12 12 28 12h80q17 0 29 -12l79 -79q12 -12 11.5 -28.5t-11.5 -28.5q-13 -12 -29 -12t-28 12z" />
    <glyph glyph-name="uni0136" unicode="&#x136;" 
d="M326 -157l-42 -74q-8 -15 -25 -6q-15 8 -6 24l30 54q-14 2 -23.5 13.5t-9.5 25.5q0 16 12 28t28 12t28 -12t12 -28v-15q0 -14 -4 -22zM490 700q17 0 28.5 -11.5t11.5 -28.5v-51q0 -34 -33 -73l-159 -186l159 -191q32 -39 33 -74v-45q0 -17 -11.5 -28.5t-28.5 -11.5
t-28.5 11.5t-11.5 28.5v50l-183 220h-137v-270q0 -17 -11.5 -28.5t-28.5 -11.5t-28.5 11.5t-11.5 28.5v620q0 16 12 28t28 12q17 0 28.5 -11.5t11.5 -28.5v-270h137l183 215v55q0 16 12 28t28 12z" />
    <glyph glyph-name="uni0137" unicode="&#x137;" 
d="M326 -157l-42 -74q-8 -15 -25 -6q-15 8 -6 24l30 54q-14 2 -23.5 13.5t-9.5 25.5q0 16 12 28t28 12t28 -12t12 -28v-15q0 -14 -4 -22zM490 700q17 0 28.5 -11.5t11.5 -28.5v-51q0 -34 -33 -73l-159 -186l159 -191q32 -39 33 -74v-45q0 -17 -11.5 -28.5t-28.5 -11.5
t-28.5 11.5t-11.5 28.5v50l-183 220h-137v-270q0 -17 -11.5 -28.5t-28.5 -11.5t-28.5 11.5t-11.5 28.5v620q0 16 12 28t28 12q17 0 28.5 -11.5t11.5 -28.5v-270h137l183 215v55q0 16 12 28t28 12z" />
    <glyph glyph-name="kgreenlandic" unicode="&#x138;" 
d="M490 541q17 0 28.5 -11.5t11.5 -28.5v-51q0 -44 -43 -73l-149 -107l149 -111q42 -29 43 -74v-45q0 -17 -11.5 -28.5t-28.5 -11.5t-28.5 11.5t-11.5 28.5v50l-183 140h-137v-190q0 -17 -11.5 -28.5t-28.5 -11.5t-28.5 11.5t-11.5 28.5v461q0 17 12 28.5t28 11.5
q17 0 28.5 -11.5t11.5 -28.5v-191h137l183 136v55q0 17 12 28.5t28 11.5z" />
    <glyph glyph-name="Lacute" unicode="&#x139;" 
d="M90 700q17 0 28.5 -11.5t11.5 -28.5v-580h360q17 0 28.5 -11.5t11.5 -28.5t-11.5 -28.5t-28.5 -11.5h-400q-17 0 -28.5 11.5t-11.5 28.5v620q0 16 12 28t28 12zM399 872l-79 -79q-12 -12 -28 -12t-29 12q-11 12 -11.5 28.5t11.5 28.5l79 79q12 11 28.5 11t28.5 -11
q12 -13 11.5 -29t-11.5 -28z" />
    <glyph glyph-name="lacute" unicode="&#x13a;" 
d="M90 700q17 0 28.5 -11.5t11.5 -28.5v-580h360q17 0 28.5 -11.5t11.5 -28.5t-11.5 -28.5t-28.5 -11.5h-400q-17 0 -28.5 11.5t-11.5 28.5v620q0 16 12 28t28 12zM399 872l-79 -79q-12 -12 -28 -12t-29 12q-11 12 -11.5 28.5t11.5 28.5l79 79q12 11 28.5 11t28.5 -11
q12 -13 11.5 -29t-11.5 -28z" />
    <glyph glyph-name="uni013B" unicode="&#x13b;" 
d="M326 -157l-42 -74q-8 -15 -25 -6q-15 8 -6 24l30 54q-14 2 -23.5 13.5t-9.5 25.5q0 16 12 28t28 12t28 -12t12 -28v-15q0 -14 -4 -22zM90 700q17 0 28.5 -11.5t11.5 -28.5v-580h360q17 0 28.5 -11.5t11.5 -28.5t-11.5 -28.5t-28.5 -11.5h-400q-17 0 -28.5 11.5
t-11.5 28.5v620q0 16 12 28t28 12z" />
    <glyph glyph-name="uni013C" unicode="&#x13c;" 
d="M326 -157l-42 -74q-8 -15 -25 -6q-15 8 -6 24l30 54q-14 2 -23.5 13.5t-9.5 25.5q0 16 12 28t28 12t28 -12t12 -28v-15q0 -14 -4 -22zM90 700q17 0 28.5 -11.5t11.5 -28.5v-580h360q17 0 28.5 -11.5t11.5 -28.5t-11.5 -28.5t-28.5 -11.5h-400q-17 0 -28.5 11.5
t-11.5 28.5v620q0 16 12 28t28 12z" />
    <glyph glyph-name="Lcaron" unicode="&#x13d;" 
d="M90 700q17 0 28.5 -11.5t11.5 -28.5v-580h360q17 0 28.5 -11.5t11.5 -28.5t-11.5 -28.5t-28.5 -11.5h-400q-17 0 -28.5 11.5t-11.5 28.5v620q0 16 12 28t28 12zM250 580v72q0 48 40 48q20 0 30 -14t10 -35v-78q0 -33 -9 -54l-37 -88q-4 -9 -13.5 -10t-16 6.5t-2.5 17.5
l38 95q-17 0 -28.5 11.5t-11.5 28.5z" />
    <glyph glyph-name="lcaron" unicode="&#x13e;" 
d="M90 700q17 0 28.5 -11.5t11.5 -28.5v-580h360q17 0 28.5 -11.5t11.5 -28.5t-11.5 -28.5t-28.5 -11.5h-400q-17 0 -28.5 11.5t-11.5 28.5v620q0 16 12 28t28 12zM250 580v72q0 48 40 48q20 0 30 -14t10 -35v-78q0 -33 -9 -54l-37 -88q-4 -9 -13.5 -10t-16 6.5t-2.5 17.5
l38 95q-17 0 -28.5 11.5t-11.5 28.5z" />
    <glyph glyph-name="Ldot" unicode="&#x13f;" 
d="M90 700q17 0 28.5 -11.5t11.5 -28.5v-580h360q17 0 28.5 -11.5t11.5 -28.5t-11.5 -28.5t-28.5 -11.5h-400q-17 0 -28.5 11.5t-11.5 28.5v620q0 16 12 28t28 12zM250 325v55q0 17 11.5 28.5t28.5 11.5t28.5 -11.5t11.5 -28.5v-55q0 -17 -12 -28.5t-28 -11.5
q-17 0 -28.5 11.5t-11.5 28.5z" />
    <glyph glyph-name="ldot" unicode="&#x140;" 
d="M90 700q17 0 28.5 -11.5t11.5 -28.5v-580h360q17 0 28.5 -11.5t11.5 -28.5t-11.5 -28.5t-28.5 -11.5h-400q-17 0 -28.5 11.5t-11.5 28.5v620q0 16 12 28t28 12zM250 325v55q0 17 11.5 28.5t28.5 11.5t28.5 -11.5t11.5 -28.5v-55q0 -17 -12 -28.5t-28 -11.5
q-17 0 -28.5 11.5t-11.5 28.5z" />
    <glyph glyph-name="Lslash" unicode="&#x141;" 
d="M0 350q0 17 11.5 28.5t28.5 11.5h10v270q0 16 12 28t28 12q17 0 28.5 -11.5t11.5 -28.5v-270h120q17 0 28.5 -11.5t11.5 -28.5t-11.5 -28.5t-28.5 -11.5h-120v-230h361q17 0 28.5 -11.5t11.5 -28.5t-11.5 -28.5t-28.5 -11.5h-401q-17 0 -28.5 11.5t-11.5 28.5v270h-10
q-16 0 -28 12t-12 28z" />
    <glyph glyph-name="lslash" unicode="&#x142;" 
d="M0 350q0 17 11.5 28.5t28.5 11.5h10v270q0 16 12 28t28 12q17 0 28.5 -11.5t11.5 -28.5v-270h120q17 0 28.5 -11.5t11.5 -28.5t-11.5 -28.5t-28.5 -11.5h-120v-230h361q17 0 28.5 -11.5t11.5 -28.5t-11.5 -28.5t-28.5 -11.5h-401q-17 0 -28.5 11.5t-11.5 28.5v270h-10
q-16 0 -28 12t-12 28z" />
    <glyph glyph-name="Nacute" unicode="&#x143;" 
d="M490 700q17 0 28.5 -11.5t11.5 -28.5v-620q0 -17 -11.5 -28.5t-28.5 -11.5q-24 0 -40 25l-320 490v-475q0 -17 -11.5 -28.5t-28.5 -11.5t-28.5 11.5t-11.5 28.5v620q0 16 12 28t28 12q24 0 40 -25l320 -490v475q0 16 12 28t28 12zM399 872l-79 -79q-12 -12 -28 -12
t-29 12q-11 12 -11.5 28.5t11.5 28.5l79 79q12 11 28.5 11t28.5 -11q12 -13 11.5 -29t-11.5 -28z" />
    <glyph glyph-name="nacute" unicode="&#x144;" 
d="M490 700q17 0 28.5 -11.5t11.5 -28.5v-620q0 -17 -11.5 -28.5t-28.5 -11.5q-24 0 -40 25l-320 490v-475q0 -17 -11.5 -28.5t-28.5 -11.5t-28.5 11.5t-11.5 28.5v620q0 16 12 28t28 12q24 0 40 -25l320 -490v475q0 16 12 28t28 12zM399 872l-79 -79q-12 -12 -28 -12
t-29 12q-11 12 -11.5 28.5t11.5 28.5l79 79q12 11 28.5 11t28.5 -11q12 -13 11.5 -29t-11.5 -28z" />
    <glyph glyph-name="uni0145" unicode="&#x145;" 
d="M326 -157l-42 -74q-8 -15 -25 -6q-15 8 -6 24l30 54q-14 2 -23.5 13.5t-9.5 25.5q0 16 12 28t28 12t28 -12t12 -28v-15q0 -14 -4 -22zM490 700q17 0 28.5 -11.5t11.5 -28.5v-620q0 -17 -11.5 -28.5t-28.5 -11.5q-24 0 -40 25l-320 490v-475q0 -17 -11.5 -28.5
t-28.5 -11.5t-28.5 11.5t-11.5 28.5v620q0 16 12 28t28 12q24 0 40 -25l320 -490v475q0 16 12 28t28 12z" />
    <glyph glyph-name="uni0146" unicode="&#x146;" 
d="M326 -157l-42 -74q-8 -15 -25 -6q-15 8 -6 24l30 54q-14 2 -23.5 13.5t-9.5 25.5q0 16 12 28t28 12t28 -12t12 -28v-15q0 -14 -4 -22zM490 700q17 0 28.5 -11.5t11.5 -28.5v-620q0 -17 -11.5 -28.5t-28.5 -11.5q-24 0 -40 25l-320 490v-475q0 -17 -11.5 -28.5
t-28.5 -11.5t-28.5 11.5t-11.5 28.5v620q0 16 12 28t28 12q24 0 40 -25l320 -490v475q0 16 12 28t28 12z" />
    <glyph glyph-name="Ncaron" unicode="&#x147;" 
d="M490 700q17 0 28.5 -11.5t11.5 -28.5v-620q0 -17 -11.5 -28.5t-28.5 -11.5q-24 0 -40 25l-320 490v-475q0 -17 -11.5 -28.5t-28.5 -11.5t-28.5 11.5t-11.5 28.5v620q0 16 12 28t28 12q24 0 40 -25l320 -490v475q0 16 12 28t28 12zM313 860l68 68q12 12 28 12t29 -12
q11 -12 11.5 -28.5t-11.5 -28.5l-79 -79q-14 -12 -29 -12h-80q-14 0 -28 12l-79 79q-12 12 -11.5 28.5t11.5 28.5q13 12 29 12t28 -12l68 -68h45z" />
    <glyph glyph-name="ncaron" unicode="&#x148;" 
d="M490 700q17 0 28.5 -11.5t11.5 -28.5v-620q0 -17 -11.5 -28.5t-28.5 -11.5q-24 0 -40 25l-320 490v-475q0 -17 -11.5 -28.5t-28.5 -11.5t-28.5 11.5t-11.5 28.5v620q0 16 12 28t28 12q24 0 40 -25l320 -490v475q0 16 12 28t28 12zM313 860l68 68q12 12 28 12t29 -12
q11 -12 11.5 -28.5t-11.5 -28.5l-79 -79q-14 -12 -29 -12h-80q-14 0 -28 12l-79 79q-12 12 -11.5 28.5t11.5 28.5q13 12 29 12t28 -12l68 -68h45z" />
    <glyph glyph-name="napostrophe" unicode="&#x149;" 
d="M490 700q17 0 28.5 -11.5t11.5 -28.5v-620q0 -17 -11.5 -28.5t-28.5 -11.5q-30 0 -40 25l-160 431v-416q0 -17 -11.5 -28.5t-28.5 -11.5t-28.5 11.5t-11.5 28.5v620q0 16 12 28t28 12q31 0 40 -25l160 -430v415q0 16 12 28t28 12zM50 580v72q0 48 40 48q20 0 30 -14
t10 -35v-78q0 -33 -9 -54l-37 -88q-4 -9 -13.5 -10t-16 6.5t-2.5 17.5l38 95q-17 0 -28.5 11.5t-11.5 28.5z" />
    <glyph glyph-name="Omacron" unicode="&#x14c;" 
d="M530 556v-413q0 -59 -42 -101t-101 -42h-193q-60 0 -102 42t-42 101v413q0 59 42 101.5t102 42.5h193q59 0 101 -42.5t42 -101.5zM450 143v413q0 26 -18.5 45t-44.5 19h-193q-26 0 -45 -19t-19 -45v-413q0 -26 19 -44.5t45 -18.5h193q25 0 44 19t19 44zM450 820
q0 -17 -11.5 -28.5t-28.5 -11.5h-240q-17 0 -28.5 11.5t-11.5 28.5q0 16 12 28t28 12h240q17 0 28.5 -11.5t11.5 -28.5z" />
    <glyph glyph-name="omacron" unicode="&#x14d;" 
d="M530 556v-413q0 -59 -42 -101t-101 -42h-193q-60 0 -102 42t-42 101v413q0 59 42 101.5t102 42.5h193q59 0 101 -42.5t42 -101.5zM450 143v413q0 26 -18.5 45t-44.5 19h-193q-26 0 -45 -19t-19 -45v-413q0 -26 19 -44.5t45 -18.5h193q25 0 44 19t19 44zM450 820
q0 -17 -11.5 -28.5t-28.5 -11.5h-240q-17 0 -28.5 11.5t-11.5 28.5q0 16 12 28t28 12h240q17 0 28.5 -11.5t11.5 -28.5z" />
    <glyph glyph-name="Obreve" unicode="&#x14e;" 
d="M530 556v-413q0 -59 -42 -101t-101 -42h-193q-60 0 -102 42t-42 101v413q0 59 42 101.5t102 42.5h193q59 0 101 -42.5t42 -101.5zM450 143v413q0 26 -18.5 45t-44.5 19h-193q-26 0 -45 -19t-19 -45v-413q0 -26 19 -44.5t45 -18.5h193q25 0 44 19t19 44zM209 940
q19 0 29.5 -11t10.5 -29q0 -17 12 -28.5t29 -11.5t29 11.5t12 28.5q0 18 10.5 29t29.5 11q18 0 29 -11t11 -29q0 -50 -35.5 -85t-85.5 -35t-85.5 35t-35.5 85q0 18 11 29t29 11z" />
    <glyph glyph-name="obreve" unicode="&#x14f;" 
d="M530 556v-413q0 -59 -42 -101t-101 -42h-193q-60 0 -102 42t-42 101v413q0 59 42 101.5t102 42.5h193q59 0 101 -42.5t42 -101.5zM450 143v413q0 26 -18.5 45t-44.5 19h-193q-26 0 -45 -19t-19 -45v-413q0 -26 19 -44.5t45 -18.5h193q25 0 44 19t19 44zM209 940
q19 0 29.5 -11t10.5 -29q0 -17 12 -28.5t29 -11.5t29 11.5t12 28.5q0 18 10.5 29t29.5 11q18 0 29 -11t11 -29q0 -50 -35.5 -85t-85.5 -35t-85.5 35t-35.5 85q0 18 11 29t29 11z" />
    <glyph glyph-name="Ohungarumlaut" unicode="&#x150;" 
d="M530 556v-413q0 -59 -42 -101t-101 -42h-193q-60 0 -102 42t-42 101v413q0 59 42 101.5t102 42.5h193q59 0 101 -42.5t42 -101.5zM450 143v413q0 26 -18.5 45t-44.5 19h-193q-26 0 -45 -19t-19 -45v-413q0 -26 19 -44.5t45 -18.5h193q25 0 44 19t19 44zM162 826l-39 -53
q-10 -14 -26.5 -17t-29.5 7q-14 10 -16.5 26t7.5 30l39 53q10 14 26 17t30 -7t16.5 -26t-7.5 -30zM562 826l-39 -53q-10 -14 -26.5 -17t-29.5 7q-14 10 -16.5 26t7.5 30l39 53q10 14 26 17t30 -7t16.5 -26t-7.5 -30z" />
    <glyph glyph-name="ohungarumlaut" unicode="&#x151;" 
d="M530 556v-413q0 -59 -42 -101t-101 -42h-193q-60 0 -102 42t-42 101v413q0 59 42 101.5t102 42.5h193q59 0 101 -42.5t42 -101.5zM450 143v413q0 26 -18.5 45t-44.5 19h-193q-26 0 -45 -19t-19 -45v-413q0 -26 19 -44.5t45 -18.5h193q25 0 44 19t19 44zM162 826l-39 -53
q-10 -14 -26.5 -17t-29.5 7q-14 10 -16.5 26t7.5 30l39 53q10 14 26 17t30 -7t16.5 -26t-7.5 -30zM562 826l-39 -53q-10 -14 -26.5 -17t-29.5 7q-14 10 -16.5 26t7.5 30l39 53q10 14 26 17t30 -7t16.5 -26t-7.5 -30z" />
    <glyph glyph-name="OE" unicode="&#x152;" 
d="M529 350q0 -17 -11.5 -28.5t-28.5 -11.5h-159v-230h159q17 0 28.5 -11.5t11.5 -28.5t-11.5 -28.5t-28.5 -11.5h-282q-65 0 -111 46t-46 111v387q0 65 46 110.5t111 45.5h282q17 0 28.5 -11.5t11.5 -28.5t-11.5 -28.5t-28.5 -11.5h-159v-230h159q17 0 28.5 -11.5
t11.5 -28.5zM130 157q0 -35 26 -56t61 -21h33v540h-43q-39 0 -58 -29t-19 -72v-362z" />
    <glyph glyph-name="oe" unicode="&#x153;" 
d="M529 350q0 -17 -11.5 -28.5t-28.5 -11.5h-159v-230h159q17 0 28.5 -11.5t11.5 -28.5t-11.5 -28.5t-28.5 -11.5h-282q-65 0 -111 46t-46 111v387q0 65 46 110.5t111 45.5h282q17 0 28.5 -11.5t11.5 -28.5t-11.5 -28.5t-28.5 -11.5h-159v-230h159q17 0 28.5 -11.5
t11.5 -28.5zM130 157q0 -35 26 -56t61 -21h33v540h-43q-39 0 -58 -29t-19 -72v-362z" />
    <glyph glyph-name="Racute" unicode="&#x154;" 
d="M90 700h271q70 0 119.5 -49.5t49.5 -120.5v-51q0 -69 -47 -118t-113 -49l124 -145q20 -25 28 -40t8 -37v-50q0 -17 -11.5 -28.5t-28.5 -11.5t-28.5 11.5t-11.5 28.5v55l-183 215h-137v-270q0 -17 -11.5 -28.5t-28.5 -11.5t-28.5 11.5t-11.5 28.5v620q0 16 12 28t28 12z
M450 479v51q0 37 -26 63.5t-63 26.5h-231v-230h231q37 0 63 26t26 63zM399 872l-79 -79q-12 -12 -28 -12t-29 12q-11 12 -11.5 28.5t11.5 28.5l79 79q12 11 28.5 11t28.5 -11q12 -13 11.5 -29t-11.5 -28z" />
    <glyph glyph-name="racute" unicode="&#x155;" 
d="M90 700h271q70 0 119.5 -49.5t49.5 -120.5v-51q0 -69 -47 -118t-113 -49l124 -145q20 -25 28 -40t8 -37v-50q0 -17 -11.5 -28.5t-28.5 -11.5t-28.5 11.5t-11.5 28.5v55l-183 215h-137v-270q0 -17 -11.5 -28.5t-28.5 -11.5t-28.5 11.5t-11.5 28.5v620q0 16 12 28t28 12z
M450 479v51q0 37 -26 63.5t-63 26.5h-231v-230h231q37 0 63 26t26 63zM399 872l-79 -79q-12 -12 -28 -12t-29 12q-11 12 -11.5 28.5t11.5 28.5l79 79q12 11 28.5 11t28.5 -11q12 -13 11.5 -29t-11.5 -28z" />
    <glyph glyph-name="uni0156" unicode="&#x156;" 
d="M326 -157l-42 -74q-8 -15 -25 -6q-15 8 -6 24l30 54q-14 2 -23.5 13.5t-9.5 25.5q0 16 12 28t28 12t28 -12t12 -28v-15q0 -14 -4 -22zM90 700h271q70 0 119.5 -49.5t49.5 -120.5v-51q0 -69 -47 -118t-113 -49l124 -145q20 -25 28 -40t8 -37v-50q0 -17 -11.5 -28.5
t-28.5 -11.5t-28.5 11.5t-11.5 28.5v55l-183 215h-137v-270q0 -17 -11.5 -28.5t-28.5 -11.5t-28.5 11.5t-11.5 28.5v620q0 16 12 28t28 12zM450 479v51q0 37 -26 63.5t-63 26.5h-231v-230h231q37 0 63 26t26 63z" />
    <glyph glyph-name="uni0157" unicode="&#x157;" 
d="M326 -157l-42 -74q-8 -15 -25 -6q-15 8 -6 24l30 54q-14 2 -23.5 13.5t-9.5 25.5q0 16 12 28t28 12t28 -12t12 -28v-15q0 -14 -4 -22zM90 700h271q70 0 119.5 -49.5t49.5 -120.5v-51q0 -69 -47 -118t-113 -49l124 -145q20 -25 28 -40t8 -37v-50q0 -17 -11.5 -28.5
t-28.5 -11.5t-28.5 11.5t-11.5 28.5v55l-183 215h-137v-270q0 -17 -11.5 -28.5t-28.5 -11.5t-28.5 11.5t-11.5 28.5v620q0 16 12 28t28 12zM450 479v51q0 37 -26 63.5t-63 26.5h-231v-230h231q37 0 63 26t26 63z" />
    <glyph glyph-name="Rcaron" unicode="&#x158;" 
d="M90 700h271q70 0 119.5 -49.5t49.5 -120.5v-51q0 -69 -47 -118t-113 -49l124 -145q20 -25 28 -40t8 -37v-50q0 -17 -11.5 -28.5t-28.5 -11.5t-28.5 11.5t-11.5 28.5v55l-183 215h-137v-270q0 -17 -11.5 -28.5t-28.5 -11.5t-28.5 11.5t-11.5 28.5v620q0 16 12 28t28 12z
M450 479v51q0 37 -26 63.5t-63 26.5h-231v-230h231q37 0 63 26t26 63zM313 860l68 68q12 12 28 12t29 -12q11 -12 11.5 -28.5t-11.5 -28.5l-79 -79q-14 -12 -29 -12h-80q-14 0 -28 12l-79 79q-12 12 -11.5 28.5t11.5 28.5q13 12 29 12t28 -12l68 -68h45z" />
    <glyph glyph-name="rcaron" unicode="&#x159;" 
d="M90 700h271q70 0 119.5 -49.5t49.5 -120.5v-51q0 -69 -47 -118t-113 -49l124 -145q20 -25 28 -40t8 -37v-50q0 -17 -11.5 -28.5t-28.5 -11.5t-28.5 11.5t-11.5 28.5v55l-183 215h-137v-270q0 -17 -11.5 -28.5t-28.5 -11.5t-28.5 11.5t-11.5 28.5v620q0 16 12 28t28 12z
M450 479v51q0 37 -26 63.5t-63 26.5h-231v-230h231q37 0 63 26t26 63zM313 860l68 68q12 12 28 12t29 -12q11 -12 11.5 -28.5t-11.5 -28.5l-79 -79q-14 -12 -29 -12h-80q-14 0 -28 12l-79 79q-12 12 -11.5 28.5t11.5 28.5q13 12 29 12t28 -12l68 -68h45z" />
    <glyph glyph-name="Sacute" unicode="&#x15a;" 
d="M491 492q-17 0 -28.5 11.5t-11.5 28.5q0 36 -26.5 62t-63.5 26h-142q-36 0 -62.5 -26t-26.5 -63q0 -36 29.5 -65.5t74 -48t96.5 -42t96.5 -47.5t74 -65t29.5 -93q0 -71 -49.5 -120.5t-119.5 -49.5h-141q-70 0 -120 49.5t-50 119.5q0 17 11.5 28.5t28.5 11.5t28.5 -11.5
t11.5 -28.5q0 -37 26.5 -63t63.5 -26h142q37 0 63 26t26 64q0 43 -41.5 75.5t-100 56t-117.5 50t-100.5 72t-41.5 107.5q0 70 49.5 119.5t119.5 49.5h142q70 0 119.5 -49t49.5 -119q0 -17 -11 -28.5t-28 -11.5zM399 872l-79 -79q-12 -12 -28 -12t-29 12q-11 12 -11.5 28.5
t11.5 28.5l79 79q12 11 28.5 11t28.5 -11q12 -13 11.5 -29t-11.5 -28z" />
    <glyph glyph-name="sacute" unicode="&#x15b;" 
d="M491 492q-17 0 -28.5 11.5t-11.5 28.5q0 36 -26.5 62t-63.5 26h-142q-36 0 -62.5 -26t-26.5 -63q0 -36 29.5 -65.5t74 -48t96.5 -42t96.5 -47.5t74 -65t29.5 -93q0 -71 -49.5 -120.5t-119.5 -49.5h-141q-70 0 -120 49.5t-50 119.5q0 17 11.5 28.5t28.5 11.5t28.5 -11.5
t11.5 -28.5q0 -37 26.5 -63t63.5 -26h142q37 0 63 26t26 64q0 43 -41.5 75.5t-100 56t-117.5 50t-100.5 72t-41.5 107.5q0 70 49.5 119.5t119.5 49.5h142q70 0 119.5 -49t49.5 -119q0 -17 -11 -28.5t-28 -11.5zM399 872l-79 -79q-12 -12 -28 -12t-29 12q-11 12 -11.5 28.5
t11.5 28.5l79 79q12 11 28.5 11t28.5 -11q12 -13 11.5 -29t-11.5 -28z" />
    <glyph glyph-name="Scircumflex" unicode="&#x15c;" 
d="M491 492q-17 0 -28.5 11.5t-11.5 28.5q0 36 -26.5 62t-63.5 26h-142q-36 0 -62.5 -26t-26.5 -63q0 -36 29.5 -65.5t74 -48t96.5 -42t96.5 -47.5t74 -65t29.5 -93q0 -71 -49.5 -120.5t-119.5 -49.5h-141q-70 0 -120 49.5t-50 119.5q0 17 11.5 28.5t28.5 11.5t28.5 -11.5
t11.5 -28.5q0 -37 26.5 -63t63.5 -26h142q37 0 63 26t26 64q0 43 -41.5 75.5t-100 56t-117.5 50t-100.5 72t-41.5 107.5q0 70 49.5 119.5t119.5 49.5h142q70 0 119.5 -49t49.5 -119q0 -17 -11 -28.5t-28 -11.5zM381 792l-68 68h-45l-68 -68q-12 -12 -28 -12t-29 12
q-11 12 -11.5 28.5t11.5 28.5l79 79q12 12 28 12h80q17 0 29 -12l79 -79q12 -12 11.5 -28.5t-11.5 -28.5q-13 -12 -29 -12t-28 12z" />
    <glyph glyph-name="scircumflex" unicode="&#x15d;" 
d="M491 492q-17 0 -28.5 11.5t-11.5 28.5q0 36 -26.5 62t-63.5 26h-142q-36 0 -62.5 -26t-26.5 -63q0 -36 29.5 -65.5t74 -48t96.5 -42t96.5 -47.5t74 -65t29.5 -93q0 -71 -49.5 -120.5t-119.5 -49.5h-141q-70 0 -120 49.5t-50 119.5q0 17 11.5 28.5t28.5 11.5t28.5 -11.5
t11.5 -28.5q0 -37 26.5 -63t63.5 -26h142q37 0 63 26t26 64q0 43 -41.5 75.5t-100 56t-117.5 50t-100.5 72t-41.5 107.5q0 70 49.5 119.5t119.5 49.5h142q70 0 119.5 -49t49.5 -119q0 -17 -11 -28.5t-28 -11.5zM381 792l-68 68h-45l-68 -68q-12 -12 -28 -12t-29 12
q-11 12 -11.5 28.5t11.5 28.5l79 79q12 12 28 12h80q17 0 29 -12l79 -79q12 -12 11.5 -28.5t-11.5 -28.5q-13 -12 -29 -12t-28 12z" />
    <glyph glyph-name="Scedilla" unicode="&#x15e;" 
d="M491 492q-17 0 -28.5 11.5t-11.5 28.5q0 36 -26.5 62t-63.5 26h-142q-36 0 -62.5 -26t-26.5 -63q0 -36 29.5 -65.5t74 -48t96.5 -42t96.5 -47.5t74 -65t29.5 -93q0 -71 -49.5 -120.5t-119.5 -49.5h-51v-26q22 -6 37 -24t15 -40v-5q0 -26 -20 -45.5t-48 -19.5h-4
q-27 0 -46.5 19.5t-19.5 45.5q0 8 6 14t14 6t13.5 -6t5.5 -14q0 -10 8 -17.5t19 -7.5h4q11 0 19.5 7.5t8.5 17.5v5q0 10 -8.5 18t-19.5 8h-4q-8 0 -14 6t-6 14v44h-50q-70 0 -120 49.5t-50 119.5q0 17 11.5 28.5t28.5 11.5t28.5 -11.5t11.5 -28.5q0 -37 26.5 -63t63.5 -26
h142q37 0 63 26t26 64q0 43 -41.5 75.5t-100 56t-117.5 50t-100.5 72t-41.5 107.5q0 70 49.5 119.5t119.5 49.5h142q70 0 119.5 -49t49.5 -119q0 -17 -11 -28.5t-28 -11.5z" />
    <glyph glyph-name="scedilla" unicode="&#x15f;" 
d="M491 492q-17 0 -28.5 11.5t-11.5 28.5q0 36 -26.5 62t-63.5 26h-142q-36 0 -62.5 -26t-26.5 -63q0 -36 29.5 -65.5t74 -48t96.5 -42t96.5 -47.5t74 -65t29.5 -93q0 -71 -49.5 -120.5t-119.5 -49.5h-51v-26q22 -6 37 -24t15 -40v-5q0 -26 -20 -45.5t-48 -19.5h-4
q-27 0 -46.5 19.5t-19.5 45.5q0 8 6 14t14 6t13.5 -6t5.5 -14q0 -10 8 -17.5t19 -7.5h4q11 0 19.5 7.5t8.5 17.5v5q0 10 -8.5 18t-19.5 8h-4q-8 0 -14 6t-6 14v44h-50q-70 0 -120 49.5t-50 119.5q0 17 11.5 28.5t28.5 11.5t28.5 -11.5t11.5 -28.5q0 -37 26.5 -63t63.5 -26
h142q37 0 63 26t26 64q0 43 -41.5 75.5t-100 56t-117.5 50t-100.5 72t-41.5 107.5q0 70 49.5 119.5t119.5 49.5h142q70 0 119.5 -49t49.5 -119q0 -17 -11 -28.5t-28 -11.5z" />
    <glyph glyph-name="Scaron" unicode="&#x160;" 
d="M491 492q-17 0 -28.5 11.5t-11.5 28.5q0 36 -26.5 62t-63.5 26h-142q-36 0 -62.5 -26t-26.5 -63q0 -36 29.5 -65.5t74 -48t96.5 -42t96.5 -47.5t74 -65t29.5 -93q0 -71 -49.5 -120.5t-119.5 -49.5h-141q-70 0 -120 49.5t-50 119.5q0 17 11.5 28.5t28.5 11.5t28.5 -11.5
t11.5 -28.5q0 -37 26.5 -63t63.5 -26h142q37 0 63 26t26 64q0 43 -41.5 75.5t-100 56t-117.5 50t-100.5 72t-41.5 107.5q0 70 49.5 119.5t119.5 49.5h142q70 0 119.5 -49t49.5 -119q0 -17 -11 -28.5t-28 -11.5zM313 860l68 68q12 12 28 12t29 -12q11 -12 11.5 -28.5
t-11.5 -28.5l-79 -79q-14 -12 -29 -12h-80q-14 0 -28 12l-79 79q-12 12 -11.5 28.5t11.5 28.5q13 12 29 12t28 -12l68 -68h45z" />
    <glyph glyph-name="scaron" unicode="&#x161;" 
d="M491 492q-17 0 -28.5 11.5t-11.5 28.5q0 36 -26.5 62t-63.5 26h-142q-36 0 -62.5 -26t-26.5 -63q0 -36 29.5 -65.5t74 -48t96.5 -42t96.5 -47.5t74 -65t29.5 -93q0 -71 -49.5 -120.5t-119.5 -49.5h-141q-70 0 -120 49.5t-50 119.5q0 17 11.5 28.5t28.5 11.5t28.5 -11.5
t11.5 -28.5q0 -37 26.5 -63t63.5 -26h142q37 0 63 26t26 64q0 43 -41.5 75.5t-100 56t-117.5 50t-100.5 72t-41.5 107.5q0 70 49.5 119.5t119.5 49.5h142q70 0 119.5 -49t49.5 -119q0 -17 -11 -28.5t-28 -11.5zM313 860l68 68q12 12 28 12t29 -12q11 -12 11.5 -28.5
t-11.5 -28.5l-79 -79q-14 -12 -29 -12h-80q-14 0 -28 12l-79 79q-12 12 -11.5 28.5t11.5 28.5q13 12 29 12t28 -12l68 -68h45z" />
    <glyph glyph-name="uni0162" unicode="&#x162;" 
d="M290 40q8 0 14 -6t6 -14v-46q22 -6 37 -24t15 -40v-5q0 -26 -20 -45.5t-48 -19.5h-4q-27 0 -46.5 19.5t-19.5 45.5q0 8 6 14t14 6t13.5 -6t5.5 -14q0 -10 8 -17.5t19 -7.5h4q11 0 19.5 7.5t8.5 17.5v5q0 10 -8.5 18t-19.5 8h-4q-8 0 -14 6t-6 14v64q0 8 6 14t14 6z
M50 660q0 16 12 28t28 12h400q17 0 28.5 -11.5t11.5 -28.5t-11.5 -28.5t-28.5 -11.5h-160v-580q0 -17 -11.5 -28.5t-28.5 -11.5t-28.5 11.5t-11.5 28.5v580h-160q-17 0 -28.5 11.5t-11.5 28.5z" />
    <glyph glyph-name="uni0163" unicode="&#x163;" horiz-adv-x="833" 
d="M290 40q8 0 14 -6t6 -14v-46q22 -6 37 -24t15 -40v-5q0 -26 -20 -45.5t-48 -19.5h-4q-27 0 -46.5 19.5t-19.5 45.5q0 8 6 14t14 6t13.5 -6t5.5 -14q0 -10 8 -17.5t19 -7.5h4q11 0 19.5 7.5t8.5 17.5v5q0 10 -8.5 18t-19.5 8h-4q-8 0 -14 6t-6 14v64q0 8 6 14t14 6z
M50 660q0 16 12 28t28 12h400q17 0 28.5 -11.5t11.5 -28.5t-11.5 -28.5t-28.5 -11.5h-160v-580q0 -17 -11.5 -28.5t-28.5 -11.5t-28.5 11.5t-11.5 28.5v580h-160q-17 0 -28.5 11.5t-11.5 28.5z" />
    <glyph glyph-name="Tcaron" unicode="&#x164;" 
d="M50 660q0 16 12 28t28 12h400q17 0 28.5 -11.5t11.5 -28.5t-11.5 -28.5t-28.5 -11.5h-160v-580q0 -17 -11.5 -28.5t-28.5 -11.5t-28.5 11.5t-11.5 28.5v580h-160q-17 0 -28.5 11.5t-11.5 28.5zM313 860l68 68q12 12 28 12t29 -12q11 -12 11.5 -28.5t-11.5 -28.5l-79 -79
q-14 -12 -29 -12h-80q-14 0 -28 12l-79 79q-12 12 -11.5 28.5t11.5 28.5q13 12 29 12t28 -12l68 -68h45z" />
    <glyph glyph-name="tcaron" unicode="&#x165;" 
d="M50 660q0 16 12 28t28 12h400q17 0 28.5 -11.5t11.5 -28.5t-11.5 -28.5t-28.5 -11.5h-160v-580q0 -17 -11.5 -28.5t-28.5 -11.5t-28.5 11.5t-11.5 28.5v580h-160q-17 0 -28.5 11.5t-11.5 28.5zM313 860l68 68q12 12 28 12t29 -12q11 -12 11.5 -28.5t-11.5 -28.5l-79 -79
q-14 -12 -29 -12h-80q-14 0 -28 12l-79 79q-12 12 -11.5 28.5t11.5 28.5q13 12 29 12t28 -12l68 -68h45z" />
    <glyph glyph-name="Tbar" unicode="&#x166;" 
d="M50 660q0 16 12 28t28 12h400q17 0 28.5 -11.5t11.5 -28.5t-11.5 -28.5t-28.5 -11.5h-160v-230h120q17 0 28.5 -11.5t11.5 -28.5t-11.5 -28.5t-28.5 -11.5h-120v-270q0 -17 -11.5 -28.5t-28.5 -11.5t-28.5 11.5t-11.5 28.5v270h-120q-17 0 -28.5 11.5t-11.5 28.5
q0 16 12 28t28 12h120v230h-160q-17 0 -28.5 11.5t-11.5 28.5z" />
    <glyph glyph-name="tbar" unicode="&#x167;" 
d="M50 660q0 16 12 28t28 12h400q17 0 28.5 -11.5t11.5 -28.5t-11.5 -28.5t-28.5 -11.5h-160v-230h120q17 0 28.5 -11.5t11.5 -28.5t-11.5 -28.5t-28.5 -11.5h-120v-270q0 -17 -11.5 -28.5t-28.5 -11.5t-28.5 11.5t-11.5 28.5v270h-120q-17 0 -28.5 11.5t-11.5 28.5
q0 16 12 28t28 12h120v230h-160q-17 0 -28.5 11.5t-11.5 28.5z" />
    <glyph glyph-name="Utilde" unicode="&#x168;" 
d="M90 700q17 0 28.5 -11.5t11.5 -28.5v-517q0 -26 19 -44.5t45 -18.5h193q25 0 44 19t19 44v517q0 16 12 28t28 12q17 0 28.5 -11.5t11.5 -28.5v-517q0 -59 -42 -101t-101 -42h-193q-60 0 -102 42t-42 101v517q0 16 12 28t28 12zM473 904q12 -12 12 -28q0 -17 -17 -34
q-5 -5 -15.5 -16t-14 -14t-12 -10.5t-12.5 -10t-10.5 -6t-12.5 -4.5t-13 -1h-59q-14 0 -38 22l-34 33h-39l-40 -39q-16 -16 -35 -16q-16 0 -27 11.5t-11 28.5q0 16 17 33l36 35q28 27 55 27h55q19 0 46 -27l29 -28h40l39 39q16 16 34 16q14 0 27 -11z" />
    <glyph glyph-name="utilde" unicode="&#x169;" 
d="M90 700q17 0 28.5 -11.5t11.5 -28.5v-517q0 -26 19 -44.5t45 -18.5h193q25 0 44 19t19 44v517q0 16 12 28t28 12q17 0 28.5 -11.5t11.5 -28.5v-517q0 -59 -42 -101t-101 -42h-193q-60 0 -102 42t-42 101v517q0 16 12 28t28 12zM473 904q12 -12 12 -28q0 -17 -17 -34
q-5 -5 -15.5 -16t-14 -14t-12 -10.5t-12.5 -10t-10.5 -6t-12.5 -4.5t-13 -1h-59q-14 0 -38 22l-34 33h-39l-40 -39q-16 -16 -35 -16q-16 0 -27 11.5t-11 28.5q0 16 17 33l36 35q28 27 55 27h55q19 0 46 -27l29 -28h40l39 39q16 16 34 16q14 0 27 -11z" />
    <glyph glyph-name="Umacron" unicode="&#x16a;" 
d="M90 700q17 0 28.5 -11.5t11.5 -28.5v-517q0 -26 19 -44.5t45 -18.5h193q25 0 44 19t19 44v517q0 16 12 28t28 12q17 0 28.5 -11.5t11.5 -28.5v-517q0 -59 -42 -101t-101 -42h-193q-60 0 -102 42t-42 101v517q0 16 12 28t28 12zM450 820q0 -17 -11.5 -28.5t-28.5 -11.5
h-240q-17 0 -28.5 11.5t-11.5 28.5q0 16 12 28t28 12h240q17 0 28.5 -11.5t11.5 -28.5z" />
    <glyph glyph-name="umacron" unicode="&#x16b;" 
d="M90 700q17 0 28.5 -11.5t11.5 -28.5v-517q0 -26 19 -44.5t45 -18.5h193q25 0 44 19t19 44v517q0 16 12 28t28 12q17 0 28.5 -11.5t11.5 -28.5v-517q0 -59 -42 -101t-101 -42h-193q-60 0 -102 42t-42 101v517q0 16 12 28t28 12zM450 820q0 -17 -11.5 -28.5t-28.5 -11.5
h-240q-17 0 -28.5 11.5t-11.5 28.5q0 16 12 28t28 12h240q17 0 28.5 -11.5t11.5 -28.5z" />
    <glyph glyph-name="Ubreve" unicode="&#x16c;" 
d="M90 700q17 0 28.5 -11.5t11.5 -28.5v-517q0 -26 19 -44.5t45 -18.5h193q25 0 44 19t19 44v517q0 16 12 28t28 12q17 0 28.5 -11.5t11.5 -28.5v-517q0 -59 -42 -101t-101 -42h-193q-60 0 -102 42t-42 101v517q0 16 12 28t28 12zM209 940q19 0 29.5 -11t10.5 -29
q0 -17 12 -28.5t29 -11.5t29 11.5t12 28.5q0 18 10.5 29t29.5 11q18 0 29 -11t11 -29q0 -50 -35.5 -85t-85.5 -35t-85.5 35t-35.5 85q0 18 11 29t29 11z" />
    <glyph glyph-name="ubreve" unicode="&#x16d;" 
d="M90 700q17 0 28.5 -11.5t11.5 -28.5v-517q0 -26 19 -44.5t45 -18.5h193q25 0 44 19t19 44v517q0 16 12 28t28 12q17 0 28.5 -11.5t11.5 -28.5v-517q0 -59 -42 -101t-101 -42h-193q-60 0 -102 42t-42 101v517q0 16 12 28t28 12zM209 940q19 0 29.5 -11t10.5 -29
q0 -17 12 -28.5t29 -11.5t29 11.5t12 28.5q0 18 10.5 29t29.5 11q18 0 29 -11t11 -29q0 -50 -35.5 -85t-85.5 -35t-85.5 35t-35.5 85q0 18 11 29t29 11z" />
    <glyph glyph-name="Uring" unicode="&#x16e;" 
d="M90 700q17 0 28.5 -11.5t11.5 -28.5v-517q0 -26 19 -44.5t45 -18.5h193q25 0 44 19t19 44v517q0 16 12 28t28 12q17 0 28.5 -11.5t11.5 -28.5v-517q0 -59 -42 -101t-101 -42h-193q-60 0 -102 42t-42 101v517q0 16 12 28t28 12zM155 915q0 56 39.5 95.5t95.5 39.5
t95.5 -40t39.5 -95q0 -56 -39.5 -95.5t-95.5 -39.5t-95.5 39.5t-39.5 95.5zM235 915q0 -23 16 -39t39 -16q22 0 38.5 16t16.5 39t-16 39t-39 16t-39 -16t-16 -39z" />
    <glyph glyph-name="uring" unicode="&#x16f;" 
d="M90 700q17 0 28.5 -11.5t11.5 -28.5v-517q0 -26 19 -44.5t45 -18.5h193q25 0 44 19t19 44v517q0 16 12 28t28 12q17 0 28.5 -11.5t11.5 -28.5v-517q0 -59 -42 -101t-101 -42h-193q-60 0 -102 42t-42 101v517q0 16 12 28t28 12zM155 915q0 56 39.5 95.5t95.5 39.5
t95.5 -40t39.5 -95q0 -56 -39.5 -95.5t-95.5 -39.5t-95.5 39.5t-39.5 95.5zM235 915q0 -23 16 -39t39 -16q22 0 38.5 16t16.5 39t-16 39t-39 16t-39 -16t-16 -39z" />
    <glyph glyph-name="Uhungarumlaut" unicode="&#x170;" 
d="M90 700q17 0 28.5 -11.5t11.5 -28.5v-517q0 -26 19 -44.5t45 -18.5h193q25 0 44 19t19 44v517q0 16 12 28t28 12q17 0 28.5 -11.5t11.5 -28.5v-517q0 -59 -42 -101t-101 -42h-193q-60 0 -102 42t-42 101v517q0 16 12 28t28 12zM164 826l-39 -53q-10 -14 -26.5 -17
t-29.5 7q-14 10 -16.5 26t7.5 30l39 53q10 14 26 17t30 -7t16.5 -26t-7.5 -30zM564 826l-39 -53q-10 -14 -26.5 -17t-29.5 7q-14 10 -16.5 26t7.5 30l39 53q10 14 26 17t30 -7t16.5 -26t-7.5 -30z" />
    <glyph glyph-name="uhungarumlaut" unicode="&#x171;" 
d="M90 700q17 0 28.5 -11.5t11.5 -28.5v-517q0 -26 19 -44.5t45 -18.5h193q25 0 44 19t19 44v517q0 16 12 28t28 12q17 0 28.5 -11.5t11.5 -28.5v-517q0 -59 -42 -101t-101 -42h-193q-60 0 -102 42t-42 101v517q0 16 12 28t28 12zM164 826l-39 -53q-10 -14 -26.5 -17
t-29.5 7q-14 10 -16.5 26t7.5 30l39 53q10 14 26 17t30 -7t16.5 -26t-7.5 -30zM564 826l-39 -53q-10 -14 -26.5 -17t-29.5 7q-14 10 -16.5 26t7.5 30l39 53q10 14 26 17t30 -7t16.5 -26t-7.5 -30z" />
    <glyph glyph-name="Uogonek" unicode="&#x172;" 
d="M290 -160h-4q-28 0 -48 19.5t-20 45.5v5q0 22 15 40t37 24v26h-76q-60 0 -102 42t-42 101v517q0 16 12 28t28 12q17 0 28.5 -11.5t11.5 -28.5v-517q0 -26 19 -44.5t45 -18.5h193q25 0 44 19t19 44v517q0 16 12 28t28 12q17 0 28.5 -11.5t11.5 -28.5v-517q0 -59 -42 -101
t-101 -42h-77v-44q0 -8 -6 -14t-14 -6h-4q-11 0 -19.5 -8t-8.5 -18v-5q0 -10 8.5 -17.5t19.5 -7.5h4q8 0 14 -6t6 -14t-6 -14t-14 -6z" />
    <glyph glyph-name="uogonek" unicode="&#x173;" 
d="M290 -160h-4q-28 0 -48 19.5t-20 45.5v5q0 22 15 40t37 24v26h-76q-60 0 -102 42t-42 101v517q0 16 12 28t28 12q17 0 28.5 -11.5t11.5 -28.5v-517q0 -26 19 -44.5t45 -18.5h193q25 0 44 19t19 44v517q0 16 12 28t28 12q17 0 28.5 -11.5t11.5 -28.5v-517q0 -59 -42 -101
t-101 -42h-77v-44q0 -8 -6 -14t-14 -6h-4q-11 0 -19.5 -8t-8.5 -18v-5q0 -10 8.5 -17.5t19.5 -7.5h4q8 0 14 -6t6 -14t-6 -14t-14 -6z" />
    <glyph glyph-name="Wcircumflex" unicode="&#x174;" 
d="M250 350q0 17 11.5 28.5t28.5 11.5t28.5 -11.5t11.5 -28.5q0 -26 6 -34l114 -154v498q0 17 11.5 28.5t28.5 11.5t28.5 -11.5t11.5 -28.5v-620q0 -17 -11.5 -28.5t-28.5 -11.5q-22 0 -40 25l-161 222l-159 -222q-16 -25 -40 -25q-16 0 -28 12t-12 28v620q0 17 11.5 28.5
t28.5 11.5t28.5 -11.5t11.5 -28.5v-497l112 153q8 12 8 34zM381 792l-68 68h-45l-68 -68q-12 -12 -28 -12t-29 12q-11 12 -11.5 28.5t11.5 28.5l79 79q12 12 28 12h80q17 0 29 -12l79 -79q12 -12 11.5 -28.5t-11.5 -28.5q-13 -12 -29 -12t-28 12z" />
    <glyph glyph-name="wcircumflex" unicode="&#x175;" 
d="M250 350q0 17 11.5 28.5t28.5 11.5t28.5 -11.5t11.5 -28.5q0 -26 6 -34l114 -154v498q0 17 11.5 28.5t28.5 11.5t28.5 -11.5t11.5 -28.5v-620q0 -17 -11.5 -28.5t-28.5 -11.5q-22 0 -40 25l-161 222l-159 -222q-16 -25 -40 -25q-16 0 -28 12t-12 28v620q0 17 11.5 28.5
t28.5 11.5t28.5 -11.5t11.5 -28.5v-497l112 153q8 12 8 34zM381 792l-68 68h-45l-68 -68q-12 -12 -28 -12t-29 12q-11 12 -11.5 28.5t11.5 28.5l79 79q12 12 28 12h80q17 0 29 -12l79 -79q12 -12 11.5 -28.5t-11.5 -28.5q-13 -12 -29 -12t-28 12z" />
    <glyph glyph-name="Ycircumflex" unicode="&#x176;" 
d="M290 415l160 186v59q0 16 12 28t28 12q17 0 28.5 -11.5t11.5 -28.5v-64q0 -34 -27 -67l-173 -200v-289q0 -17 -11.5 -28.5t-28.5 -11.5t-28.5 11.5t-11.5 28.5v289l-173 200q-27 33 -27 67v64q0 17 12 28.5t29 11.5q16 0 27.5 -11.5t11.5 -28.5v-59zM381 792l-68 68h-45
l-68 -68q-12 -12 -28 -12t-29 12q-11 12 -11.5 28.5t11.5 28.5l79 79q12 12 28 12h80q17 0 29 -12l79 -79q12 -12 11.5 -28.5t-11.5 -28.5q-13 -12 -29 -12t-28 12z" />
    <glyph glyph-name="ycircumflex" unicode="&#x177;" 
d="M290 415l160 186v59q0 16 12 28t28 12q17 0 28.5 -11.5t11.5 -28.5v-64q0 -34 -27 -67l-173 -200v-289q0 -17 -11.5 -28.5t-28.5 -11.5t-28.5 11.5t-11.5 28.5v289l-173 200q-27 33 -27 67v64q0 17 12 28.5t29 11.5q16 0 27.5 -11.5t11.5 -28.5v-59zM381 792l-68 68h-45
l-68 -68q-12 -12 -28 -12t-29 12q-11 12 -11.5 28.5t11.5 28.5l79 79q12 12 28 12h80q17 0 29 -12l79 -79q12 -12 11.5 -28.5t-11.5 -28.5q-13 -12 -29 -12t-28 12z" />
    <glyph glyph-name="Ydieresis" unicode="&#x178;" 
d="M290 415l160 186v59q0 16 12 28t28 12q17 0 28.5 -11.5t11.5 -28.5v-64q0 -34 -27 -67l-173 -200v-289q0 -17 -11.5 -28.5t-28.5 -11.5t-28.5 11.5t-11.5 28.5v289l-173 200q-27 33 -27 67v64q0 17 12 28.5t29 11.5q16 0 27.5 -11.5t11.5 -28.5v-59zM50 820v80
q0 17 11.5 28.5t28.5 11.5q16 0 28 -12t12 -28v-80q0 -17 -11.5 -28.5t-28.5 -11.5t-28.5 11.5t-11.5 28.5zM450 820v80q0 17 11.5 28.5t28.5 11.5q16 0 28 -12t12 -28v-80q0 -17 -11.5 -28.5t-28.5 -11.5t-28.5 11.5t-11.5 28.5z" />
    <glyph glyph-name="Zacute" unicode="&#x179;" 
d="M50 660q0 16 12 28t28 12h396q17 0 30.5 -13t13.5 -29q0 -17 -14 -38l-358 -540h332q17 0 28.5 -11.5t11.5 -28.5t-11.5 -28.5t-28.5 -11.5h-400q-18 0 -29 12.5t-11 29.5q0 24 10 38l363 540h-333q-17 0 -28.5 11.5t-11.5 28.5zM399 872l-79 -79q-12 -12 -28 -12t-29 12
q-11 12 -11.5 28.5t11.5 28.5l79 79q12 11 28.5 11t28.5 -11q12 -13 11.5 -29t-11.5 -28z" />
    <glyph glyph-name="zacute" unicode="&#x17a;" 
d="M50 660q0 16 12 28t28 12h396q17 0 30.5 -13t13.5 -29q0 -17 -14 -38l-358 -540h332q17 0 28.5 -11.5t11.5 -28.5t-11.5 -28.5t-28.5 -11.5h-400q-18 0 -29 12.5t-11 29.5q0 24 10 38l363 540h-333q-17 0 -28.5 11.5t-11.5 28.5zM399 872l-79 -79q-12 -12 -28 -12t-29 12
q-11 12 -11.5 28.5t11.5 28.5l79 79q12 11 28.5 11t28.5 -11q12 -13 11.5 -29t-11.5 -28z" />
    <glyph glyph-name="Zdotaccent" unicode="&#x17b;" 
d="M50 660q0 16 12 28t28 12h396q17 0 30.5 -13t13.5 -29q0 -17 -14 -38l-358 -540h332q17 0 28.5 -11.5t11.5 -28.5t-11.5 -28.5t-28.5 -11.5h-400q-18 0 -29 12.5t-11 29.5q0 24 10 38l363 540h-333q-17 0 -28.5 11.5t-11.5 28.5zM250 820v80q0 17 11.5 28.5t28.5 11.5
q16 0 28 -12t12 -28v-80q0 -17 -11.5 -28.5t-28.5 -11.5t-28.5 11.5t-11.5 28.5z" />
    <glyph glyph-name="zdotaccent" unicode="&#x17c;" 
d="M50 660q0 16 12 28t28 12h396q17 0 30.5 -13t13.5 -29q0 -17 -14 -38l-358 -540h332q17 0 28.5 -11.5t11.5 -28.5t-11.5 -28.5t-28.5 -11.5h-400q-18 0 -29 12.5t-11 29.5q0 24 10 38l363 540h-333q-17 0 -28.5 11.5t-11.5 28.5zM250 820v80q0 17 11.5 28.5t28.5 11.5
q16 0 28 -12t12 -28v-80q0 -17 -11.5 -28.5t-28.5 -11.5t-28.5 11.5t-11.5 28.5z" />
    <glyph glyph-name="Zcaron" unicode="&#x17d;" 
d="M50 660q0 16 12 28t28 12h396q17 0 30.5 -13t13.5 -29q0 -17 -14 -38l-358 -540h332q17 0 28.5 -11.5t11.5 -28.5t-11.5 -28.5t-28.5 -11.5h-400q-18 0 -29 12.5t-11 29.5q0 24 10 38l363 540h-333q-17 0 -28.5 11.5t-11.5 28.5zM314 860l68 68q12 12 28 12t29 -12
q11 -12 11.5 -28.5t-11.5 -28.5l-79 -79q-14 -12 -29 -12h-80q-14 0 -28 12l-79 79q-12 12 -11.5 28.5t11.5 28.5q13 12 29 12t28 -12l68 -68h45z" />
    <glyph glyph-name="zcaron" unicode="&#x17e;" 
d="M50 660q0 16 12 28t28 12h396q17 0 30.5 -13t13.5 -29q0 -17 -14 -38l-358 -540h332q17 0 28.5 -11.5t11.5 -28.5t-11.5 -28.5t-28.5 -11.5h-400q-18 0 -29 12.5t-11 29.5q0 24 10 38l363 540h-333q-17 0 -28.5 11.5t-11.5 28.5zM314 860l68 68q12 12 28 12t29 -12
q11 -12 11.5 -28.5t-11.5 -28.5l-79 -79q-14 -12 -29 -12h-80q-14 0 -28 12l-79 79q-12 12 -11.5 28.5t11.5 28.5q13 12 29 12t28 -12l68 -68h45z" />
    <glyph glyph-name="longs" unicode="&#x17f;" 
d="M0 10h285v221l-63 63q-28 -30 -71 -30q-41 0 -69.5 28.5t-28.5 69.5t28.5 70t69.5 29t70 -29t29 -70q0 -34 -21 -61l56 -56v216q-49 2 -81.5 36t-32.5 83q0 50 34.5 85t84.5 35t85 -35t35 -85q0 -49 -33.5 -83t-81.5 -36v-137l224 225l7 -7l-142 -142h102v-10h-112
l-79 -80v-300h285v-10h-580v10zM180 580q0 -46 30 -77t75 -33v31l-69 70l7 7l62 -63v85h10v-38l36 37l7 -7l-43 -44v-78q44 2 75 33.5t31 76.5q0 46 -32.5 78.5t-78.5 32.5t-78 -32.5t-32 -78.5zM62 362q0 -38 26 -63.5t63 -25.5q38 0 65 27h-83v10h73l-72 73l7 7l81 -82
q19 24 19 54q0 38 -26.5 64t-63.5 26t-63 -26t-26 -64z" />
    <glyph glyph-name="florin" unicode="&#x192;" 
d="M0 10h285v211q-98 2 -166.5 72t-68.5 168q0 99 70.5 169.5t169.5 70.5t169.5 -70.5t70.5 -169.5q0 -98 -69 -168t-166 -72v-211h285v-10h-580v10zM360 365l-65 -65v-68q92 2 158 68.5t66 160.5q0 95 -67.5 162t-161.5 67t-161.5 -67t-67.5 -162q0 -94 65.5 -160.5
t158.5 -68.5v23l-45 45l7 8l38 -38v80h10v-35l58 58z" />
    <glyph glyph-name="uni0218" unicode="&#x218;" 
d="M491 492q-17 0 -28.5 11.5t-11.5 28.5q0 36 -26.5 62t-63.5 26h-142q-36 0 -62.5 -26t-26.5 -63q0 -36 29.5 -65.5t74 -48t96.5 -42t96.5 -47.5t74 -65t29.5 -93q0 -71 -49.5 -120.5t-119.5 -49.5h-141q-70 0 -120 49.5t-50 119.5q0 17 11.5 28.5t28.5 11.5t28.5 -11.5
t11.5 -28.5q0 -37 26.5 -63t63.5 -26h142q37 0 63 26t26 64q0 43 -41.5 75.5t-100 56t-117.5 50t-100.5 72t-41.5 107.5q0 70 49.5 119.5t119.5 49.5h142q70 0 119.5 -49t49.5 -119q0 -17 -11 -28.5t-28 -11.5zM326 -157l-42 -74q-8 -15 -25 -6q-15 8 -6 24l30 54
q-14 2 -23.5 13.5t-9.5 25.5q0 16 12 28t28 12t28 -12t12 -28v-15q0 -14 -4 -22z" />
    <glyph glyph-name="uni0219" unicode="&#x219;" 
d="M491 492q-17 0 -28.5 11.5t-11.5 28.5q0 36 -26.5 62t-63.5 26h-142q-36 0 -62.5 -26t-26.5 -63q0 -36 29.5 -65.5t74 -48t96.5 -42t96.5 -47.5t74 -65t29.5 -93q0 -71 -49.5 -120.5t-119.5 -49.5h-141q-70 0 -120 49.5t-50 119.5q0 17 11.5 28.5t28.5 11.5t28.5 -11.5
t11.5 -28.5q0 -37 26.5 -63t63.5 -26h142q37 0 63 26t26 64q0 43 -41.5 75.5t-100 56t-117.5 50t-100.5 72t-41.5 107.5q0 70 49.5 119.5t119.5 49.5h142q70 0 119.5 -49t49.5 -119q0 -17 -11 -28.5t-28 -11.5zM326 -157l-42 -74q-8 -15 -25 -6q-15 8 -6 24l30 54
q-14 2 -23.5 13.5t-9.5 25.5q0 16 12 28t28 12t28 -12t12 -28v-15q0 -14 -4 -22z" />
    <glyph glyph-name="uni021A" unicode="&#x21a;" 
d="M326 -157l-42 -74q-8 -15 -25 -6q-15 8 -6 24l30 54q-14 2 -23.5 13.5t-9.5 25.5q0 16 12 28t28 12t28 -12t12 -28v-15q0 -14 -4 -22zM50 660q0 16 12 28t28 12h400q17 0 28.5 -11.5t11.5 -28.5t-11.5 -28.5t-28.5 -11.5h-160v-580q0 -17 -11.5 -28.5t-28.5 -11.5
t-28.5 11.5t-11.5 28.5v580h-160q-17 0 -28.5 11.5t-11.5 28.5z" />
    <glyph glyph-name="uni021B" unicode="&#x21b;" 
d="M326 -157l-42 -74q-8 -15 -25 -6q-15 8 -6 24l30 54q-14 2 -23.5 13.5t-9.5 25.5q0 16 12 28t28 12t28 -12t12 -28v-15q0 -14 -4 -22zM50 660q0 16 12 28t28 12h400q17 0 28.5 -11.5t11.5 -28.5t-11.5 -28.5t-28.5 -11.5h-160v-580q0 -17 -11.5 -28.5t-28.5 -11.5
t-28.5 11.5t-11.5 28.5v580h-160q-17 0 -28.5 11.5t-11.5 28.5z" />
    <glyph glyph-name="circumflex" unicode="&#x2c6;" 
d="M381 792l-68 68h-45l-68 -68q-12 -12 -28 -12t-29 12q-11 12 -11.5 28.5t11.5 28.5l79 79q12 12 28 12h80q17 0 29 -12l79 -79q12 -12 11.5 -28.5t-11.5 -28.5q-13 -12 -29 -12t-28 12z" />
    <glyph glyph-name="caron" unicode="&#x2c7;" 
d="M313 860l68 68q12 12 28 12t29 -12q11 -12 11.5 -28.5t-11.5 -28.5l-79 -79q-14 -12 -29 -12h-80q-14 0 -28 12l-79 79q-12 12 -11.5 28.5t11.5 28.5q13 12 29 12t28 -12l68 -68h45z" />
    <glyph glyph-name="breve" unicode="&#x2d8;" 
d="M209 940q19 0 29.5 -11t10.5 -29q0 -17 12 -28.5t29 -11.5t29 11.5t12 28.5q0 18 10.5 29t29.5 11q18 0 29 -11t11 -29q0 -50 -35.5 -85t-85.5 -35t-85.5 35t-35.5 85q0 18 11 29t29 11z" />
    <glyph glyph-name="dotaccent" unicode="&#x2d9;" 
d="M250 820v80q0 17 11.5 28.5t28.5 11.5q16 0 28 -12t12 -28v-80q0 -17 -11.5 -28.5t-28.5 -11.5t-28.5 11.5t-11.5 28.5z" />
    <glyph glyph-name="ring" unicode="&#x2da;" 
d="M155 915q0 56 39.5 95.5t95.5 39.5t95.5 -40t39.5 -95q0 -56 -39.5 -95.5t-95.5 -39.5t-95.5 39.5t-39.5 95.5zM235 915q0 -23 16 -39t39 -16q22 0 38.5 16t16.5 39t-16 39t-39 16t-39 -16t-16 -39z" />
    <glyph glyph-name="ogonek" unicode="&#x2db;" 
d="M296 -160h-4q-28 0 -48 19.5t-20 45.5v5q0 22 15 40t37 24v26q0 8 6 14t14 6t14 -6t6 -14v-44q0 -8 -6 -14t-14 -6h-4q-11 0 -19.5 -8t-8.5 -18v-5q0 -10 8.5 -17.5t19.5 -7.5h4q8 0 14 -6t6 -14t-6 -14t-14 -6z" />
    <glyph glyph-name="tilde" unicode="&#x2dc;" 
d="M472 904q12 -12 12 -28q0 -17 -17 -34q-5 -5 -15.5 -16t-14 -14t-12 -10.5t-12.5 -10t-10.5 -6t-12.5 -4.5t-13 -1h-59q-14 0 -38 22l-34 33h-39l-40 -39q-16 -16 -35 -16q-16 0 -27 11.5t-11 28.5q0 16 17 33l36 35q28 27 55 27h55q19 0 46 -27l29 -28h40l39 39
q16 16 34 16q14 0 27 -11z" />
    <glyph glyph-name="hungarumlaut" unicode="&#x2dd;" 
d="M162 826l-39 -53q-10 -14 -26.5 -17t-29.5 7q-14 10 -16.5 26t7.5 30l39 53q10 14 26 17t30 -7t16.5 -26t-7.5 -30zM562 826l-39 -53q-10 -14 -26.5 -17t-29.5 7q-14 10 -16.5 26t7.5 30l39 53q10 14 26 17t30 -7t16.5 -26t-7.5 -30z" />
    <glyph glyph-name="uni03A9" unicode="&#x3a9;" 
d="M430 345h-90l-45 -45v-290h285v-10h-580v10h285v390l-96 96h-139v10h129l-126 127l7 7l225 -226v186h10v-86l64 64l7 -7l-71 -71v-186l130 130v56h10v-46l84 85l7 -7l-84 -84h88v-10h-98l-82 -83h80v-10z" />
    <glyph glyph-name="pi" unicode="&#x3c0;" 
d="M330 40v580h-80v-580q0 -17 -12 -28.5t-29 -11.5t-28.5 11.5t-11.5 28.5v580h-79q-17 0 -28.5 11.5t-11.5 28.5q0 16 12 28t28 12h400q17 0 28.5 -11.5t11.5 -28.5t-11.5 -28.5t-28.5 -11.5h-80v-580q0 -17 -11.5 -28.5t-28.5 -11.5t-28.5 11.5t-11.5 28.5z" />
    <glyph glyph-name="uni2000" unicode="&#x2000;" horiz-adv-x="525" 
 />
    <glyph glyph-name="uni2001" unicode="&#x2001;" horiz-adv-x="1050" 
 />
    <glyph glyph-name="uni2002" unicode="&#x2002;" horiz-adv-x="525" 
 />
    <glyph glyph-name="uni2003" unicode="&#x2003;" horiz-adv-x="1050" 
 />
    <glyph glyph-name="uni2004" unicode="&#x2004;" horiz-adv-x="350" 
 />
    <glyph glyph-name="uni2005" unicode="&#x2005;" horiz-adv-x="262" 
 />
    <glyph glyph-name="uni2006" unicode="&#x2006;" horiz-adv-x="175" 
 />
    <glyph glyph-name="uni2007" unicode="&#x2007;" horiz-adv-x="175" 
 />
    <glyph glyph-name="uni2008" unicode="&#x2008;" horiz-adv-x="131" 
 />
    <glyph glyph-name="uni2009" unicode="&#x2009;" horiz-adv-x="210" 
 />
    <glyph glyph-name="uni200A" unicode="&#x200a;" horiz-adv-x="58" 
 />
    <glyph glyph-name="uni2010" unicode="&#x2010;" 
d="M530 349q0 -16 -11.5 -27.5t-28.5 -11.5h-400q-16 0 -28 11.5t-12 27.5q0 17 11.5 29t28.5 12h400q15 0 27.5 -12.5t12.5 -28.5z" />
    <glyph glyph-name="uni2011" unicode="&#x2011;" 
d="M530 349q0 -16 -11.5 -27.5t-28.5 -11.5h-400q-16 0 -28 11.5t-12 27.5q0 17 11.5 29t28.5 12h400q15 0 27.5 -12.5t12.5 -28.5z" />
    <glyph glyph-name="figuredash" unicode="&#x2012;" 
d="M530 349q0 -16 -11.5 -27.5t-28.5 -11.5h-400q-16 0 -28 11.5t-12 27.5q0 17 11.5 29t28.5 12h400q15 0 27.5 -12.5t12.5 -28.5z" />
    <glyph glyph-name="endash" unicode="&#x2013;" 
d="M530 350q0 -17 -11.5 -28.5t-28.5 -11.5h-400q-17 0 -28.5 11.5t-11.5 28.5q0 16 12 28t28 12h400q17 0 28.5 -11.5t11.5 -28.5z" />
    <glyph glyph-name="emdash" unicode="&#x2014;" 
d="M580 350q0 -17 -11.5 -28.5t-28.5 -11.5h-500q-17 0 -28.5 11.5t-11.5 28.5t11.5 28.5t28.5 11.5h500q16 0 28 -12t12 -28z" />
    <glyph glyph-name="quoteleft" unicode="&#x2018;" 
d="M330 541v-72q0 -48 -40 -48q-20 0 -30 14t-10 35v78q0 33 9 54l37 88q4 9 13.5 10t16 -6.5t2.5 -17.5l-38 -95q17 0 28.5 -11.5t11.5 -28.5z" />
    <glyph glyph-name="quoteright" unicode="&#x2019;" 
d="M250 580v72q0 48 40 48q20 0 30 -14t10 -35v-78q0 -33 -9 -54l-37 -88q-4 -9 -13.5 -10t-16 6.5t-2.5 17.5l38 95q-17 0 -28.5 11.5t-11.5 28.5z" />
    <glyph glyph-name="quotesinglbase" unicode="&#x201a;" 
d="M250 40v72q0 48 40 48q20 0 30 -14t10 -35v-78q0 -33 -9 -54l-37 -88q-4 -9 -13.5 -10t-16 6.5t-2.5 17.5l38 95q-17 0 -28.5 11.5t-11.5 28.5z" />
    <glyph glyph-name="quotedblleft" unicode="&#x201c;" 
d="M410 541v-72q0 -48 -40 -48q-20 0 -30 14t-10 35v78q0 33 9 54l37 88q4 9 13.5 10t16 -6.5t2.5 -17.5l-38 -95q17 0 28.5 -11.5t11.5 -28.5zM250 541v-72q0 -48 -40 -48q-20 0 -30 14t-10 35v78q0 33 9 54l37 88q4 9 13.5 10t16 -6.5t2.5 -17.5l-38 -95q17 0 28.5 -11.5
t11.5 -28.5z" />
    <glyph glyph-name="quotedblright" unicode="&#x201d;" 
d="M170 580v72q0 48 40 48q20 0 30 -14t10 -35v-78q0 -33 -9 -54l-37 -88q-4 -9 -13.5 -10t-16 6.5t-2.5 17.5l38 95q-17 0 -28.5 11.5t-11.5 28.5zM330 580v72q0 48 40 48q20 0 30 -14t10 -35v-78q0 -33 -9 -54l-37 -88q-4 -9 -13.5 -10t-16 6.5t-2.5 17.5l38 95
q-17 0 -28.5 11.5t-11.5 28.5z" />
    <glyph glyph-name="quotedblbase" unicode="&#x201e;" 
d="M170 40v72q0 48 40 48q20 0 30 -14t10 -35v-78q0 -33 -9 -54l-37 -88q-4 -9 -13.5 -10t-16 6.5t-2.5 17.5l38 95q-17 0 -28.5 11.5t-11.5 28.5zM330 40v72q0 48 40 48q20 0 30 -14t10 -35v-78q0 -33 -9 -54l-37 -88q-4 -9 -13.5 -10t-16 6.5t-2.5 17.5l38 95
q-17 0 -28.5 11.5t-11.5 28.5z" />
    <glyph glyph-name="dagger" unicode="&#x2020;" 
d="M50 459q0 17 11.5 28.5t28.5 11.5h160v161q0 15 12 27.5t27 12.5q17 0 29 -11.5t12 -28.5v-161h160q17 0 28.5 -11.5t11.5 -28.5t-11.5 -28.5t-28.5 -11.5h-160v-379q0 -16 -12.5 -28t-28.5 -12q-17 0 -28 11.5t-11 28.5v379h-160q-16 0 -28 11.5t-12 28.5z" />
    <glyph glyph-name="daggerdbl" unicode="&#x2021;" 
d="M50 459q0 17 11.5 28.5t28.5 11.5h160v161q0 15 12 27.5t27 12.5q17 0 29 -11.5t12 -28.5v-161h160q17 0 28.5 -11.5t11.5 -28.5t-11.5 -28.5t-28.5 -11.5h-160v-139h160q17 0 28.5 -11.5t11.5 -28.5t-11.5 -28.5t-28.5 -11.5h-160v-160q0 -16 -12.5 -28t-28.5 -12
q-17 0 -28 11.5t-11 28.5v160h-160q-16 0 -28 12t-12 28q0 17 11.5 28.5t28.5 11.5h160v139h-160q-16 0 -28 11.5t-12 28.5z" />
    <glyph glyph-name="bullet" unicode="&#x2022;" 
d="M530 351q0 -97 -71 -166.5t-169 -69.5t-169 69.5t-71 166.5t71 166.5t169 69.5t169 -69.5t71 -166.5z" />
    <glyph glyph-name="ellipsis" unicode="&#x2026;" 
d="M250 40v80q0 17 11.5 28.5t28.5 11.5q16 0 28 -12t12 -28v-80q0 -17 -11.5 -28.5t-28.5 -11.5t-28.5 11.5t-11.5 28.5zM50 40v80q0 17 11.5 28.5t28.5 11.5q16 0 28 -12t12 -28v-80q0 -17 -11.5 -28.5t-28.5 -11.5t-28.5 11.5t-11.5 28.5zM450 40v80q0 17 11.5 28.5
t28.5 11.5q16 0 28 -12t12 -28v-80q0 -17 -11.5 -28.5t-28.5 -11.5t-28.5 11.5t-11.5 28.5z" />
    <glyph glyph-name="uni202F" unicode="&#x202f;" horiz-adv-x="210" 
 />
    <glyph glyph-name="perthousand" unicode="&#x2030;" 
d="M580 245v-139q0 -44 -31 -75t-74 -31q-45 0 -75 32q-30 -32 -75 -32q-43 0 -74 31t-31 75v101l-110 -147v-30q0 -13 -8.5 -21.5t-21.5 -8.5t-21.5 8.5t-8.5 21.5v30q0 15 8 27l412 553v30q0 13 8.5 21.5t21.5 8.5t21.5 -8.5t8.5 -21.5v-30q0 -16 -8 -27l-196 -263
q44 -2 74 -32q30 32 75 32q43 0 74 -31t31 -74zM260 595v-139q0 -44 -31 -75t-74 -31t-74 31t-31 75v139q0 43 31 74t74 31t74 -31t31 -74zM370 106v139q0 18 -13 31.5t-32 13.5t-32 -13.5t-13 -31.5v-139q0 -19 13 -32.5t32 -13.5t32 13.5t13 32.5zM200 456v139
q0 18 -13 31.5t-32 13.5t-32 -13.5t-13 -31.5v-139q0 -19 13 -32.5t32 -13.5t32 13.5t13 32.5zM430 245v-139v-4q2 -17 14.5 -29.5t30.5 -12.5q19 0 32 13.5t13 32.5v139q0 18 -13 31.5t-32 13.5q-18 0 -30.5 -12.5t-14.5 -29.5v-3z" />
    <glyph glyph-name="guilsinglleft" unicode="&#x2039;" 
d="M150 311v78q0 14 10 24l140 140q31 32 68 32h22q17 0 28.5 -11t11.5 -29q0 -17 -12 -28.5t-28 -11.5h-22l-138 -139v-32l138 -139h22q16 0 28 -11.5t12 -28.5q0 -18 -11.5 -29t-28.5 -11h-22q-37 0 -68 32l-140 140q-10 10 -10 24z" />
    <glyph glyph-name="guilsinglright" unicode="&#x203a;" 
d="M430 389v-78q0 -14 -10 -24l-140 -140q-31 -32 -68 -32h-22q-17 0 -28.5 11t-11.5 29q0 17 12 28.5t28 11.5h22l138 139v32l-138 139h-22q-16 0 -28 11.5t-12 28.5q0 18 11.5 29t28.5 11h22q37 0 68 -32l140 -140q10 -10 10 -24z" />
    <glyph glyph-name="fraction" unicode="&#x2044;" 
d="M50 30v30q0 15 8 27l412 553v30q0 13 8.5 21.5t21.5 8.5t21.5 -8.5t8.5 -21.5v-30q0 -16 -8 -27l-412 -553v-30q0 -13 -8.5 -21.5t-21.5 -8.5t-21.5 8.5t-8.5 21.5z" />
    <glyph glyph-name="uni205F" unicode="&#x205f;" horiz-adv-x="262" 
 />
    <glyph glyph-name="franc" unicode="&#x20a3;" 
d="M0 10h285v211q-98 2 -166.5 72t-68.5 168q0 99 70.5 169.5t169.5 70.5t169.5 -70.5t70.5 -169.5q0 -98 -69 -168t-166 -72v-211h285v-10h-580v10zM360 365l-65 -65v-68q92 2 158 68.5t66 160.5q0 95 -67.5 162t-161.5 67t-161.5 -67t-67.5 -162q0 -94 65.5 -160.5
t158.5 -68.5v23l-45 45l7 8l38 -38v80h10v-35l58 58z" />
    <glyph glyph-name="lira" unicode="&#x20a4;" 
d="M430 345h-90l-45 -45v-290h285v-10h-580v10h285v390l-96 96h-139v10h129l-126 127l7 7l225 -226v186h10v-86l64 64l7 -7l-71 -71v-186l130 130v56h10v-46l84 85l7 -7l-84 -84h88v-10h-98l-82 -83h80v-10z" />
    <glyph glyph-name="peseta" unicode="&#x20a7;" 
d="M403 344h-64l-44 -44v-290h285v-10h-580v10h285v230l-48 48l7 7l41 -41v97l-86 86h-82v11h71l-71 71l8 7l160 -160v44h10v-95l73 73v49h11v-38l76 76l-23 22l8 8l23 -22l52 52l8 -7l-80 -80h50v-11h-61l-82 -82h53v-11z" />
    <glyph glyph-name="Euro" unicode="&#x20ac;" 
d="M250 390v-80h79q17 0 28.5 -11.5t11.5 -28.5t-11.5 -28.5t-28.5 -11.5h-79v-74q0 -31 22.5 -53.5t53.5 -22.5h47q32 0 54.5 22.5t22.5 53.5q0 17 11.5 28.5t28.5 11.5t28.5 -11.5t11.5 -28.5q0 -65 -46 -110.5t-111 -45.5h-47q-61 0 -109 42.5t-48 113.5v74h-78
q-17 0 -28.5 11.5t-11.5 28.5q0 16 11.5 28t28.5 12h78v80h-78q-17 0 -28.5 12t-11.5 28q0 17 11.5 28.5t28.5 11.5h78v74q0 71 48 113.5t109 42.5h47q65 0 111 -45.5t46 -110.5q0 -17 -11.5 -28.5t-28.5 -11.5t-28.5 11.5t-11.5 28.5q0 31 -22.5 53.5t-54.5 22.5h-47
q-31 0 -53.5 -22.5t-22.5 -53.5v-74h79q17 0 28.5 -11.5t11.5 -28.5t-11.5 -28.5t-28.5 -11.5h-79z" />
    <glyph glyph-name="trademark" unicode="&#x2122;" 
d="M390 525q0 11 -4 17l-56 76v-248q0 -9 -6 -14.5t-14 -5.5t-14 5.5t-6 14.5v310q0 8 6 14t14 6q10 0 20 -13l79 -111l81 111q8 13 20 13q8 0 14 -6t6 -14v-310q0 -9 -6 -14.5t-14 -5.5t-14 5.5t-6 14.5v249l-57 -77q-3 -4 -3 -17q0 -9 -6 -14.5t-14 -5.5q-20 0 -20 20z
M50 680q0 8 6 14t14 6h160q8 0 14 -6t6 -14q0 -9 -6 -14.5t-14 -5.5h-60v-290q0 -9 -6 -14.5t-14 -5.5q-20 0 -20 20v290h-60q-8 0 -14 5.5t-6 14.5z" />
    <glyph glyph-name="arrowleft" unicode="&#x2190;" 
d="M259 310v-120q0 -13 -8.5 -21.5t-21.5 -8.5h-28q-9 0 -25 14l-112 97q-14 11 -14 25v107q0 14 14 26l112 97q16 14 25 14h28q13 0 21.5 -8.5t8.5 -21.5v-120h231q15 0 27.5 -12t12.5 -28q0 -17 -11.5 -28.5t-28.5 -11.5h-231z" />
    <glyph glyph-name="arrowup" unicode="&#x2191;" 
d="M290 0q-17 0 -28.5 11.5t-11.5 28.5v451h-120q-13 0 -21.5 8.5t-8.5 21.5v28q0 9 14 25l97 112q12 14 26 14h107q14 0 25 -14l97 -112q14 -16 14 -25v-28q0 -13 -8.5 -21.5t-21.5 -8.5h-120v-451q0 -16 -12 -28t-28 -12z" />
    <glyph glyph-name="arrowright" unicode="&#x2192;" 
d="M321 190v120h-231q-17 0 -28.5 11.5t-11.5 28.5q0 16 12.5 28t27.5 12h231v120q0 13 8.5 21.5t21.5 8.5h28q9 0 25 -14l112 -97q14 -12 14 -26v-107q0 -14 -14 -25l-112 -97q-16 -14 -25 -14h-28q-13 0 -21.5 8.5t-8.5 21.5z" />
    <glyph glyph-name="arrowdown" unicode="&#x2193;" 
d="M290 700q16 0 28 -12t12 -28v-451h120q13 0 21.5 -8.5t8.5 -21.5v-28q0 -9 -14 -25l-97 -112q-11 -14 -25 -14h-107q-14 0 -26 14l-97 112q-14 16 -14 25v28q0 13 8.5 21.5t21.5 8.5h120v451q0 17 11.5 28.5t28.5 11.5z" />
    <glyph glyph-name="carriagereturn" unicode="&#x21b5;" 
d="M490 700q17 0 28.5 -11.5t11.5 -28.5v-310q0 -17 -11.5 -28.5t-28.5 -11.5h-231v-120q0 -13 -8.5 -21.5t-21.5 -8.5h-28q-9 0 -25 14l-112 97q-14 12 -14 26v107q0 14 14 25l112 97q16 14 25 14h28q13 0 21.5 -8.5t8.5 -21.5v-120h191v270q0 17 11.5 28.5t28.5 11.5z" />
    <glyph glyph-name="partialdiff" unicode="&#x2202;" 
d="M580 710v-710h-580v710h580zM10 10h560v690h-560v-690z" />
    <glyph glyph-name="Delta" unicode="&#x2206;" 
d="M51 40v282q0 47 5 58l137 288q7 18 15.5 25t26.5 7h110q18 0 26.5 -7.5t15.5 -24.5l138 -288q5 -9 5 -58v-282q0 -17 -11.5 -28.5t-28.5 -11.5h-399q-17 0 -28.5 11.5t-11.5 28.5zM131 353v-273h319v273l-123 267h-70z" />
    <glyph glyph-name="product" unicode="&#x220f;" 
d="M580 710v-710h-580v710h580zM10 700v-195h275v195h-275zM570 700h-275v-195h275v195zM295 10h275v185h-275v-185zM10 10h275v185h-275v-185zM295 345v-140h275v140h-275zM295 495v-140h275v140h-275zM10 345v-140h275v140h-275zM10 495v-140h275v140h-275z" />
    <glyph glyph-name="summation" unicode="&#x2211;" 
d="M580 710v-710h-580v710h580zM10 700v-345h275v345h-275zM570 700h-275v-345h275v345zM295 10h275v335h-275v-335zM10 10h275v335h-275v-335z" />
    <glyph glyph-name="radical" unicode="&#x221a;" 
d="M90 0q-17 0 -28.5 11.5t-11.5 28.5v310q0 17 11.5 28.5t28.5 11.5t28.5 -11.5t11.5 -28.5v-172l326 502q13 20 34 20q23 0 35 -21t0 -39l-395 -615q-15 -25 -40 -25z" />
    <glyph glyph-name="infinity" unicode="&#x221e;" 
d="M530 395v-90q0 -44 -29 -74.5t-72 -30.5q-51 0 -86 42l-53 61l-52 -61q-35 -42 -86 -42q-43 0 -72.5 30.5t-29.5 74.5v90q0 44 29.5 74.5t72.5 30.5q51 0 86 -42l52 -62l53 62q35 42 86 42q43 0 72 -30.5t29 -74.5zM388 417l-60 -67l60 -67q18 -23 41 -23q18 0 29.5 13
t11.5 32v90q0 19 -11.5 32t-29.5 13q-23 0 -41 -23zM110 395v-90q0 -18 12 -31.5t30 -13.5q23 0 41 23l55 67l-55 67q-18 23 -41 23q-18 0 -30 -13.5t-12 -31.5z" />
    <glyph glyph-name="integral" unicode="&#x222b;" 
d="M580 710v-710h-580v710h580zM10 700v-95h275v95h-275zM570 700h-275v-95h275v95zM295 495v-90h275v90h-275zM295 595v-90h275v90h-275zM10 195v-90h275v90h-275zM10 295v-90h275v90h-275zM10 395v-90h275v90h-275zM10 495v-90h275v90h-275zM10 595v-90h275v90h-275z
M295 195v-90h275v90h-275zM295 295v-90h275v90h-275zM295 395v-90h275v90h-275zM10 10h275v85h-275v-85zM295 10h275v85h-275v-85z" />
    <glyph glyph-name="approxequal" unicode="&#x2248;" 
d="M63 403q-12 11 -12 28t12 28l8.5 8.5t10.5 10t11 9.5t13.5 10.5t14.5 9.5t17 8.5t18 6t21 5t23 1.5q47 0 95 -26q64 -34 87 -34q12 0 21.5 2.5t18.5 8.5t13.5 9.5t14 13l11.5 11.5q11 12 27.5 12t28.5 -12q12 -11 12 -28t-12 -28q-1 -1 -11 -10.5t-14.5 -13t-15.5 -12.5
t-19.5 -13t-21 -9.5t-26 -7.5t-28.5 -2q-45 0 -95 25q-66 35 -87 35q-10 0 -19 -2.5t-15.5 -5t-14.5 -8.5t-11 -9t-10.5 -11t-9.5 -10q-11 -12 -27.5 -12t-28.5 12zM63 184q-12 11 -12 28t12 28l8.5 8.5t10.5 10t11 9.5t13.5 10.5t14.5 9.5t17 8.5t18 6t21 5t23 1.5
q47 0 95 -26q64 -34 87 -34q12 0 21.5 2.5t18.5 8.5t13.5 9.5t14 13l11.5 11.5q11 12 27.5 12t28.5 -12q12 -11 12 -28t-12 -28q-1 -1 -11 -10.5t-14.5 -13t-15.5 -12.5t-19.5 -13t-21 -9.5t-26 -7.5t-28.5 -2q-45 0 -95 25q-66 35 -87 35q-10 0 -19 -2.5t-15.5 -5
t-14.5 -8.5t-11 -9t-10.5 -11t-9.5 -10q-11 -12 -27.5 -12t-28.5 12z" />
    <glyph glyph-name="notequal" unicode="&#x2260;" 
d="M50 430q0 17 11.5 28.5t28.5 11.5h160v81q0 16 11.5 28t27.5 12q17 0 29 -11.5t12 -28.5v-81h160q17 0 28.5 -11.5t11.5 -28.5t-11.5 -28.5t-28.5 -11.5h-160v-80h160q17 0 28.5 -11.5t11.5 -28.5t-11.5 -28.5t-28.5 -11.5h-160v-82q0 -15 -12.5 -27.5t-28.5 -12.5
t-27.5 11.5t-11.5 28.5v82h-160q-16 0 -28 12t-12 28q0 17 11.5 28.5t28.5 11.5h160v80h-160q-16 0 -28 12t-12 28z" />
    <glyph glyph-name="lessequal" unicode="&#x2264;" 
d="M130 364v-28l334 -146h26q17 0 28.5 -11.5t11.5 -28.5q0 -19 -14 -29.5t-33 -10.5h-22q-20 0 -59 18l-337 158q-15 7 -15 29v70q0 22 15 29l337 158q39 18 59 18h22q19 0 33 -10.5t14 -29.5q0 -17 -11.5 -28.5t-28.5 -11.5h-26zM530 40q0 -17 -11.5 -28.5t-28.5 -11.5
h-400q-17 0 -28.5 11.5t-11.5 28.5q0 16 12 28t28 12h400q17 0 28.5 -11.5t11.5 -28.5z" />
    <glyph glyph-name="greaterequal" unicode="&#x2265;" 
d="M450 336v28l-334 146h-26q-17 0 -28.5 11.5t-11.5 28.5q0 19 14 29.5t33 10.5h22q20 0 59 -18l337 -158q15 -7 15 -29v-70q0 -22 -15 -29l-337 -158q-39 -18 -59 -18h-22q-19 0 -33 10.5t-14 29.5q0 17 11.5 28.5t28.5 11.5h26zM530 40q0 -17 -11.5 -28.5t-28.5 -11.5
h-400q-17 0 -28.5 11.5t-11.5 28.5q0 16 12 28t28 12h400q17 0 28.5 -11.5t11.5 -28.5z" />
    <glyph glyph-name="lozenge" unicode="&#x25ca;" 
d="M580 710v-710h-580v710h580zM62 700v-690h50v690h-50zM122 700v-690h50v690h-50zM182 700v-690h50v690h-50zM348 700v-690h50v690h-50zM408 700v-690h50v690h-50zM468 700v-690h50v690h-50zM295 700v-690h43v690h-43zM242 700v-690h43v690h-43zM10 10h42v690h-42v-690z
M570 700h-42v-690h42v690z" />
    <glyph glyph-name="uni25FC" unicode="&#x25fc;" horiz-adv-x="700" 
d="M0 700h700v-700h-700v700z" />
    <glyph glyph-name="uniF8FF" unicode="&#xf8ff;" 
d="M150 510v90h190v-90h-190zM250 610v90h180v-90h-180zM60 610v90h180v-90h-180zM350 510v90h170v-90h-170zM440 610v90h140v-90h-140zM0 510v90h140v-90h-140zM530 510v90h50v-90h-50zM0 610v90h50v-90h-50zM150 310v90h190v-90h-190zM250 410v90h180v-90h-180zM60 410v90
h180v-90h-180zM350 310v90h170v-90h-170zM440 410v90h140v-90h-140zM0 310v90h140v-90h-140zM530 310v90h50v-90h-50zM0 410v90h50v-90h-50zM150 110v90h190v-90h-190zM250 210v90h180v-90h-180zM60 210v90h180v-90h-180zM350 110v90h170v-90h-170zM440 210v90h140v-90h-140
zM0 110v90h140v-90h-140zM530 110v90h50v-90h-50zM0 210v90h50v-90h-50zM250 10v90h180v-90h-180zM60 10v90h180v-90h-180zM440 10v90h140v-90h-140zM0 10v90h50v-90h-50z" />
    <glyph glyph-name="uniFB01" unicode="&#xfb01;" 
d="M530 660q0 -17 -11.5 -28.5t-28.5 -11.5h-20v-540h20q17 0 28.5 -11.5t11.5 -28.5t-11.5 -28.5t-28.5 -11.5h-120q-17 0 -28.5 11.5t-11.5 28.5q0 16 12 28t28 12h20v540h-20q-17 0 -28.5 11.5t-11.5 28.5q0 16 12 28t28 12h120q17 0 28.5 -11.5t11.5 -28.5zM90 0
q-17 0 -28.5 10.5t-11.5 29.5v620q0 16 12 28t28 12h120q18 0 29 -12t11 -28t-11 -28t-29 -12h-80v-230h80q18 0 29 -12t11 -28t-11 -28t-29 -12h-80v-270q0 -19 -11.5 -29.5t-28.5 -10.5z" />
    <glyph glyph-name="uniFB02" unicode="&#xfb02;" 
d="M370 700q17 0 28.5 -11.5t11.5 -28.5v-580h80q17 0 28.5 -11.5t11.5 -28.5t-11.5 -28.5t-28.5 -11.5h-120q-17 0 -28.5 11.5t-11.5 28.5v620q0 16 12 28t28 12zM90 0q-17 0 -28.5 10.5t-11.5 29.5v620q0 16 12 28t28 12h120q18 0 29 -12t11 -28t-11 -28t-29 -12h-80v-230
h80q18 0 29 -12t11 -28t-11 -28t-29 -12h-80v-270q0 -19 -11.5 -29.5t-28.5 -10.5z" />
    <glyph glyph-name="uniFB03" unicode="&#xfb03;" 
d="M90 0q-17 0 -28.5 10.5t-11.5 29.5v620q0 16 12 28t28 12h80q18 0 29 -12t11 -28t-11 -28t-29 -12h-40v-230h40q18 0 29 -12t11 -28t-11 -28t-29 -12h-40v-270q0 -19 -11.5 -29.5t-28.5 -10.5zM290 0q-17 0 -28.5 10.5t-11.5 29.5v620q0 16 12 28t28 12h80q18 0 29 -12
t11 -28t-11 -28t-29 -12h-40v-230h40q18 0 29 -12t11 -28t-11 -28t-29 -12h-40v-270q0 -19 -11.5 -29.5t-28.5 -10.5zM490 700q16 0 28 -12t12 -28v-620q0 -16 -12 -28t-28 -12q-17 0 -28.5 11.5t-11.5 28.5v620q0 17 11.5 28.5t28.5 11.5z" />
    <glyph glyph-name="uniFB04" unicode="&#xfb04;" 
d="M90 0q-17 0 -28.5 10.5t-11.5 29.5v620q0 16 12 28t28 12h70q18 0 29 -12t11 -28t-11 -28t-29 -12h-30v-230h30q18 0 29 -12t11 -28t-11 -28t-29 -12h-30v-270q0 -19 -11.5 -29.5t-28.5 -10.5zM255 0q-17 0 -28.5 10.5t-11.5 29.5v620q0 16 11.5 28t28.5 12h70
q18 0 29 -12t11 -28t-11 -28t-29 -12h-30v-230h30q18 0 29 -12t11 -28t-11 -28t-29 -12h-30v-270q0 -19 -11.5 -29.5t-28.5 -10.5zM420 700q17 0 28.5 -10.5t11.5 -29.5v-580h30q18 0 29 -12t11 -28t-11 -28t-29 -12h-70q-16 0 -28 12t-12 28v620q0 19 11.5 29.5t28.5 10.5z
" />
  </font>
</defs>
</svg>
